{
.appVersion = "1356";
DisplayStrings = (
"01020304050607080910121314151617181920212223242526\0126272829\01251525354555657585950",
"rouge/space Rouge/space 05/space ªº",

glyphs = (
{
color = 3;
glyphname = .notdef;
lastChange = "2021-04-23 03:36:15 +0000";
layers = (
{
layerId = "E8487A59-2E36-4739-8DF2-414A9818920F";
paths = (
{
closed = 1;
nodes = (
"320 0 LINE",
"320 534 LINE",
"50 534 LINE",
"50 0 LINE"
);
},
{
closed = 1;
nodes = (
"183 236 LINE",
"263 53 LINE",
"103 53 LINE"
);
},
{
closed = 1;
nodes = (
"94 439 LINE",
"167 271 LINE",
"94 106 LINE"
);
},
{
closed = 1;
nodes = (
"198 271 LINE",
"272 441 LINE",
"272 104 LINE"
);
},
{
closed = 1;
nodes = (
"106 480 LINE",
"259 480 LINE",
"183 307 LINE"
);
}
);
width = 370;
}
);
note = .notdef;
},
{
color = 3;
glyphname = A;
lastChange = "2021-07-28 11:24:51 +0000";
layers = (
{
anchors = (
{
name = bottom;
position = "{366, 0}";
},
{
name = ogonek;
position = "{600, -27}";
},
{
name = top;
position = "{800, 600}";
}
);
layerId = "E8487A59-2E36-4739-8DF2-414A9818920F";
paths = (
{
closed = 1;
nodes = (
"894 623 OFFCURVE",
"845 628 OFFCURVE",
"845 628 CURVE",
"846 630 OFFCURVE",
"822 631 OFFCURVE",
"804 631 CURVE",
"811 651 OFFCURVE",
"792 652 OFFCURVE",
"766 643 CURVE",
"761 642 OFFCURVE",
"755 637 OFFCURVE",
"748 631 CURVE",
"742 631 LINE SMOOTH",
"739 631 OFFCURVE",
"737 631 OFFCURVE",
"735 629 CURVE",
"731 631 OFFCURVE",
"726 633 OFFCURVE",
"722 633 CURVE SMOOTH",
"720 633 OFFCURVE",
"717 632 OFFCURVE",
"714 630 CURVE",
"707 631 OFFCURVE",
"696 636 OFFCURVE",
"687 633 CURVE",
"681 634 OFFCURVE",
"675 635 OFFCURVE",
"669 635 CURVE SMOOTH",
"664 635 OFFCURVE",
"660 634 OFFCURVE",
"654 633 CURVE",
"648 634 OFFCURVE",
"640 636 OFFCURVE",
"632 632 CURVE",
"631 631 LINE",
"609 634 OFFCURVE",
"461 615 OFFCURVE",
"443 599 CURVE",
"442 599 LINE SMOOTH",
"416 599 OFFCURVE",
"333 561 OFFCURVE",
"307 553 CURVE",
"305 551 OFFCURVE",
"265 531 OFFCURVE",
"261 529 CURVE SMOOTH",
"239 516 OFFCURVE",
"216 505 OFFCURVE",
"194 490 CURVE SMOOTH",
"121 438 OFFCURVE",
"38 356 OFFCURVE",
"5 283 CURVE SMOOTH",
"-1 270 OFFCURVE",
"-8 250 OFFCURVE",
"0 242 CURVE",
"12 235 LINE",
"18 234 OFFCURVE",
"29 156 OFFCURVE",
"29 177 CURVE SMOOTH",
"29 340 OFFCURVE",
"262 550 OFFCURVE",
"455 583 CURVE",
"462 593 OFFCURVE",
"529 592 OFFCURVE",
"546 604 CURVE",
"591 606 OFFCURVE",
"668 605 OFFCURVE",
"706 605 CURVE SMOOTH",
"723 605 LINE",
"694 571 LINE SMOOTH",
"682 556 OFFCURVE",
"671 543 OFFCURVE",
"659 529 CURVE SMOOTH",
"652 521 OFFCURVE",
"564 438 OFFCURVE",
"559 430 CURVE",
"554 429 OFFCURVE",
"509 380 OFFCURVE",
"501 375 CURVE",
"473 353 OFFCURVE",
"462 331 OFFCURVE",
"435 309 CURVE SMOOTH",
"421 296 OFFCURVE",
"422 289 OFFCURVE",
"409 277 CURVE",
"407 276 OFFCURVE",
"402 268 OFFCURVE",
"398 266 CURVE SMOOTH",
"389 261 OFFCURVE",
"381 255 OFFCURVE",
"372 249 CURVE",
"371 249 LINE SMOOTH",
"367 249 OFFCURVE",
"352 250 OFFCURVE",
"350 250 CURVE SMOOTH",
"348 250 OFFCURVE",
"315 245 OFFCURVE",
"312 245 CURVE SMOOTH",
"310 245 OFFCURVE",
"311 247 OFFCURVE",
"309 248 CURVE",
"292 220 LINE",
"290 213 OFFCURVE",
"289 206 OFFCURVE",
"289 200 CURVE",
"296 197 LINE",
"297 198 OFFCURVE",
"314 197 OFFCURVE",
"315 197 CURVE SMOOTH",
"318 197 OFFCURVE",
"324 204 OFFCURVE",
"326 204 CURVE SMOOTH",
"329 204 OFFCURVE",
"326 203 OFFCURVE",
"328 203 CURVE SMOOTH",
"330 203 LINE",
"302 179 OFFCURVE",
"298 165 OFFCURVE",
"267 138 CURVE SMOOTH",
"156 42 LINE SMOOTH",
"78 -25 OFFCURVE",
"94 -5 OFFCURVE",
"32 -48 CURVE",
"18 -55 OFFCURVE",
"-27 -89 OFFCURVE",
"-41 -95 CURVE SMOOTH",
"-87 -119 OFFCURVE",
"-123 -126 OFFCURVE",
"-170 -144 CURVE SMOOTH",
"-182 -149 OFFCURVE",
"-202 -149 OFFCURVE",
"-212 -156 CURVE",
"-221 -156 OFFCURVE",
"-229 -161 OFFCURVE",
"-237 -162 CURVE SMOOTH",
"-253 -166 OFFCURVE",
"-271 -168 OFFCURVE",
"-286 -173 CURVE",
"-286 -172 OFFCURVE",
"-287 -172 OFFCURVE",
"-288 -171 CURVE",
"-289 -174 OFFCURVE",
"-304 -172 OFFCURVE",
"-308 -174 CURVE",
"-310 -173 LINE",
"-326 -176 LINE",
"-331 -176 OFFCURVE",
"-336 -175 OFFCURVE",
"-340 -174 CURVE",
"-358 -173 OFFCURVE",
"-378 -175 OFFCURVE",
"-390 -166 CURVE SMOOTH",
"-396 -162 OFFCURVE",
"-398 -155 OFFCURVE",
"-402 -150 CURVE",
"-403 -146 LINE",
"-407 -148 LINE",
"-408 -153 OFFCURVE",
"-397 -164 OFFCURVE",
"-396 -169 CURVE",
"-386 -175 LINE SMOOTH",
"-379 -179 OFFCURVE",
"-371 -183 OFFCURVE",
"-362 -186 CURVE SMOOTH",
"-359 -187 OFFCURVE",
"-357 -188 OFFCURVE",
"-354 -188 CURVE SMOOTH",
"-353 -188 LINE",
"-347 -190 LINE SMOOTH",
"-341 -192 OFFCURVE",
"-315 -196 OFFCURVE",
"-309 -193 CURVE",
"-306 -193 LINE",
"-289 -195 LINE",
"-285 -194 OFFCURVE",
"-280 -195 OFFCURVE",
"-275 -194 CURVE SMOOTH",
"-243 -187 LINE",
"-237 -187 OFFCURVE",
"-213 -182 OFFCURVE",
"-209 -179 CURVE",
"-201 -180 OFFCURVE",
"-194 -176 OFFCURVE",
"-186 -174 CURVE SMOOTH",
"-177 -172 OFFCURVE",
"-168 -169 OFFCURVE",
"-159 -166 CURVE SMOOTH",
"-153 -164 OFFCURVE",
"-147 -162 OFFCURVE",
"-141 -161 CURVE",
"-122 -152 LINE",
"-117 -152 OFFCURVE",
"-100 -143 OFFCURVE",
"-94 -140 CURVE SMOOTH",
"-69 -128 OFFCURVE",
"-43 -115 OFFCURVE",
"-19 -100 CURVE SMOOTH",
"43 -61 OFFCURVE",
"-2 -95 OFFCURVE",
"81 -42 CURVE SMOOTH",
"105 -27 OFFCURVE",
"132 -3 OFFCURVE",
"162 18 CURVE SMOOTH",
"183 33 OFFCURVE",
"210 55 OFFCURVE",
"220 63 CURVE SMOOTH",
"227 69 OFFCURVE",
"235 75 OFFCURVE",
"242 82 CURVE SMOOTH",
"274 112 LINE",
"285 119 LINE",
"301 134 LINE",
"315 145 LINE SMOOTH",
"327 155 OFFCURVE",
"338 166 OFFCURVE",
"350 176 CURVE SMOOTH",
"374 196 LINE SMOOTH",
"384 204 OFFCURVE",
"389 213 OFFCURVE",
"399 222 CURVE",
"503 222 LINE SMOOTH",
"506 222 OFFCURVE",
"510 225 OFFCURVE",
"512 225 CURVE",
"513 226 LINE",
"515 226 OFFCURVE",
"516 224 OFFCURVE",
"518 224 CURVE SMOOTH",
"519 224 LINE SMOOTH",
"526 224 OFFCURVE",
"541 225 OFFCURVE",
"556 225 CURVE",
"558 213 OFFCURVE",
"552 211 OFFCURVE",
"548 197 CURVE SMOOTH",
"545 187 OFFCURVE",
"540 167 OFFCURVE",
"535 159 CURVE",
"536 152 LINE SMOOTH",
"537 144 OFFCURVE",
"526 113 OFFCURVE",
"528 104 CURVE",
"528 102 OFFCURVE",
"529 100 OFFCURVE",
"530 98 CURVE",
"531 100 OFFCURVE",
"531 103 OFFCURVE",
"531 105 CURVE",
"532 106 LINE",
"532 105 OFFCURVE",
"532 105 OFFCURVE",
"533 105 CURVE",
"533 99 OFFCURVE",
"526 72 OFFCURVE",
"523 67 CURVE",
"524 66 LINE",
"523 66 LINE",
"521 76 OFFCURVE",
"525 83 OFFCURVE",
"525 93 CURVE",
"524 93 LINE",
"524 89 OFFCURVE",
"521 75 OFFCURVE",
"520 70 CURVE SMOOTH",
"517 46 OFFCURVE",
"527 33 OFFCURVE",
"531 12 CURVE SMOOTH",
"534 -7 OFFCURVE",
"543 5 OFFCURVE",
"553 -7 CURVE SMOOTH",
"556 -11 OFFCURVE",
"559 -16 OFFCURVE",
"562 -18 CURVE SMOOTH",
"569 -24 OFFCURVE",
"580 -26 OFFCURVE",
"583 -37 CURVE",
"587 -37 OFFCURVE",
"597 -51 OFFCURVE",
"610 -48 CURVE SMOOTH",
"622 -46 OFFCURVE",
"664 6 OFFCURVE",
"671 19 CURVE SMOOTH",
"674 25 OFFCURVE",
"692 57 OFFCURVE",
"694 58 CURVE",
"694 59 OFFCURVE",
"733 120 OFFCURVE",
"742 138 CURVE",
"736 139 LINE",
"732 138 OFFCURVE",
"727 125 OFFCURVE",
"724 121 CURVE",
"722 120 OFFCURVE",
"714 109 OFFCURVE",
"714 107 CURVE",
"710 105 OFFCURVE",
"686 64 OFFCURVE",
"676 53 CURVE SMOOTH",
"674 50 OFFCURVE",
"672 47 OFFCURVE",
"669 44 CURVE",
"664 36 OFFCURVE",
"658 30 OFFCURVE",
"653 23 CURVE SMOOTH",
"637 1 OFFCURVE",
"621 -17 OFFCURVE",
"596 -21 CURVE SMOOTH",
"585 -23 OFFCURVE",
"577 -25 OFFCURVE",
"574 -6 CURVE SMOOTH",
"572 2 OFFCURVE",
"573 11 OFFCURVE",
"573 19 CURVE SMOOTH",
"576 76 OFFCURVE",
"596 158 OFFCURVE",
"619 229 CURVE",
"623 229 OFFCURVE",
"633 228 OFFCURVE",
"639 228 CURVE",
"642 233 LINE",
"648 234 OFFCURVE",
"657 236 OFFCURVE",
"659 236 CURVE SMOOTH",
"661 236 OFFCURVE",
"660 233 OFFCURVE",
"662 233 CURVE",
"664 236 LINE",
"670 236 OFFCURVE",
"678 239 OFFCURVE",
"681 239 CURVE SMOOTH",
"683 239 OFFCURVE",
"682 237 OFFCURVE",
"684 237 CURVE SMOOTH",
"690 237 OFFCURVE",
"678 247 OFFCURVE",
"672 247 CURVE SMOOTH",
"670 247 OFFCURVE",
"670 249 OFFCURVE",
"669 249 CURVE SMOOTH",
"662 250 OFFCURVE",
"651 251 OFFCURVE",
"642 251 CURVE SMOOTH",
"626 251 LINE",
"642 299 OFFCURVE",
"658 340 OFFCURVE",
"670 362 CURVE SMOOTH",
"673 368 OFFCURVE",
"706 434 OFFCURVE",
"711 440 CURVE SMOOTH",
"714 444 OFFCURVE",
"716 450 OFFCURVE",
"719 454 CURVE SMOOTH",
"731 472 OFFCURVE",
"758 505 OFFCURVE",
"771 521 CURVE SMOOTH",
"776 527 OFFCURVE",
"794 546 OFFCURVE",
"795 551 CURVE",
"798 552 OFFCURVE",
"810 566 OFFCURVE",
"811 569 CURVE",
"817 570 OFFCURVE",
"821 577 OFFCURVE",
"827 583 CURVE",
"835 580 OFFCURVE",
"842 578 OFFCURVE",
"848 583 CURVE SMOOTH"
);
},
{
closed = 1;
nodes = (
"661 475 LINE",
"654 461 LINE",
"640 439 OFFCURVE",
"627 410 OFFCURVE",
"615 385 CURVE SMOOTH",
"609 371 OFFCURVE",
"605 357 OFFCURVE",
"599 343 CURVE SMOOTH",
"596 338 OFFCURVE",
"593 333 OFFCURVE",
"591 327 CURVE SMOOTH",
"581 304 OFFCURVE",
"571 277 OFFCURVE",
"563 252 CURVE",
"548 253 OFFCURVE",
"533 254 OFFCURVE",
"532 251 CURVE",
"531 250 LINE",
"439 250 LINE",
"441 252 LINE",
"470 284 LINE",
"475 291 LINE SMOOTH",
"479 297 OFFCURVE",
"488 300 OFFCURVE",
"493 304 CURVE",
"652 467 LINE SMOOTH",
"656 472 OFFCURVE",
"661 476 OFFCURVE",
"665 480 CURVE"
);
}
);
width = 731;
}
);
note = A;
unicode = 0041;
},
{
color = 3;
glyphname = AE;
lastChange = "2021-07-28 11:36:04 +0000";
layers = (
{
anchors = (
{
name = bottom;
position = "{591, 0}";
},
{
name = top;
position = "{920, 600}";
}
);
background = {
paths = (
{
closed = 1;
nodes = (
"1457 613 OFFCURVE",
"1453 603 OFFCURVE",
"1448 598 CURVE SMOOTH",
"1421 571 OFFCURVE",
"1361 556 OFFCURVE",
"1330 554 CURVE SMOOTH",
"1326 554 OFFCURVE",
"1321 557 OFFCURVE",
"1318 554 CURVE",
"1302 556 OFFCURVE",
"1287 562 OFFCURVE",
"1271 561 CURVE",
"1268 560 OFFCURVE",
"1264 560 OFFCURVE",
"1260 557 CURVE",
"1260 556 LINE",
"1257 557 OFFCURVE",
"1259 562 OFFCURVE",
"1251 563 CURVE SMOOTH",
"1243 564 OFFCURVE",
"1239 569 OFFCURVE",
"1230 568 CURVE SMOOTH",
"1229 568 OFFCURVE",
"1223 568 OFFCURVE",
"1222 567 CURVE",
"1221 568 LINE",
"1222 573 LINE",
"1216 574 OFFCURVE",
"1215 572 OFFCURVE",
"1210 573 CURVE",
"1203 571 LINE",
"1203 569 LINE",
"1202 570 LINE",
"1198 571 OFFCURVE",
"1197 577 OFFCURVE",
"1193 576 CURVE",
"1193 576 OFFCURVE",
"1192 576 OFFCURVE",
"1191 575 CURVE",
"1191 576 OFFCURVE",
"1190 575 OFFCURVE",
"1190 574 CURVE",
"1187 575 OFFCURVE",
"1185 579 OFFCURVE",
"1183 581 CURVE",
"1182 576 LINE",
"1181 576 OFFCURVE",
"1181 576 OFFCURVE",
"1181 575 CURVE SMOOTH",
"1180 580 LINE",
"1177 580 LINE SMOOTH",
"1174 580 OFFCURVE",
"1170 578 OFFCURVE",
"1169 584 CURVE",
"1164 580 LINE",
"1164 585 LINE",
"1161 585 LINE",
"1160 580 LINE",
"1154 581 OFFCURVE",
"1136 588 OFFCURVE",
"1126 585 CURVE",
"1109 586 LINE",
"1067 591 LINE",
"1065 598 LINE",
"1061 598 LINE",
"1061 595 OFFCURVE",
"1059 594 OFFCURVE",
"1058 594 CURVE SMOOTH",
"1053 594 OFFCURVE",
"1036 599 OFFCURVE",
"1032 602 CURVE",
"1030 600 LINE",
"1030 599 LINE",
"1019 601 OFFCURVE",
"1009 610 OFFCURVE",
"999 609 CURVE SMOOTH",
"998 609 OFFCURVE",
"995 607 OFFCURVE",
"995 608 CURVE SMOOTH",
"995 611 OFFCURVE",
"979 612 OFFCURVE",
"975 614 CURVE",
"974 614 OFFCURVE",
"972 611 OFFCURVE",
"972 612 CURVE SMOOTH",
"972 616 OFFCURVE",
"958 618 OFFCURVE",
"956 618 CURVE SMOOTH",
"934 617 OFFCURVE",
"908 624 OFFCURVE",
"887 629 CURVE",
"886 625 LINE",
"880 626 OFFCURVE",
"874 629 OFFCURVE",
"868 629 CURVE SMOOTH",
"867 629 OFFCURVE",
"865 628 OFFCURVE",
"863 627 CURVE",
"861 628 OFFCURVE",
"856 630 OFFCURVE",
"853 629 CURVE",
"851 629 OFFCURVE",
"850 629 OFFCURVE",
"848 627 CURVE",
"846 628 OFFCURVE",
"845 628 OFFCURVE",
"845 628 CURVE",
"846 630 OFFCURVE",
"822 631 OFFCURVE",
"804 631 CURVE",
"811 651 OFFCURVE",
"792 652 OFFCURVE",
"766 643 CURVE",
"761 642 OFFCURVE",
"755 637 OFFCURVE",
"748 631 CURVE",
"742 631 LINE SMOOTH",
"739 631 OFFCURVE",
"737 631 OFFCURVE",
"735 629 CURVE",
"731 631 OFFCURVE",
"726 633 OFFCURVE",
"722 633 CURVE SMOOTH",
"720 633 OFFCURVE",
"717 632 OFFCURVE",
"714 630 CURVE",
"707 631 OFFCURVE",
"696 636 OFFCURVE",
"687 633 CURVE",
"681 634 OFFCURVE",
"675 635 OFFCURVE",
"669 635 CURVE SMOOTH",
"664 635 OFFCURVE",
"660 634 OFFCURVE",
"654 633 CURVE",
"648 634 OFFCURVE",
"640 636 OFFCURVE",
"632 632 CURVE",
"631 631 LINE",
"609 634 OFFCURVE",
"461 615 OFFCURVE",
"443 599 CURVE",
"442 599 LINE SMOOTH",
"416 602 OFFCURVE",
"333 561 OFFCURVE",
"307 553 CURVE",
"305 551 OFFCURVE",
"265 531 OFFCURVE",
"261 529 CURVE SMOOTH",
"239 516 OFFCURVE",
"216 505 OFFCURVE",
"194 490 CURVE SMOOTH",
"121 438 OFFCURVE",
"38 356 OFFCURVE",
"5 283 CURVE SMOOTH",
"-1 270 OFFCURVE",
"-8 250 OFFCURVE",
"0 242 CURVE",
"12 235 LINE",
"18 234 OFFCURVE",
"29 156 OFFCURVE",
"29 177 CURVE SMOOTH",
"29 340 OFFCURVE",
"262 550 OFFCURVE",
"455 583 CURVE",
"462 593 OFFCURVE",
"529 592 OFFCURVE",
"546 604 CURVE",
"591 606 OFFCURVE",
"668 605 OFFCURVE",
"706 605 CURVE SMOOTH",
"723 605 LINE",
"694 571 LINE SMOOTH",
"681 557 OFFCURVE",
"671 543 OFFCURVE",
"659 529 CURVE SMOOTH",
"652 521 OFFCURVE",
"564 438 OFFCURVE",
"559 430 CURVE",
"554 429 OFFCURVE",
"509 380 OFFCURVE",
"501 375 CURVE",
"473 353 OFFCURVE",
"462 331 OFFCURVE",
"435 309 CURVE SMOOTH",
"421 296 OFFCURVE",
"422 289 OFFCURVE",
"409 277 CURVE",
"407 276 OFFCURVE",
"402 268 OFFCURVE",
"398 266 CURVE SMOOTH",
"389 261 OFFCURVE",
"381 255 OFFCURVE",
"372 249 CURVE",
"371 249 LINE SMOOTH",
"367 249 OFFCURVE",
"352 250 OFFCURVE",
"350 250 CURVE SMOOTH",
"348 250 OFFCURVE",
"315 245 OFFCURVE",
"312 245 CURVE SMOOTH",
"310 245 OFFCURVE",
"311 247 OFFCURVE",
"309 248 CURVE",
"292 220 LINE",
"290 213 OFFCURVE",
"289 206 OFFCURVE",
"289 200 CURVE",
"296 197 LINE",
"297 198 OFFCURVE",
"314 197 OFFCURVE",
"315 197 CURVE SMOOTH",
"318 197 OFFCURVE",
"324 204 OFFCURVE",
"326 204 CURVE SMOOTH",
"329 204 OFFCURVE",
"326 203 OFFCURVE",
"328 203 CURVE SMOOTH",
"330 203 LINE",
"302 179 OFFCURVE",
"299 164 OFFCURVE",
"267 138 CURVE SMOOTH",
"156 42 LINE SMOOTH",
"78 -25 OFFCURVE",
"94 -5 OFFCURVE",
"32 -48 CURVE",
"18 -55 OFFCURVE",
"-27 -89 OFFCURVE",
"-41 -95 CURVE SMOOTH",
"-87 -119 OFFCURVE",
"-123 -126 OFFCURVE",
"-170 -144 CURVE SMOOTH",
"-182 -149 OFFCURVE",
"-202 -149 OFFCURVE",
"-212 -156 CURVE",
"-221 -156 OFFCURVE",
"-229 -161 OFFCURVE",
"-237 -162 CURVE SMOOTH",
"-253 -166 OFFCURVE",
"-271 -168 OFFCURVE",
"-286 -173 CURVE",
"-286 -172 OFFCURVE",
"-287 -172 OFFCURVE",
"-288 -171 CURVE",
"-289 -174 OFFCURVE",
"-304 -172 OFFCURVE",
"-308 -174 CURVE",
"-310 -173 LINE",
"-326 -176 LINE",
"-331 -176 OFFCURVE",
"-336 -175 OFFCURVE",
"-340 -174 CURVE",
"-358 -173 OFFCURVE",
"-378 -175 OFFCURVE",
"-390 -166 CURVE SMOOTH",
"-396 -162 OFFCURVE",
"-398 -155 OFFCURVE",
"-402 -150 CURVE",
"-403 -146 LINE",
"-407 -148 LINE",
"-408 -153 OFFCURVE",
"-397 -164 OFFCURVE",
"-396 -169 CURVE",
"-386 -175 LINE SMOOTH",
"-379 -180 OFFCURVE",
"-371 -183 OFFCURVE",
"-362 -186 CURVE SMOOTH",
"-359 -187 OFFCURVE",
"-357 -189 OFFCURVE",
"-354 -188 CURVE SMOOTH",
"-353 -188 LINE",
"-347 -190 LINE SMOOTH",
"-341 -192 OFFCURVE",
"-315 -196 OFFCURVE",
"-309 -193 CURVE",
"-306 -193 LINE",
"-289 -195 LINE",
"-285 -194 OFFCURVE",
"-280 -195 OFFCURVE",
"-275 -194 CURVE SMOOTH",
"-243 -187 LINE",
"-237 -187 OFFCURVE",
"-213 -182 OFFCURVE",
"-209 -179 CURVE",
"-201 -180 OFFCURVE",
"-194 -176 OFFCURVE",
"-186 -174 CURVE SMOOTH",
"-177 -172 OFFCURVE",
"-168 -169 OFFCURVE",
"-159 -166 CURVE SMOOTH",
"-153 -164 OFFCURVE",
"-147 -162 OFFCURVE",
"-141 -161 CURVE",
"-122 -152 LINE",
"-117 -152 OFFCURVE",
"-100 -143 OFFCURVE",
"-94 -140 CURVE SMOOTH",
"-69 -128 OFFCURVE",
"-43 -115 OFFCURVE",
"-19 -100 CURVE SMOOTH",
"43 -61 OFFCURVE",
"-2 -95 OFFCURVE",
"81 -42 CURVE SMOOTH",
"105 -27 OFFCURVE",
"132 -3 OFFCURVE",
"162 18 CURVE SMOOTH",
"183 33 OFFCURVE",
"210 55 OFFCURVE",
"220 63 CURVE SMOOTH",
"227 69 OFFCURVE",
"235 75 OFFCURVE",
"242 82 CURVE SMOOTH",
"274 112 LINE",
"285 119 LINE",
"301 134 LINE",
"315 145 LINE SMOOTH",
"328 154 OFFCURVE",
"338 166 OFFCURVE",
"350 176 CURVE SMOOTH",
"374 196 LINE SMOOTH",
"384 204 OFFCURVE",
"389 213 OFFCURVE",
"399 222 CURVE",
"503 222 LINE SMOOTH",
"506 222 OFFCURVE",
"510 225 OFFCURVE",
"512 225 CURVE",
"513 226 LINE",
"515 226 OFFCURVE",
"516 224 OFFCURVE",
"518 224 CURVE SMOOTH",
"519 224 LINE SMOOTH",
"526 225 OFFCURVE",
"541 225 OFFCURVE",
"556 225 CURVE",
"558 213 OFFCURVE",
"552 211 OFFCURVE",
"548 197 CURVE SMOOTH",
"545 187 OFFCURVE",
"540 167 OFFCURVE",
"535 159 CURVE",
"536 152 LINE SMOOTH",
"536 144 OFFCURVE",
"526 113 OFFCURVE",
"528 104 CURVE",
"528 102 OFFCURVE",
"529 100 OFFCURVE",
"530 98 CURVE",
"531 100 OFFCURVE",
"531 103 OFFCURVE",
"531 105 CURVE",
"532 106 LINE",
"532 105 OFFCURVE",
"532 105 OFFCURVE",
"533 105 CURVE",
"533 99 OFFCURVE",
"526 72 OFFCURVE",
"523 67 CURVE",
"524 66 LINE",
"523 66 LINE",
"521 76 OFFCURVE",
"525 83 OFFCURVE",
"525 93 CURVE",
"524 93 LINE",
"524 89 OFFCURVE",
"521 75 OFFCURVE",
"520 70 CURVE SMOOTH",
"518 50 OFFCURVE",
"517 29 OFFCURVE",
"519 11 CURVE",
"516 10 OFFCURVE",
"513 10 OFFCURVE",
"512 10 CURVE SMOOTH",
"481 5 OFFCURVE",
"501 -20 OFFCURVE",
"542 -16 CURVE",
"625 3 OFFCURVE",
"648 21 OFFCURVE",
"740 30 CURVE SMOOTH",
"749 31 OFFCURVE",
"758 32 OFFCURVE",
"767 34 CURVE",
"819 34 OFFCURVE",
"927 41 OFFCURVE",
"977 39 CURVE SMOOTH",
"991 39 OFFCURVE",
"1003 27 OFFCURVE",
"1022 32 CURVE",
"1027 27 OFFCURVE",
"1037 16 OFFCURVE",
"1045 14 CURVE SMOOTH",
"1060 10 OFFCURVE",
"1075 14 OFFCURVE",
"1093 13 CURVE",
"1092 11 OFFCURVE",
"1092 10 OFFCURVE",
"1092 9 CURVE",
"1097 13 OFFCURVE",
"1103 0 OFFCURVE",
"1109 1 CURVE",
"1107 -2 LINE",
"1123 -7 LINE",
"1125 -10 OFFCURVE",
"1126 -14 OFFCURVE",
"1129 -17 CURVE SMOOTH",
"1138 -29 OFFCURVE",
"1154 -38 OFFCURVE",
"1146 -59 CURVE SMOOTH",
"1143 -68 OFFCURVE",
"1133 -79 OFFCURVE",
"1128 -88 CURVE",
"1121 -96 LINE",
"1128 -95 LINE",
"1135 -89 OFFCURVE",
"1148 -65 OFFCURVE",
"1154 -58 CURVE",
"1156 -53 OFFCURVE",
"1157 -48 OFFCURVE",
"1158 -43 CURVE SMOOTH",
"1161 -32 OFFCURVE",
"1161 -24 OFFCURVE",
"1160 -14 CURVE SMOOTH",
"1160 -11 OFFCURVE",
"1162 -7 OFFCURVE",
"1159 -5 CURVE",
"1158 -6 LINE",
"1158 1 LINE SMOOTH",
"1157 7 OFFCURVE",
"1148 29 OFFCURVE",
"1139 28 CURVE",
"1137 29 LINE",
"1131 43 LINE",
"1126 43 OFFCURVE",
"1124 48 OFFCURVE",
"1120 49 CURVE SMOOTH",
"1089 58 LINE",
"1085 61 OFFCURVE",
"1063 68 OFFCURVE",
"1056 67 CURVE",
"1052 72 OFFCURVE",
"1042 72 OFFCURVE",
"1035 73 CURVE SMOOTH",
"1025 75 OFFCURVE",
"1015 76 OFFCURVE",
"1005 77 CURVE SMOOTH",
"998 78 OFFCURVE",
"990 67 OFFCURVE",
"983 68 CURVE",
"960 79 LINE",
"957 82 OFFCURVE",
"931 78 OFFCURVE",
"923 78 CURVE SMOOTH",
"888 75 OFFCURVE",
"807 64 OFFCURVE",
"768 57 CURVE SMOOTH",
"723 49 LINE",
"599 30 LINE",
"573 24 LINE",
"577 81 OFFCURVE",
"597 160 OFFCURVE",
"619 229 CURVE",
"623 229 OFFCURVE",
"633 228 OFFCURVE",
"639 228 CURVE",
"642 233 LINE",
"648 234 OFFCURVE",
"657 236 OFFCURVE",
"659 236 CURVE SMOOTH",
"661 236 OFFCURVE",
"660 233 OFFCURVE",
"662 233 CURVE",
"664 236 LINE",
"670 236 OFFCURVE",
"678 239 OFFCURVE",
"681 239 CURVE SMOOTH",
"683 239 OFFCURVE",
"682 237 OFFCURVE",
"684 237 CURVE SMOOTH",
"690 237 OFFCURVE",
"678 247 OFFCURVE",
"672 247 CURVE SMOOTH",
"670 247 OFFCURVE",
"670 249 OFFCURVE",
"669 249 CURVE SMOOTH",
"662 250 OFFCURVE",
"651 251 OFFCURVE",
"642 251 CURVE SMOOTH",
"626 251 LINE",
"638 286 LINE",
"641 283 LINE",
"644 283 OFFCURVE",
"662 289 OFFCURVE",
"666 288 CURVE",
"667 289 OFFCURVE",
"692 288 OFFCURVE",
"693 288 CURVE SMOOTH",
"696 288 OFFCURVE",
"700 295 OFFCURVE",
"703 295 CURVE SMOOTH",
"707 295 OFFCURVE",
"703 293 OFFCURVE",
"707 294 CURVE SMOOTH",
"743 298 LINE",
"768 298 LINE SMOOTH",
"772 298 OFFCURVE",
"776 301 OFFCURVE",
"778 302 CURVE",
"787 304 OFFCURVE",
"810 307 OFFCURVE",
"813 307 CURVE SMOOTH",
"816 307 OFFCURVE",
"819 306 OFFCURVE",
"821 306 CURVE",
"824 308 OFFCURVE",
"829 309 OFFCURVE",
"829 309 CURVE",
"837 311 LINE",
"837 311 OFFCURVE",
"859 310 OFFCURVE",
"868 310 CURVE",
"868 312 OFFCURVE",
"868 314 OFFCURVE",
"870 314 CURVE",
"877 316 OFFCURVE",
"887 317 OFFCURVE",
"890 317 CURVE SMOOTH",
"893 317 OFFCURVE",
"895 315 OFFCURVE",
"897 315 CURVE",
"897 316 OFFCURVE",
"897 316 OFFCURVE",
"898 317 CURVE",
"905 317 OFFCURVE",
"915 320 OFFCURVE",
"918 320 CURVE SMOOTH",
"922 320 OFFCURVE",
"921 318 OFFCURVE",
"925 318 CURVE SMOOTH",
"928 318 OFFCURVE",
"950 322 OFFCURVE",
"962 325 CURVE",
"962 326 OFFCURVE",
"961 327 OFFCURVE",
"961 327 CURVE",
"945 325 LINE SMOOTH",
"944 325 OFFCURVE",
"943 327 OFFCURVE",
"943 328 CURVE",
"941 327 OFFCURVE",
"940 326 OFFCURVE",
"936 326 CURVE SMOOTH",
"933 326 OFFCURVE",
"904 327 OFFCURVE",
"900 327 CURVE SMOOTH",
"897 327 OFFCURVE",
"896 329 OFFCURVE",
"894 330 CURVE",
"883 330 OFFCURVE",
"867 331 OFFCURVE",
"855 331 CURVE SMOOTH",
"850 331 OFFCURVE",
"840 333 OFFCURVE",
"837 333 CURVE SMOOTH",
"834 333 OFFCURVE",
"820 330 OFFCURVE",
"817 330 CURVE SMOOTH",
"813 330 LINE SMOOTH",
"809 330 OFFCURVE",
"796 332 OFFCURVE",
"793 332 CURVE SMOOTH",
"789 332 OFFCURVE",
"777 328 OFFCURVE",
"773 328 CURVE SMOOTH",
"722 328 OFFCURVE",
"717 328 OFFCURVE",
"687 329 CURVE SMOOTH",
"685 329 OFFCURVE",
"667 327 OFFCURVE",
"654 326 CURVE",
"660 341 OFFCURVE",
"665 353 OFFCURVE",
"670 362 CURVE SMOOTH",
"673 368 OFFCURVE",
"706 434 OFFCURVE",
"711 440 CURVE SMOOTH",
"714 444 OFFCURVE",
"716 450 OFFCURVE",
"719 454 CURVE SMOOTH",
"731 472 OFFCURVE",
"758 505 OFFCURVE",
"771 521 CURVE SMOOTH",
"776 527 OFFCURVE",
"794 546 OFFCURVE",
"795 551 CURVE",
"798 552 OFFCURVE",
"810 566 OFFCURVE",
"811 569 CURVE",
"817 570 OFFCURVE",
"821 577 OFFCURVE",
"827 583 CURVE",
"835 580 OFFCURVE",
"842 578 OFFCURVE",
"848 583 CURVE SMOOTH",
"856 590 OFFCURVE",
"861 596 OFFCURVE",
"864 601 CURVE",
"866 600 OFFCURVE",
"868 600 OFFCURVE",
"871 600 CURVE",
"872 605 LINE",
"873 603 LINE",
"875 603 OFFCURVE",
"877 603 OFFCURVE",
"878 605 CURVE",
"879 599 LINE",
"885 598 OFFCURVE",
"892 597 OFFCURVE",
"898 597 CURVE SMOOTH",
"902 597 OFFCURVE",
"906 598 OFFCURVE",
"910 601 CURVE",
"910 602 LINE",
"911 602 LINE",
"910 596 LINE",
"916 596 LINE",
"918 599 LINE",
"923 595 LINE",
"925 595 OFFCURVE",
"926 593 OFFCURVE",
"928 593 CURVE",
"928 599 LINE",
"931 598 LINE",
"930 590 LINE",
"933 590 OFFCURVE",
"937 593 OFFCURVE",
"939 596 CURVE",
"944 595 OFFCURVE",
"949 584 OFFCURVE",
"956 585 CURVE SMOOTH",
"957 585 OFFCURVE",
"958 586 OFFCURVE",
"960 587 CURVE",
"968 582 OFFCURVE",
"976 583 OFFCURVE",
"985 581 CURVE",
"987 579 OFFCURVE",
"989 577 OFFCURVE",
"991 576 CURVE",
"993 582 LINE",
"1001 579 LINE",
"1001 578 LINE",
"998 578 LINE",
"998 574 LINE",
"1010 568 LINE",
"1011 572 OFFCURVE",
"1009 575 OFFCURVE",
"1007 576 CURVE",
"1008 577 LINE",
"1017 576 OFFCURVE",
"1024 561 OFFCURVE",
"1034 562 CURVE SMOOTH",
"1036 562 OFFCURVE",
"1037 563 OFFCURVE",
"1039 564 CURVE",
"1039 558 OFFCURVE",
"1099 546 OFFCURVE",
"1102 545 CURVE",
"1101 538 OFFCURVE",
"1143 534 OFFCURVE",
"1146 534 CURVE SMOOTH",
"1150 535 LINE",
"1153 534 OFFCURVE",
"1160 532 OFFCURVE",
"1162 529 CURVE",
"1163 529 LINE",
"1164 527 LINE",
"1198 524 OFFCURVE",
"1230 507 OFFCURVE",
"1264 509 CURVE SMOOTH",
"1266 509 OFFCURVE",
"1268 509 OFFCURVE",
"1269 510 CURVE",
"1271 510 LINE",
"1271 509 OFFCURVE",
"1273 508 OFFCURVE",
"1273 508 CURVE",
"1282 505 OFFCURVE",
"1292 508 OFFCURVE",
"1301 506 CURVE SMOOTH",
"1308 505 OFFCURVE",
"1315 504 OFFCURVE",
"1321 505 CURVE SMOOTH",
"1364 508 OFFCURVE",
"1451 548 OFFCURVE",
"1465 613 CURVE"
);
},
{
closed = 1;
nodes = (
"661 475 LINE",
"654 461 LINE",
"640 439 OFFCURVE",
"627 410 OFFCURVE",
"615 385 CURVE SMOOTH",
"609 371 OFFCURVE",
"605 357 OFFCURVE",
"599 343 CURVE SMOOTH",
"596 338 OFFCURVE",
"593 333 OFFCURVE",
"591 327 CURVE SMOOTH",
"581 304 OFFCURVE",
"571 277 OFFCURVE",
"563 252 CURVE",
"548 253 OFFCURVE",
"533 254 OFFCURVE",
"532 251 CURVE",
"531 250 LINE",
"439 250 LINE",
"441 252 LINE",
"470 284 LINE",
"475 291 LINE SMOOTH",
"480 296 OFFCURVE",
"488 300 OFFCURVE",
"493 304 CURVE",
"652 467 LINE SMOOTH",
"656 472 OFFCURVE",
"661 476 OFFCURVE",
"665 480 CURVE"
);
}
);
};
layerId = "E8487A59-2E36-4739-8DF2-414A9818920F";
paths = (
{
closed = 1;
nodes = (
"1292 574 OFFCURVE",
"1232 560 OFFCURVE",
"1201 558 CURVE",
"1197 557 OFFCURVE",
"1192 560 OFFCURVE",
"1189 557 CURVE",
"1173 560 OFFCURVE",
"1158 565 OFFCURVE",
"1142 564 CURVE SMOOTH",
"1138 564 OFFCURVE",
"1134 563 OFFCURVE",
"1131 561 CURVE",
"1131 560 LINE",
"1128 561 OFFCURVE",
"1130 565 OFFCURVE",
"1122 566 CURVE SMOOTH",
"1113 568 OFFCURVE",
"1110 571 OFFCURVE",
"1101 571 CURVE SMOOTH",
"1092 571 LINE",
"1081 577 LINE",
"1074 575 LINE",
"1073 573 LINE",
"1073 574 LINE",
"1069 575 OFFCURVE",
"1068 580 OFFCURVE",
"1064 580 CURVE SMOOTH",
"1063 580 OFFCURVE",
"1063 579 OFFCURVE",
"1062 579 CURVE",
"1062 579 OFFCURVE",
"1061 579 OFFCURVE",
"1061 578 CURVE",
"1058 579 OFFCURVE",
"1056 583 OFFCURVE",
"1053 584 CURVE",
"1053 579 LINE",
"1052 580 OFFCURVE",
"1052 579 OFFCURVE",
"1052 579 CURVE",
"1051 584 LINE",
"1048 584 LINE SMOOTH",
"1045 584 OFFCURVE",
"1041 582 OFFCURVE",
"1040 588 CURVE",
"1042 589 OFFCURVE",
"987 592 OFFCURVE",
"987 592 CURVE",
"962 590 OFFCURVE",
"913 603 OFFCURVE",
"912 602 CURVE",
"908 603 OFFCURVE",
"905 605 OFFCURVE",
"903 606 CURVE",
"900 603 LINE",
"890 605 OFFCURVE",
"880 614 OFFCURVE",
"870 612 CURVE SMOOTH",
"866 611 LINE",
"866 614 OFFCURVE",
"850 615 OFFCURVE",
"846 617 CURVE",
"845 617 OFFCURVE",
"843 615 OFFCURVE",
"843 615 CURVE",
"843 619 OFFCURVE",
"829 622 OFFCURVE",
"827 622 CURVE SMOOTH",
"821 622 LINE",
"818 628 OFFCURVE",
"812 631 OFFCURVE",
"804 631 CURVE",
"811 651 OFFCURVE",
"792 652 OFFCURVE",
"766 643 CURVE",
"761 642 OFFCURVE",
"755 637 OFFCURVE",
"748 631 CURVE",
"747 631 LINE SMOOTH",
"744 631 OFFCURVE",
"742 632 OFFCURVE",
"739 632 CURVE SMOOTH",
"738 632 OFFCURVE",
"736 632 OFFCURVE",
"734 630 CURVE",
"732 631 OFFCURVE",
"727 633 OFFCURVE",
"724 633 CURVE",
"724 633 OFFCURVE",
"723 633 OFFCURVE",
"723 633 CURVE",
"722 633 LINE SMOOTH",
"720 633 OFFCURVE",
"718 632 OFFCURVE",
"715 631 CURVE",
"711 632 OFFCURVE",
"705 633 OFFCURVE",
"701 633 CURVE SMOOTH",
"696 634 OFFCURVE",
"691 634 OFFCURVE",
"687 633 CURVE",
"681 634 OFFCURVE",
"675 635 OFFCURVE",
"669 635 CURVE SMOOTH",
"664 635 OFFCURVE",
"660 634 OFFCURVE",
"654 633 CURVE",
"648 634 OFFCURVE",
"640 636 OFFCURVE",
"632 632 CURVE",
"631 631 LINE",
"609 634 OFFCURVE",
"461 615 OFFCURVE",
"443 599 CURVE",
"442 599 LINE SMOOTH",
"416 599 OFFCURVE",
"333 561 OFFCURVE",
"307 553 CURVE",
"305 551 OFFCURVE",
"265 531 OFFCURVE",
"261 529 CURVE SMOOTH",
"239 516 OFFCURVE",
"216 505 OFFCURVE",
"194 490 CURVE SMOOTH",
"121 438 OFFCURVE",
"38 356 OFFCURVE",
"5 283 CURVE SMOOTH",
"-1 270 OFFCURVE",
"-8 250 OFFCURVE",
"0 242 CURVE",
"12 235 LINE",
"18 234 OFFCURVE",
"29 156 OFFCURVE",
"29 177 CURVE SMOOTH",
"29 340 OFFCURVE",
"262 550 OFFCURVE",
"455 583 CURVE",
"462 593 OFFCURVE",
"529 592 OFFCURVE",
"546 604 CURVE",
"572 605 OFFCURVE",
"610 605 OFFCURVE",
"644 605 CURVE SMOOTH",
"645 605 LINE",
"647 605 LINE",
"706 605 LINE",
"707 605 LINE SMOOTH",
"711 605 OFFCURVE",
"716 604 OFFCURVE",
"720 604 CURVE SMOOTH",
"722 604 LINE",
"694 571 LINE SMOOTH",
"682 556 OFFCURVE",
"671 543 OFFCURVE",
"659 529 CURVE SMOOTH",
"652 521 OFFCURVE",
"564 438 OFFCURVE",
"559 430 CURVE",
"554 429 OFFCURVE",
"509 380 OFFCURVE",
"501 375 CURVE",
"473 353 OFFCURVE",
"462 331 OFFCURVE",
"435 309 CURVE SMOOTH",
"421 296 OFFCURVE",
"422 289 OFFCURVE",
"409 277 CURVE",
"407 276 OFFCURVE",
"402 268 OFFCURVE",
"398 266 CURVE SMOOTH",
"389 261 OFFCURVE",
"381 255 OFFCURVE",
"372 249 CURVE",
"371 249 LINE",
"350 250 LINE SMOOTH",
"348 250 OFFCURVE",
"315 245 OFFCURVE",
"312 245 CURVE SMOOTH",
"310 245 OFFCURVE",
"311 247 OFFCURVE",
"309 248 CURVE",
"292 220 LINE",
"290 213 OFFCURVE",
"289 206 OFFCURVE",
"289 200 CURVE",
"296 197 LINE",
"297 198 OFFCURVE",
"314 197 OFFCURVE",
"315 197 CURVE SMOOTH",
"318 197 OFFCURVE",
"324 204 OFFCURVE",
"326 204 CURVE SMOOTH",
"329 204 OFFCURVE",
"326 203 OFFCURVE",
"328 203 CURVE SMOOTH",
"330 203 LINE",
"302 179 OFFCURVE",
"298 165 OFFCURVE",
"267 138 CURVE SMOOTH",
"156 42 LINE SMOOTH",
"78 -25 OFFCURVE",
"94 -5 OFFCURVE",
"32 -48 CURVE",
"18 -55 OFFCURVE",
"-27 -89 OFFCURVE",
"-41 -95 CURVE SMOOTH",
"-87 -119 OFFCURVE",
"-123 -126 OFFCURVE",
"-170 -144 CURVE SMOOTH",
"-182 -149 OFFCURVE",
"-202 -149 OFFCURVE",
"-212 -156 CURVE",
"-221 -156 OFFCURVE",
"-229 -161 OFFCURVE",
"-237 -162 CURVE SMOOTH",
"-253 -166 OFFCURVE",
"-271 -168 OFFCURVE",
"-286 -173 CURVE",
"-286 -172 OFFCURVE",
"-287 -172 OFFCURVE",
"-288 -171 CURVE",
"-289 -174 OFFCURVE",
"-304 -172 OFFCURVE",
"-308 -174 CURVE",
"-310 -173 LINE",
"-326 -176 LINE",
"-331 -176 OFFCURVE",
"-336 -175 OFFCURVE",
"-340 -174 CURVE",
"-358 -173 OFFCURVE",
"-378 -175 OFFCURVE",
"-390 -166 CURVE SMOOTH",
"-396 -162 OFFCURVE",
"-398 -155 OFFCURVE",
"-402 -150 CURVE",
"-403 -146 LINE",
"-407 -148 LINE",
"-408 -153 OFFCURVE",
"-397 -164 OFFCURVE",
"-396 -169 CURVE",
"-386 -175 LINE SMOOTH",
"-379 -179 OFFCURVE",
"-371 -183 OFFCURVE",
"-362 -186 CURVE SMOOTH",
"-359 -187 OFFCURVE",
"-357 -188 OFFCURVE",
"-354 -188 CURVE SMOOTH",
"-353 -188 LINE",
"-347 -190 LINE SMOOTH",
"-341 -192 OFFCURVE",
"-315 -196 OFFCURVE",
"-309 -193 CURVE",
"-306 -193 LINE",
"-289 -195 LINE",
"-285 -194 OFFCURVE",
"-280 -195 OFFCURVE",
"-275 -194 CURVE SMOOTH",
"-243 -187 LINE",
"-237 -187 OFFCURVE",
"-213 -182 OFFCURVE",
"-209 -179 CURVE",
"-201 -180 OFFCURVE",
"-194 -176 OFFCURVE",
"-186 -174 CURVE SMOOTH",
"-177 -172 OFFCURVE",
"-168 -169 OFFCURVE",
"-159 -166 CURVE SMOOTH",
"-153 -164 OFFCURVE",
"-147 -162 OFFCURVE",
"-141 -161 CURVE",
"-122 -152 LINE",
"-117 -152 OFFCURVE",
"-100 -143 OFFCURVE",
"-94 -140 CURVE SMOOTH",
"-69 -128 OFFCURVE",
"-43 -115 OFFCURVE",
"-19 -100 CURVE SMOOTH",
"43 -61 OFFCURVE",
"-2 -95 OFFCURVE",
"81 -42 CURVE SMOOTH",
"105 -27 OFFCURVE",
"132 -3 OFFCURVE",
"162 18 CURVE SMOOTH",
"183 33 OFFCURVE",
"210 55 OFFCURVE",
"220 63 CURVE SMOOTH",
"227 69 OFFCURVE",
"235 75 OFFCURVE",
"242 82 CURVE SMOOTH",
"274 112 LINE",
"285 119 LINE",
"301 134 LINE",
"315 145 LINE SMOOTH",
"327 155 OFFCURVE",
"338 166 OFFCURVE",
"350 176 CURVE SMOOTH",
"374 196 LINE SMOOTH",
"384 204 OFFCURVE",
"389 213 OFFCURVE",
"399 222 CURVE",
"503 222 LINE SMOOTH",
"506 222 OFFCURVE",
"510 225 OFFCURVE",
"512 225 CURVE",
"513 226 LINE",
"515 226 OFFCURVE",
"516 224 OFFCURVE",
"518 224 CURVE SMOOTH",
"519 224 LINE SMOOTH",
"526 224 OFFCURVE",
"541 225 OFFCURVE",
"556 225 CURVE",
"558 213 OFFCURVE",
"552 211 OFFCURVE",
"548 197 CURVE SMOOTH",
"545 187 OFFCURVE",
"540 167 OFFCURVE",
"535 159 CURVE",
"536 152 LINE SMOOTH",
"537 144 OFFCURVE",
"526 113 OFFCURVE",
"528 104 CURVE",
"528 102 OFFCURVE",
"529 100 OFFCURVE",
"530 98 CURVE",
"531 100 OFFCURVE",
"531 103 OFFCURVE",
"531 105 CURVE",
"532 106 LINE",
"532 105 OFFCURVE",
"532 105 OFFCURVE",
"533 105 CURVE",
"533 99 OFFCURVE",
"531 84 OFFCURVE",
"528 79 CURVE",
"516 36 OFFCURVE",
"552 30 OFFCURVE",
"573 24 CURVE",
"577 81 OFFCURVE",
"597 160 OFFCURVE",
"619 229 CURVE",
"639 228 LINE",
"642 233 LINE",
"648 234 OFFCURVE",
"657 236 OFFCURVE",
"659 236 CURVE SMOOTH",
"661 236 OFFCURVE",
"660 233 OFFCURVE",
"662 233 CURVE",
"664 236 LINE",
"670 236 OFFCURVE",
"678 239 OFFCURVE",
"681 239 CURVE SMOOTH",
"683 239 OFFCURVE",
"682 237 OFFCURVE",
"684 237 CURVE SMOOTH",
"690 237 OFFCURVE",
"678 247 OFFCURVE",
"672 247 CURVE SMOOTH",
"670 247 OFFCURVE",
"670 249 OFFCURVE",
"669 249 CURVE SMOOTH",
"662 250 OFFCURVE",
"651 251 OFFCURVE",
"642 251 CURVE SMOOTH",
"626 251 LINE",
"635 275 LINE",
"687 285 LINE",
"733 285 LINE SMOOTH",
"740 285 OFFCURVE",
"747 289 OFFCURVE",
"752 290 CURVE SMOOTH",
"768 293 OFFCURVE",
"810 297 OFFCURVE",
"816 297 CURVE SMOOTH",
"822 297 OFFCURVE",
"827 295 OFFCURVE",
"832 295 CURVE",
"846 299 LINE",
"862 302 LINE",
"862 302 OFFCURVE",
"900 301 OFFCURVE",
"918 301 CURVE",
"918 303 OFFCURVE",
"918 306 OFFCURVE",
"922 306 CURVE SMOOTH",
"935 308 OFFCURVE",
"954 310 OFFCURVE",
"957 310 CURVE SMOOTH",
"963 310 OFFCURVE",
"968 307 OFFCURVE",
"973 307 CURVE",
"973 308 OFFCURVE",
"973 309 OFFCURVE",
"975 310 CURVE",
"987 310 OFFCURVE",
"1005 315 OFFCURVE",
"1010 315 CURVE SMOOTH",
"1017 315 OFFCURVE",
"1017 311 OFFCURVE",
"1023 311 CURVE SMOOTH",
"1028 311 OFFCURVE",
"1069 317 OFFCURVE",
"1092 321 CURVE",
"1092 322 OFFCURVE",
"1090 324 OFFCURVE",
"1090 324 CURVE",
"1079 323 OFFCURVE",
"1068 323 OFFCURVE",
"1061 320 CURVE",
"1058 322 OFFCURVE",
"1056 324 OFFCURVE",
"1056 325 CURVE",
"1054 324 OFFCURVE",
"1050 323 OFFCURVE",
"1044 323 CURVE SMOOTH",
"978 324 LINE SMOOTH",
"971 324 OFFCURVE",
"970 327 OFFCURVE",
"967 327 CURVE SMOOTH",
"946 328 OFFCURVE",
"915 329 OFFCURVE",
"894 329 CURVE SMOOTH",
"885 329 OFFCURVE",
"866 331 OFFCURVE",
"862 331 CURVE SMOOTH",
"856 331 OFFCURVE",
"828 328 OFFCURVE",
"823 328 CURVE SMOOTH",
"816 328 LINE SMOOTH",
"810 328 OFFCURVE",
"786 330 OFFCURVE",
"779 330 CURVE SMOOTH",
"773 330 OFFCURVE",
"750 325 OFFCURVE",
"744 325 CURVE SMOOTH",
"683 326 LINE SMOOTH",
"672 326 OFFCURVE",
"663 326 OFFCURVE",
"653 325 CURVE",
"654 326 LINE",
"660 341 OFFCURVE",
"665 353 OFFCURVE",
"670 362 CURVE SMOOTH",
"673 368 OFFCURVE",
"706 434 OFFCURVE",
"711 440 CURVE SMOOTH",
"714 444 OFFCURVE",
"716 450 OFFCURVE",
"719 454 CURVE SMOOTH",
"731 472 OFFCURVE",
"758 505 OFFCURVE",
"771 521 CURVE SMOOTH",
"776 527 OFFCURVE",
"794 546 OFFCURVE",
"795 551 CURVE",
"798 552 OFFCURVE",
"810 566 OFFCURVE",
"811 569 CURVE",
"815 576 OFFCURVE",
"819 584 OFFCURVE",
"821 590 CURVE",
"823 589 OFFCURVE",
"825 588 OFFCURVE",
"827 588 CURVE SMOOTH",
"828 588 OFFCURVE",
"829 589 OFFCURVE",
"830 590 CURVE",
"839 586 OFFCURVE",
"847 586 OFFCURVE",
"856 585 CURVE",
"858 583 OFFCURVE",
"860 581 OFFCURVE",
"862 580 CURVE",
"864 586 LINE",
"872 582 LINE",
"871 581 LINE",
"869 581 LINE",
"869 577 LINE",
"870 577 LINE",
"889 574 LINE",
"921 565 OFFCURVE",
"917 579 OFFCURVE",
"946 555 CURVE",
"950 558 OFFCURVE",
"964 547 OFFCURVE",
"968 549 CURVE",
"973 548 LINE",
"972 542 OFFCURVE",
"1014 538 OFFCURVE",
"1017 538 CURVE SMOOTH",
"1021 538 LINE SMOOTH",
"1024 538 OFFCURVE",
"1031 536 OFFCURVE",
"1033 532 CURVE",
"1034 532 LINE",
"1035 531 LINE",
"1069 528 OFFCURVE",
"1101 510 OFFCURVE",
"1135 513 CURVE SMOOTH",
"1137 513 OFFCURVE",
"1139 513 OFFCURVE",
"1140 514 CURVE",
"1142 514 LINE",
"1142 512 OFFCURVE",
"1144 512 OFFCURVE",
"1144 512 CURVE",
"1153 509 OFFCURVE",
"1163 511 OFFCURVE",
"1172 510 CURVE",
"1179 508 OFFCURVE",
"1186 508 OFFCURVE",
"1192 508 CURVE SMOOTH",
"1235 511 OFFCURVE",
"1322 551 OFFCURVE",
"1335 616 CURVE",
"1328 616 OFFCURVE",
"1324 606 OFFCURVE",
"1319 601 CURVE SMOOTH"
);
},
{
closed = 1;
nodes = (
"987 592 OFFCURVE",
"987 592 OFFCURVE",
"987 592 CURVE"
);
},
{
closed = 1;
nodes = (
"640 439 OFFCURVE",
"627 410 OFFCURVE",
"615 385 CURVE SMOOTH",
"609 371 OFFCURVE",
"605 357 OFFCURVE",
"599 343 CURVE SMOOTH",
"596 338 OFFCURVE",
"593 333 OFFCURVE",
"591 327 CURVE SMOOTH",
"581 304 OFFCURVE",
"571 277 OFFCURVE",
"563 252 CURVE",
"548 253 OFFCURVE",
"533 254 OFFCURVE",
"532 251 CURVE",
"531 250 LINE",
"439 250 LINE",
"441 252 LINE",
"470 284 LINE",
"475 291 LINE SMOOTH",
"479 297 OFFCURVE",
"488 300 OFFCURVE",
"493 304 CURVE",
"652 467 LINE SMOOTH",
"656 472 OFFCURVE",
"661 476 OFFCURVE",
"665 480 CURVE",
"661 475 LINE",
"654 461 LINE"
);
},
{
closed = 1;
nodes = (
"1137 -8 LINE SMOOTH",
"1137 -2 OFFCURVE",
"1127 20 OFFCURVE",
"1118 18 CURVE",
"1116 20 LINE",
"1109 33 LINE",
"1105 34 OFFCURVE",
"1103 38 OFFCURVE",
"1099 40 CURVE",
"1067 48 LINE",
"1064 52 OFFCURVE",
"1042 58 OFFCURVE",
"1035 58 CURVE",
"1031 63 OFFCURVE",
"1021 62 OFFCURVE",
"1014 64 CURVE SMOOTH",
"1004 66 OFFCURVE",
"994 67 OFFCURVE",
"984 68 CURVE SMOOTH",
"977 68 OFFCURVE",
"969 57 OFFCURVE",
"962 58 CURVE",
"939 70 LINE",
"936 73 OFFCURVE",
"910 69 OFFCURVE",
"902 68 CURVE SMOOTH",
"867 66 OFFCURVE",
"786 55 OFFCURVE",
"747 47 CURVE SMOOTH",
"732 44 OFFCURVE",
"717 43 OFFCURVE",
"702 40 CURVE SMOOTH",
"631 28 LINE",
"632 30 OFFCURVE",
"632 33 OFFCURVE",
"631 37 CURVE",
"605 30 LINE",
"608 27 LINE",
"609 27 OFFCURVE",
"610 26 OFFCURVE",
"611 25 CURVE",
"578 20 LINE SMOOTH",
"561 17 OFFCURVE",
"499 2 OFFCURVE",
"491 0 CURVE SMOOTH",
"460 -5 OFFCURVE",
"480 -30 OFFCURVE",
"521 -26 CURVE",
"604 -7 OFFCURVE",
"628 7 OFFCURVE",
"719 20 CURVE SMOOTH",
"746 24 LINE",
"798 25 OFFCURVE",
"906 32 OFFCURVE",
"956 30 CURVE SMOOTH",
"970 29 OFFCURVE",
"982 17 OFFCURVE",
"1001 23 CURVE",
"1006 17 OFFCURVE",
"1016 6 OFFCURVE",
"1024 4 CURVE SMOOTH",
"1039 0 OFFCURVE",
"1054 4 OFFCURVE",
"1072 3 CURVE",
"1071 2 OFFCURVE",
"1071 0 OFFCURVE",
"1071 -1 CURVE",
"1076 3 OFFCURVE",
"1081 -10 OFFCURVE",
"1088 -8 CURVE",
"1086 -12 LINE",
"1102 -16 LINE",
"1104 -20 OFFCURVE",
"1105 -24 OFFCURVE",
"1108 -27 CURVE",
"1116 -39 OFFCURVE",
"1133 -48 OFFCURVE",
"1125 -69 CURVE SMOOTH",
"1122 -78 OFFCURVE",
"1112 -88 OFFCURVE",
"1107 -98 CURVE",
"1100 -105 LINE",
"1107 -104 LINE",
"1114 -98 OFFCURVE",
"1127 -75 OFFCURVE",
"1133 -67 CURVE",
"1137 -53 LINE SMOOTH",
"1140 -41 OFFCURVE",
"1140 -33 OFFCURVE",
"1139 -24 CURVE SMOOTH",
"1139 -21 OFFCURVE",
"1140 -16 OFFCURVE",
"1138 -14 CURVE",
"1137 -15 LINE"
);
}
);
width = 1181;
}
);
note = AE;
unicode = 00C6;
},
{
color = 3;
glyphname = B;
lastChange = "2021-07-28 11:24:51 +0000";
layers = (
{
layerId = "E8487A59-2E36-4739-8DF2-414A9818920F";
paths = (
{
closed = 1;
nodes = (
"1114 593 LINE",
"1113 599 OFFCURVE",
"1093 615 OFFCURVE",
"1088 621 CURVE",
"1073 630 LINE SMOOTH",
"1060 636 OFFCURVE",
"1049 640 OFFCURVE",
"1036 644 CURVE SMOOTH",
"1032 645 OFFCURVE",
"1028 648 OFFCURVE",
"1023 648 CURVE",
"1023 647 LINE",
"1013 650 LINE SMOOTH",
"1005 652 OFFCURVE",
"967 658 OFFCURVE",
"961 654 CURVE",
"958 654 LINE SMOOTH",
"932 657 OFFCURVE",
"934 665 OFFCURVE",
"910 649 CURVE",
"900 650 OFFCURVE",
"892 645 OFFCURVE",
"883 642 CURVE SMOOTH",
"872 639 OFFCURVE",
"862 635 OFFCURVE",
"851 631 CURVE SMOOTH",
"844 628 OFFCURVE",
"837 626 OFFCURVE",
"830 624 CURVE",
"809 612 LINE",
"802 612 OFFCURVE",
"785 599 OFFCURVE",
"779 595 CURVE SMOOTH",
"770 590 LINE",
"752 604 LINE",
"700 621 LINE",
"692 622 OFFCURVE",
"686 626 OFFCURVE",
"678 626 CURVE SMOOTH",
"664 626 OFFCURVE",
"662 631 OFFCURVE",
"655 631 CURVE SMOOTH",
"653 631 OFFCURVE",
"650 630 OFFCURVE",
"648 628 CURVE",
"640 629 OFFCURVE",
"628 634 OFFCURVE",
"619 631 CURVE",
"613 632 OFFCURVE",
"607 633 OFFCURVE",
"601 633 CURVE SMOOTH",
"597 633 OFFCURVE",
"592 632 OFFCURVE",
"587 631 CURVE",
"580 632 OFFCURVE",
"559 638 OFFCURVE",
"552 634 CURVE",
"503 630 LINE",
"480 633 OFFCURVE",
"362 608 OFFCURVE",
"349 592 CURVE",
"347 591 LINE",
"321 595 OFFCURVE",
"255 541 OFFCURVE",
"232 534 CURVE",
"230 532 OFFCURVE",
"195 512 OFFCURVE",
"192 510 CURVE SMOOTH",
"174 497 OFFCURVE",
"153 485 OFFCURVE",
"136 470 CURVE SMOOTH",
"77 419 OFFCURVE",
"16 337 OFFCURVE",
"3 264 CURVE SMOOTH",
"1 251 OFFCURVE",
"-1 231 OFFCURVE",
"10 223 CURVE",
"14 225 LINE",
"21 225 OFFCURVE",
"19 214 OFFCURVE",
"25 211 CURVE",
"26 211 OFFCURVE",
"27 212 OFFCURVE",
"28 213 CURVE",
"29 222 OFFCURVE",
"24 243 OFFCURVE",
"27 261 CURVE SMOOTH",
"54 416 OFFCURVE",
"226 538 OFFCURVE",
"372 563 CURVE",
"376 573 OFFCURVE",
"443 572 OFFCURVE",
"456 585 CURVE",
"463 584 OFFCURVE",
"469 585 OFFCURVE",
"476 585 CURVE",
"478 590 OFFCURVE",
"513 591 OFFCURVE",
"519 591 CURVE SMOOTH",
"522 591 LINE",
"524 595 LINE",
"529 594 OFFCURVE",
"534 593 OFFCURVE",
"538 593 CURVE SMOOTH",
"542 593 OFFCURVE",
"545 593 OFFCURVE",
"548 596 CURVE",
"555 594 OFFCURVE",
"562 592 OFFCURVE",
"569 592 CURVE SMOOTH",
"585 592 OFFCURVE",
"603 592 OFFCURVE",
"618 590 CURVE SMOOTH",
"663 584 OFFCURVE",
"683 575 OFFCURVE",
"696 562 CURVE",
"693 560 LINE SMOOTH",
"684 552 OFFCURVE",
"656 536 OFFCURVE",
"646 528 CURVE SMOOTH",
"635 518 OFFCURVE",
"626 507 OFFCURVE",
"615 498 CURVE SMOOTH",
"609 493 OFFCURVE",
"596 486 OFFCURVE",
"593 479 CURVE",
"589 479 OFFCURVE",
"558 443 OFFCURVE",
"552 439 CURVE SMOOTH",
"531 423 OFFCURVE",
"522 404 OFFCURVE",
"502 385 CURVE SMOOTH",
"449 334 OFFCURVE",
"403 271 OFFCURVE",
"356 214 CURVE SMOOTH",
"340 195 OFFCURVE",
"334 177 OFFCURVE",
"318 157 CURVE SMOOTH",
"310 147 OFFCURVE",
"293 124 OFFCURVE",
"282 116 CURVE",
"283 112 OFFCURVE",
"272 101 OFFCURVE",
"271 96 CURVE",
"269 96 OFFCURVE",
"236 57 OFFCURVE",
"233 52 CURVE SMOOTH",
"229 43 LINE",
"229 43 OFFCURVE",
"198 15 OFFCURVE",
"204 10 CURVE",
"192 -5 OFFCURVE",
"172 -12 OFFCURVE",
"169 -25 CURVE",
"158 -32 OFFCURVE",
"136 -56 OFFCURVE",
"128 -64 CURVE SMOOTH",
"113 -79 OFFCURVE",
"110 -80 OFFCURVE",
"98 -96 CURVE",
"97 -95 OFFCURVE",
"94 -97 OFFCURVE",
"93 -97 CURVE",
"96 -100 OFFCURVE",
"74 -110 OFFCURVE",
"71 -115 CURVE",
"68 -115 LINE",
"52 -131 LINE",
"46 -134 OFFCURVE",
"39 -137 OFFCURVE",
"33 -141 CURVE SMOOTH",
"11 -154 OFFCURVE",
"-12 -172 OFFCURVE",
"-37 -174 CURVE SMOOTH",
"-48 -175 OFFCURVE",
"-57 -171 OFFCURVE",
"-68 -170 CURVE",
"-74 -168 LINE",
"-76 -173 LINE",
"-73 -177 OFFCURVE",
"-47 -178 OFFCURVE",
"-40 -180 CURVE",
"-22 -178 LINE SMOOTH",
"-7 -175 OFFCURVE",
"5 -172 OFFCURVE",
"19 -167 CURVE SMOOTH",
"23 -165 OFFCURVE",
"28 -165 OFFCURVE",
"32 -162 CURVE",
"42 -158 LINE SMOOTH",
"51 -155 OFFCURVE",
"88 -137 OFFCURVE",
"91 -130 CURVE",
"95 -128 LINE",
"118 -116 LINE",
"122 -112 OFFCURVE",
"129 -108 OFFCURVE",
"134 -104 CURVE",
"175 -83 LINE SMOOTH",
"182 -79 OFFCURVE",
"205 -56 OFFCURVE",
"208 -50 CURVE",
"218 -44 OFFCURVE",
"233 -36 OFFCURVE",
"240 -29 CURVE SMOOTH",
"269 3 LINE",
"270 6 OFFCURVE",
"336 81 OFFCURVE",
"338 84 CURVE",
"344 84 OFFCURVE",
"389 148 OFFCURVE",
"396 158 CURVE SMOOTH",
"401 164 OFFCURVE",
"405 170 OFFCURVE",
"409 176 CURVE SMOOTH",
"415 187 LINE",
"422 194 LINE",
"431 208 LINE",
"441 218 LINE",
"462 246 LINE",
"478 264 LINE SMOOTH",
"487 275 OFFCURVE",
"495 286 OFFCURVE",
"503 297 CURVE",
"516 308 LINE",
"523 319 LINE",
"538 335 LINE",
"541 342 LINE",
"544 346 OFFCURVE",
"551 348 OFFCURVE",
"555 351 CURVE",
"559 358 LINE",
"571 368 OFFCURVE",
"580 379 OFFCURVE",
"587 392 CURVE",
"587 393 OFFCURVE",
"590 391 OFFCURVE",
"591 390 CURVE",
"592 390 LINE",
"592 392 LINE",
"595 398 OFFCURVE",
"603 402 OFFCURVE",
"608 408 CURVE SMOOTH",
"617 418 OFFCURVE",
"627 427 OFFCURVE",
"637 437 CURVE",
"643 448 LINE",
"658 461 LINE",
"664 460 LINE",
"666 463 LINE",
"675 473 LINE",
"678 473 OFFCURVE",
"680 473 OFFCURVE",
"682 474 CURVE",
"698 490 LINE",
"712 499 OFFCURVE",
"708 511 OFFCURVE",
"721 521 CURVE SMOOTH",
"748 540 LINE",
"762 531 OFFCURVE",
"763 521 OFFCURVE",
"773 511 CURVE SMOOTH",
"775 509 OFFCURVE",
"779 509 OFFCURVE",
"781 507 CURVE SMOOTH",
"783 505 OFFCURVE",
"788 503 OFFCURVE",
"791 499 CURVE SMOOTH",
"793 496 OFFCURVE",
"792 490 OFFCURVE",
"794 488 CURVE",
"797 483 OFFCURVE",
"802 469 OFFCURVE",
"805 464 CURVE SMOOTH",
"806 462 OFFCURVE",
"802 456 OFFCURVE",
"803 454 CURVE SMOOTH",
"804 451 OFFCURVE",
"807 449 OFFCURVE",
"808 446 CURVE SMOOTH",
"819 404 OFFCURVE",
"804 357 OFFCURVE",
"761 310 CURVE",
"733 291 OFFCURVE",
"710 278 OFFCURVE",
"690 268 CURVE",
"650 272 OFFCURVE",
"611 267 OFFCURVE",
"590 253 CURVE",
"530 195 LINE",
"533 192 LINE",
"580 228 OFFCURVE",
"713 227 OFFCURVE",
"748 184 CURVE SMOOTH",
"777 150 OFFCURVE",
"761 106 OFFCURVE",
"733 66 CURVE SMOOTH",
"725 54 OFFCURVE",
"714 42 OFFCURVE",
"704 31 CURVE",
"701 31 OFFCURVE",
"698 25 OFFCURVE",
"696 24 CURVE SMOOTH",
"688 21 OFFCURVE",
"684 18 OFFCURVE",
"678 14 CURVE SMOOTH",
"672 10 OFFCURVE",
"670 3 OFFCURVE",
"666 0 CURVE SMOOTH",
"657 -6 OFFCURVE",
"647 -7 OFFCURVE",
"645 -8 CURVE",
"638 -14 LINE",
"593 -39 OFFCURVE",
"545 -57 OFFCURVE",
"498 -73 CURVE",
"446 -83 OFFCURVE",
"388 -90 OFFCURVE",
"398 -41 CURVE SMOOTH",
"404 -10 OFFCURVE",
"462 40 OFFCURVE",
"479 53 CURVE SMOOTH",
"500 69 OFFCURVE",
"568 115 OFFCURVE",
"678 149 CURVE",
"704 147 OFFCURVE",
"704 166 OFFCURVE",
"677 162 CURVE SMOOTH",
"580 148 OFFCURVE",
"489 79 OFFCURVE",
"461 75 CURVE",
"461 74 LINE",
"460 73 OFFCURVE",
"458 69 OFFCURVE",
"457 69 CURVE",
"456 68 OFFCURVE",
"455 68 OFFCURVE",
"454 68 CURVE",
"448 66 OFFCURVE",
"429 52 OFFCURVE",
"423 47 CURVE",
"423 45 LINE",
"414 46 OFFCURVE",
"414 35 OFFCURVE",
"407 24 CURVE",
"396 18 OFFCURVE",
"387 8 OFFCURVE",
"377 1 CURVE SMOOTH",
"368 -5 OFFCURVE",
"357 -18 OFFCURVE",
"355 -34 CURVE SMOOTH",
"351 -53 OFFCURVE",
"346 -63 OFFCURVE",
"369 -89 CURVE SMOOTH",
"372 -92 OFFCURVE",
"375 -94 OFFCURVE",
"378 -96 CURVE",
"378 -102 OFFCURVE",
"379 -107 OFFCURVE",
"381 -109 CURVE SMOOTH",
"397 -124 OFFCURVE",
"445 -123 OFFCURVE",
"486 -110 CURVE",
"529 -106 OFFCURVE",
"558 -93 OFFCURVE",
"578 -81 CURVE SMOOTH",
"590 -74 OFFCURVE",
"596 -74 OFFCURVE",
"608 -65 CURVE SMOOTH",
"672 -17 LINE SMOOTH",
"677 -14 OFFCURVE",
"682 -8 OFFCURVE",
"687 -5 CURVE SMOOTH",
"696 2 OFFCURVE",
"706 22 OFFCURVE",
"717 28 CURVE",
"726 35 OFFCURVE",
"727 40 OFFCURVE",
"735 48 CURVE SMOOTH",
"747 59 OFFCURVE",
"760 73 OFFCURVE",
"772 89 CURVE SMOOTH",
"775 93 OFFCURVE",
"775 97 OFFCURVE",
"778 101 CURVE SMOOTH",
"779 103 OFFCURVE",
"782 102 OFFCURVE",
"784 104 CURVE",
"786 105 OFFCURVE",
"787 110 OFFCURVE",
"788 111 CURVE",
"812 150 OFFCURVE",
"825 193 OFFCURVE",
"798 227 CURVE SMOOTH",
"782 246 OFFCURVE",
"750 259 OFFCURVE",
"714 265 CURVE",
"723 271 OFFCURVE",
"730 281 OFFCURVE",
"741 286 CURVE SMOOTH",
"775 302 LINE",
"791 329 LINE SMOOTH",
"794 334 OFFCURVE",
"800 336 OFFCURVE",
"804 339 CURVE SMOOTH",
"811 345 OFFCURVE",
"812 339 OFFCURVE",
"818 346 CURVE SMOOTH",
"850 382 OFFCURVE",
"867 436 OFFCURVE",
"862 472 CURVE SMOOTH",
"862 474 OFFCURVE",
"856 476 OFFCURVE",
"856 478 CURVE SMOOTH",
"855 484 OFFCURVE",
"856 490 OFFCURVE",
"854 496 CURVE SMOOTH",
"852 501 OFFCURVE",
"848 504 OFFCURVE",
"845 509 CURVE SMOOTH",
"844 511 OFFCURVE",
"845 516 OFFCURVE",
"844 518 CURVE SMOOTH",
"840 526 OFFCURVE",
"835 533 OFFCURVE",
"829 539 CURVE SMOOTH",
"821 549 OFFCURVE",
"812 558 OFFCURVE",
"802 566 CURVE",
"827 578 OFFCURVE",
"852 590 OFFCURVE",
"877 601 CURVE SMOOTH",
"920 621 OFFCURVE",
"898 608 OFFCURVE",
"941 627 CURVE",
"941 625 OFFCURVE",
"944 625 OFFCURVE",
"945 624 CURVE",
"944 628 OFFCURVE",
"966 625 OFFCURVE",
"970 628 CURVE",
"974 626 LINE",
"993 631 LINE",
"1013 628 LINE",
"1036 627 OFFCURVE",
"1063 630 OFFCURVE",
"1083 617 CURVE SMOOTH",
"1092 611 OFFCURVE",
"1098 602 OFFCURVE",
"1106 596 CURVE",
"1110 589 LINE"
);
}
);
width = 822;
}
);
note = B;
unicode = 0042;
},
{
color = 3;
glyphname = C;
lastChange = "2021-07-28 11:36:19 +0000";
layers = (
{
anchors = (
{
name = bottom;
position = "{73, -39}";
},
{
name = top;
position = "{613, 603}";
}
);
layerId = "E8487A59-2E36-4739-8DF2-414A9818920F";
paths = (
{
closed = 1;
nodes = (
"710 545 OFFCURVE",
"665 572 OFFCURVE",
"649 587 CURVE SMOOTH",
"638 598 OFFCURVE",
"629 603 OFFCURVE",
"613 603 CURVE SMOOTH",
"594 603 OFFCURVE",
"565 591 OFFCURVE",
"546 584 CURVE SMOOTH",
"523 576 OFFCURVE",
"500 568 OFFCURVE",
"479 557 CURVE SMOOTH",
"460 547 OFFCURVE",
"439 540 OFFCURVE",
"421 529 CURVE SMOOTH",
"394 512 OFFCURVE",
"368 494 OFFCURVE",
"341 476 CURVE SMOOTH",
"334 472 OFFCURVE",
"327 468 OFFCURVE",
"320 463 CURVE SMOOTH",
"293 445 OFFCURVE",
"270 419 OFFCURVE",
"246 396 CURVE SMOOTH",
"232 384 OFFCURVE",
"219 371 OFFCURVE",
"206 359 CURVE SMOOTH",
"201 354 OFFCURVE",
"195 350 OFFCURVE",
"189 345 CURVE",
"167 322 OFFCURVE",
"149 296 OFFCURVE",
"128 272 CURVE",
"127 267 LINE",
"130 268 LINE",
"130 259 OFFCURVE",
"119 260 OFFCURVE",
"114 256 CURVE SMOOTH",
"108 250 OFFCURVE",
"108 242 OFFCURVE",
"104 236 CURVE SMOOTH",
"101 231 OFFCURVE",
"95 230 OFFCURVE",
"91 226 CURVE SMOOTH",
"84 217 OFFCURVE",
"78 198 OFFCURVE",
"68 191 CURVE",
"68 184 LINE",
"65 177 OFFCURVE",
"56 170 OFFCURVE",
"56 161 CURVE SMOOTH",
"56 159 OFFCURVE",
"57 157 OFFCURVE",
"58 155 CURVE",
"60 157 OFFCURVE",
"60 160 OFFCURVE",
"61 162 CURVE",
"63 162 LINE",
"63 162 OFFCURVE",
"63 161 OFFCURVE",
"64 161 CURVE",
"63 155 OFFCURVE",
"44 130 OFFCURVE",
"39 126 CURVE",
"39 135 OFFCURVE",
"46 142 OFFCURVE",
"48 151 CURVE",
"47 151 LINE",
"46 147 OFFCURVE",
"37 134 OFFCURVE",
"35 129 CURVE SMOOTH",
"24 107 OFFCURVE",
"13 74 OFFCURVE",
"13 49 CURVE SMOOTH",
"13 25 OFFCURVE",
"20 21 OFFCURVE",
"33 3 CURVE SMOOTH",
"37 -2 OFFCURVE",
"40 -8 OFFCURVE",
"45 -12 CURVE SMOOTH",
"54 -20 OFFCURVE",
"70 -25 OFFCURVE",
"73 -39 CURVE",
"78 -39 OFFCURVE",
"90 -58 OFFCURVE",
"112 -58 CURVE SMOOTH",
"131 -58 OFFCURVE",
"212 -5 OFFCURVE",
"227 10 CURVE SMOOTH",
"234 16 OFFCURVE",
"271 51 OFFCURVE",
"275 52 CURVE",
"275 53 OFFCURVE",
"322 100 OFFCURVE",
"329 117 CURVE",
"329 118 LINE",
"323 118 OFFCURVE",
"312 103 OFFCURVE",
"306 99 CURVE",
"303 98 OFFCURVE",
"300 92 OFFCURVE",
"299 90 CURVE",
"295 89 OFFCURVE",
"263 59 OFFCURVE",
"255 54 CURVE",
"254 54 LINE",
"253 55 LINE",
"253 54 LINE",
"246 48 OFFCURVE",
"251 53 OFFCURVE",
"245 50 CURVE SMOOTH",
"240 47 OFFCURVE",
"236 43 OFFCURVE",
"232 40 CURVE SMOOTH",
"221 32 OFFCURVE",
"210 26 OFFCURVE",
"199 18 CURVE SMOOTH",
"168 -4 OFFCURVE",
"137 -23 OFFCURVE",
"97 -23 CURVE SMOOTH",
"79 -23 OFFCURVE",
"66 -22 OFFCURVE",
"66 1 CURVE SMOOTH",
"66 11 OFFCURVE",
"69 21 OFFCURVE",
"72 31 CURVE SMOOTH",
"99 119 OFFCURVE",
"144 173 OFFCURVE",
"199 242 CURVE SMOOTH",
"208 253 OFFCURVE",
"221 274 OFFCURVE",
"234 281 CURVE",
"236 292 OFFCURVE",
"354 396 OFFCURVE",
"371 405 CURVE",
"371 405 OFFCURVE",
"404 432 OFFCURVE",
"407 433 CURVE",
"433 447 LINE",
"438 451 OFFCURVE",
"444 456 OFFCURVE",
"449 459 CURVE SMOOTH",
"472 475 OFFCURVE",
"496 488 OFFCURVE",
"520 501 CURVE SMOOTH",
"528 506 OFFCURVE",
"561 521 OFFCURVE",
"565 526 CURVE",
"575 526 OFFCURVE",
"582 537 OFFCURVE",
"592 537 CURVE",
"593 540 LINE",
"607 540 OFFCURVE",
"620 556 OFFCURVE",
"645 556 CURVE SMOOTH",
"656 556 OFFCURVE",
"675 550 OFFCURVE",
"675 537 CURVE SMOOTH",
"675 509 OFFCURVE",
"587 443 OFFCURVE",
"563 426 CURVE SMOOTH",
"532 405 OFFCURVE",
"503 380 OFFCURVE",
"471 360 CURVE",
"470 358 LINE",
"471 358 LINE SMOOTH",
"473 358 OFFCURVE",
"482 364 OFFCURVE",
"484 365 CURVE SMOOTH",
"490 368 OFFCURVE",
"496 366 OFFCURVE",
"500 371 CURVE",
"503 370 LINE",
"504 370 LINE",
"505 374 OFFCURVE",
"510 375 OFFCURVE",
"512 378 CURVE",
"516 378 OFFCURVE",
"519 380 OFFCURVE",
"521 383 CURVE",
"527 383 OFFCURVE",
"532 388 OFFCURVE",
"539 389 CURVE",
"539 390 LINE",
"540 391 OFFCURVE",
"543 396 OFFCURVE",
"545 397 CURVE",
"546 397 OFFCURVE",
"548 397 OFFCURVE",
"549 398 CURVE",
"559 401 OFFCURVE",
"574 414 OFFCURVE",
"583 421 CURVE",
"583 423 LINE",
"598 423 OFFCURVE",
"628 440 OFFCURVE",
"636 453 CURVE",
"653 462 OFFCURVE",
"665 474 OFFCURVE",
"680 484 CURVE SMOOTH",
"694 492 OFFCURVE",
"710 505 OFFCURVE",
"710 523 CURVE SMOOTH"
);
}
);
width = 409;
}
);
note = C;
unicode = 0043;
},
{
color = 3;
glyphname = D;
lastChange = "2021-07-28 11:24:51 +0000";
layers = (
{
anchors = (
{
name = bottom;
position = "{397, 0}";
},
{
name = center;
position = "{431, 246}";
},
{
name = top;
position = "{765, 605}";
}
);
layerId = "E8487A59-2E36-4739-8DF2-414A9818920F";
paths = (
{
closed = 1;
nodes = (
"1119 593 LINE",
"1118 599 OFFCURVE",
"1097 615 OFFCURVE",
"1093 621 CURVE",
"1077 630 LINE SMOOTH",
"1065 637 OFFCURVE",
"1053 640 OFFCURVE",
"1040 644 CURVE SMOOTH",
"1036 645 OFFCURVE",
"1032 648 OFFCURVE",
"1027 648 CURVE",
"1027 647 LINE",
"1018 650 LINE SMOOTH",
"1009 653 OFFCURVE",
"972 658 OFFCURVE",
"966 654 CURVE",
"962 654 LINE SMOOTH",
"937 654 OFFCURVE",
"938 665 OFFCURVE",
"914 649 CURVE",
"904 650 OFFCURVE",
"896 645 OFFCURVE",
"887 642 CURVE SMOOTH",
"876 639 OFFCURVE",
"866 635 OFFCURVE",
"856 631 CURVE SMOOTH",
"849 628 OFFCURVE",
"841 626 OFFCURVE",
"834 624 CURVE",
"814 612 LINE",
"807 612 OFFCURVE",
"761 601 OFFCURVE",
"755 598 CURVE SMOOTH",
"742 593 OFFCURVE",
"734 589 OFFCURVE",
"728 584 CURVE",
"688 604 LINE",
"633 621 LINE",
"625 622 OFFCURVE",
"618 626 OFFCURVE",
"610 626 CURVE SMOOTH",
"596 626 OFFCURVE",
"593 637 OFFCURVE",
"587 637 CURVE SMOOTH",
"584 637 OFFCURVE",
"582 636 OFFCURVE",
"580 634 CURVE",
"572 635 OFFCURVE",
"558 640 OFFCURVE",
"551 637 CURVE",
"545 638 OFFCURVE",
"538 639 OFFCURVE",
"532 639 CURVE SMOOTH",
"527 639 OFFCURVE",
"523 638 OFFCURVE",
"519 637 CURVE",
"512 638 OFFCURVE",
"489 638 OFFCURVE",
"483 634 CURVE",
"435 630 LINE",
"411 633 OFFCURVE",
"300 605 OFFCURVE",
"287 592 CURVE SMOOTH",
"286 591 LINE",
"258 595 OFFCURVE",
"202 541 OFFCURVE",
"180 534 CURVE",
"179 532 OFFCURVE",
"147 512 OFFCURVE",
"145 510 CURVE SMOOTH",
"128 497 OFFCURVE",
"110 485 OFFCURVE",
"95 470 CURVE SMOOTH",
"45 419 OFFCURVE",
"-2 337 OFFCURVE",
"-2 264 CURVE SMOOTH",
"-2 251 OFFCURVE",
"-1 231 OFFCURVE",
"12 223 CURVE",
"15 225 LINE",
"23 225 OFFCURVE",
"22 214 OFFCURVE",
"29 211 CURVE",
"30 211 OFFCURVE",
"31 212 OFFCURVE",
"31 213 CURVE SMOOTH",
"31 222 OFFCURVE",
"22 243 OFFCURVE",
"22 261 CURVE SMOOTH",
"22 416 OFFCURVE",
"173 538 OFFCURVE",
"315 563 CURVE",
"317 573 OFFCURVE",
"385 572 OFFCURVE",
"396 585 CURVE",
"402 584 OFFCURVE",
"409 585 OFFCURVE",
"415 585 CURVE",
"416 590 OFFCURVE",
"452 591 OFFCURVE",
"457 591 CURVE SMOOTH",
"460 591 LINE",
"462 595 LINE",
"467 594 OFFCURVE",
"471 593 OFFCURVE",
"476 593 CURVE SMOOTH",
"480 593 OFFCURVE",
"483 593 OFFCURVE",
"486 596 CURVE",
"493 594 OFFCURVE",
"500 592 OFFCURVE",
"507 592 CURVE SMOOTH",
"523 592 OFFCURVE",
"539 586 OFFCURVE",
"556 586 CURVE SMOOTH",
"568 586 OFFCURVE",
"568 574 OFFCURVE",
"580 572 CURVE",
"582 577 LINE",
"582 576 LINE",
"585 575 OFFCURVE",
"587 574 OFFCURVE",
"590 576 CURVE",
"591 571 LINE",
"598 570 OFFCURVE",
"623 551 OFFCURVE",
"638 546 CURVE SMOOTH",
"654 541 LINE",
"655 542 OFFCURVE",
"658 539 OFFCURVE",
"662 536 CURVE",
"657 533 OFFCURVE",
"653 530 OFFCURVE",
"651 528 CURVE SMOOTH",
"640 518 OFFCURVE",
"630 507 OFFCURVE",
"619 498 CURVE SMOOTH",
"613 493 OFFCURVE",
"600 486 OFFCURVE",
"597 479 CURVE",
"593 479 OFFCURVE",
"563 443 OFFCURVE",
"557 439 CURVE SMOOTH",
"536 423 OFFCURVE",
"526 404 OFFCURVE",
"507 385 CURVE SMOOTH",
"454 334 OFFCURVE",
"408 271 OFFCURVE",
"360 214 CURVE SMOOTH",
"344 195 OFFCURVE",
"338 177 OFFCURVE",
"323 157 CURVE SMOOTH",
"315 147 OFFCURVE",
"297 124 OFFCURVE",
"287 116 CURVE",
"288 112 OFFCURVE",
"277 101 OFFCURVE",
"275 96 CURVE",
"274 96 OFFCURVE",
"241 57 OFFCURVE",
"238 52 CURVE SMOOTH",
"233 43 LINE",
"234 43 OFFCURVE",
"202 15 OFFCURVE",
"208 10 CURVE",
"196 -5 OFFCURVE",
"177 -12 OFFCURVE",
"173 -25 CURVE",
"163 -32 OFFCURVE",
"140 -56 OFFCURVE",
"132 -64 CURVE SMOOTH",
"117 -79 OFFCURVE",
"115 -80 OFFCURVE",
"102 -96 CURVE",
"101 -95 OFFCURVE",
"99 -97 OFFCURVE",
"97 -97 CURVE",
"100 -100 OFFCURVE",
"78 -110 OFFCURVE",
"76 -115 CURVE",
"72 -115 LINE",
"56 -131 LINE",
"50 -134 OFFCURVE",
"43 -137 OFFCURVE",
"37 -141 CURVE SMOOTH",
"15 -154 OFFCURVE",
"-8 -172 OFFCURVE",
"-33 -174 CURVE SMOOTH",
"-43 -175 OFFCURVE",
"-53 -171 OFFCURVE",
"-63 -170 CURVE",
"-70 -168 LINE",
"-72 -173 LINE",
"-68 -177 OFFCURVE",
"-43 -178 OFFCURVE",
"-36 -180 CURVE",
"-17 -178 LINE SMOOTH",
"-3 -177 OFFCURVE",
"9 -172 OFFCURVE",
"23 -167 CURVE SMOOTH",
"27 -165 OFFCURVE",
"32 -165 OFFCURVE",
"36 -162 CURVE",
"46 -158 LINE SMOOTH",
"55 -154 OFFCURVE",
"92 -137 OFFCURVE",
"96 -130 CURVE",
"99 -128 LINE",
"122 -116 LINE",
"126 -112 OFFCURVE",
"133 -108 OFFCURVE",
"138 -104 CURVE",
"179 -83 LINE SMOOTH",
"186 -79 OFFCURVE",
"209 -56 OFFCURVE",
"212 -50 CURVE",
"222 -44 OFFCURVE",
"237 -36 OFFCURVE",
"244 -29 CURVE SMOOTH",
"273 3 LINE",
"274 6 OFFCURVE",
"341 81 OFFCURVE",
"342 84 CURVE",
"348 84 OFFCURVE",
"393 148 OFFCURVE",
"401 158 CURVE SMOOTH",
"405 164 OFFCURVE",
"409 170 OFFCURVE",
"414 176 CURVE",
"419 187 LINE",
"427 194 LINE",
"436 208 LINE",
"445 218 LINE",
"466 246 LINE",
"482 264 LINE",
"508 297 LINE",
"521 308 LINE",
"527 319 LINE",
"542 335 LINE",
"545 342 LINE",
"548 346 OFFCURVE",
"555 348 OFFCURVE",
"559 351 CURVE",
"564 358 LINE",
"575 368 OFFCURVE",
"584 379 OFFCURVE",
"592 392 CURVE",
"591 393 OFFCURVE",
"595 391 OFFCURVE",
"595 390 CURVE",
"596 390 LINE",
"596 392 LINE",
"600 398 OFFCURVE",
"607 402 OFFCURVE",
"612 408 CURVE SMOOTH",
"622 418 OFFCURVE",
"632 427 OFFCURVE",
"641 437 CURVE",
"648 448 LINE",
"663 461 LINE",
"669 460 LINE",
"670 463 LINE",
"679 473 LINE",
"682 473 OFFCURVE",
"684 473 OFFCURVE",
"687 474 CURVE",
"702 490 LINE",
"707 492 OFFCURVE",
"709 496 OFFCURVE",
"711 499 CURVE",
"716 495 LINE SMOOTH",
"724 489 OFFCURVE",
"728 481 OFFCURVE",
"730 474 CURVE SMOOTH",
"758 399 OFFCURVE",
"778 396 OFFCURVE",
"763 324 CURVE SMOOTH",
"760 312 OFFCURVE",
"770 250 OFFCURVE",
"764 242 CURVE",
"752 185 OFFCURVE",
"709 116 OFFCURVE",
"698 107 CURVE",
"698 107 OFFCURVE",
"679 78 OFFCURVE",
"677 77 CURVE",
"671 72 OFFCURVE",
"667 55 OFFCURVE",
"662 51 CURVE",
"651 39 LINE SMOOTH",
"637 24 OFFCURVE",
"620 13 OFFCURVE",
"604 0 CURVE SMOOTH",
"564 -32 OFFCURVE",
"391 -118 OFFCURVE",
"396 -29 CURVE SMOOTH",
"398 2 OFFCURVE",
"454 64 OFFCURVE",
"470 79 CURVE SMOOTH",
"490 99 OFFCURVE",
"602 186 OFFCURVE",
"696 229 CURVE",
"688 231 LINE",
"582 194 OFFCURVE",
"502 139 OFFCURVE",
"468 115 CURVE",
"464 113 OFFCURVE",
"465 117 OFFCURVE",
"462 112 CURVE",
"456 110 LINE",
"456 110 OFFCURVE",
"451 104 OFFCURVE",
"450 103 CURVE",
"448 103 OFFCURVE",
"446 100 OFFCURVE",
"444 98 CURVE",
"440 97 OFFCURVE",
"437 93 OFFCURVE",
"433 92 CURVE",
"433 91 LINE",
"431 90 OFFCURVE",
"430 86 OFFCURVE",
"429 85 CURVE",
"428 85 OFFCURVE",
"427 84 OFFCURVE",
"426 84 CURVE",
"419 80 OFFCURVE",
"410 69 OFFCURVE",
"404 62 CURVE",
"404 60 LINE",
"394 60 OFFCURVE",
"396 52 OFFCURVE",
"390 41 CURVE",
"379 33 OFFCURVE",
"371 21 OFFCURVE",
"361 12 CURVE SMOOTH",
"352 4 OFFCURVE",
"342 -10 OFFCURVE",
"342 -26 CURVE SMOOTH",
"341 -46 OFFCURVE",
"343 -61 OFFCURVE",
"373 -81 CURVE SMOOTH",
"417 -113 OFFCURVE",
"562 -60 OFFCURVE",
"602 -29 CURVE SMOOTH",
"614 -20 OFFCURVE",
"628 -13 OFFCURVE",
"640 -3 CURVE SMOOTH",
"658 14 OFFCURVE",
"675 31 OFFCURVE",
"693 47 CURVE SMOOTH",
"706 59 LINE SMOOTH",
"724 76 OFFCURVE",
"739 101 OFFCURVE",
"755 121 CURVE SMOOTH",
"764 132 OFFCURVE",
"759 148 OFFCURVE",
"768 159 CURVE SMOOTH",
"771 164 OFFCURVE",
"775 168 OFFCURVE",
"779 173 CURVE SMOOTH",
"790 187 OFFCURVE",
"800 237 OFFCURVE",
"823 271 CURVE SMOOTH",
"828 278 OFFCURVE",
"823 302 OFFCURVE",
"826 309 CURVE SMOOTH",
"829 314 OFFCURVE",
"833 316 OFFCURVE",
"835 321 CURVE",
"841 331 OFFCURVE",
"826 336 OFFCURVE",
"832 345 CURVE",
"832 377 OFFCURVE",
"812 386 OFFCURVE",
"823 416 CURVE SMOOTH",
"832 439 OFFCURVE",
"801 449 OFFCURVE",
"802 471 CURVE SMOOTH",
"804 493 OFFCURVE",
"799 494 OFFCURVE",
"792 506 CURVE SMOOTH",
"789 510 OFFCURVE",
"788 514 OFFCURVE",
"785 517 CURVE SMOOTH",
"780 521 OFFCURVE",
"768 534 OFFCURVE",
"765 545 CURVE",
"779 552 OFFCURVE",
"789 560 OFFCURVE",
"806 566 CURVE",
"831 578 OFFCURVE",
"856 590 OFFCURVE",
"882 601 CURVE SMOOTH",
"925 621 OFFCURVE",
"902 608 OFFCURVE",
"945 627 CURVE",
"946 625 OFFCURVE",
"948 625 OFFCURVE",
"949 624 CURVE",
"949 628 OFFCURVE",
"971 625 OFFCURVE",
"975 628 CURVE",
"978 626 LINE",
"997 631 LINE",
"1017 628 LINE",
"1041 627 OFFCURVE",
"1067 630 OFFCURVE",
"1087 617 CURVE SMOOTH",
"1097 611 OFFCURVE",
"1103 602 OFFCURVE",
"1110 596 CURVE",
"1114 589 LINE"
);
}
);
width = 793;
}
);
note = D;
unicode = 0044;
},
{
color = 3;
glyphname = Eth;
lastChange = "2021-07-28 11:24:51 +0000";
layers = (
{
layerId = "E8487A59-2E36-4739-8DF2-414A9818920F";
paths = (
{
closed = 1;
nodes = (
"460 157 OFFCURVE",
"451 167 OFFCURVE",
"448 167 CURVE SMOOTH",
"446 167 OFFCURVE",
"446 169 OFFCURVE",
"445 169 CURVE SMOOTH",
"441 170 OFFCURVE",
"433 171 OFFCURVE",
"428 171 CURVE SMOOTH",
"410 171 LINE",
"414 176 LINE",
"419 187 LINE",
"427 194 LINE",
"436 208 LINE",
"445 218 LINE",
"466 246 LINE",
"482 264 LINE",
"508 297 LINE",
"521 308 LINE",
"527 319 LINE",
"542 335 LINE",
"545 342 LINE",
"548 346 OFFCURVE",
"555 348 OFFCURVE",
"559 351 CURVE",
"564 358 LINE",
"575 368 OFFCURVE",
"584 379 OFFCURVE",
"592 392 CURVE",
"591 393 OFFCURVE",
"595 391 OFFCURVE",
"595 390 CURVE",
"596 390 LINE",
"596 392 LINE",
"600 398 OFFCURVE",
"607 402 OFFCURVE",
"612 408 CURVE SMOOTH",
"622 418 OFFCURVE",
"632 427 OFFCURVE",
"641 437 CURVE",
"648 448 LINE",
"663 461 LINE",
"669 460 LINE",
"670 463 LINE",
"679 473 LINE",
"682 473 OFFCURVE",
"684 473 OFFCURVE",
"687 474 CURVE",
"702 490 LINE",
"707 492 OFFCURVE",
"709 496 OFFCURVE",
"711 499 CURVE",
"716 495 LINE SMOOTH",
"723 488 OFFCURVE",
"728 481 OFFCURVE",
"730 474 CURVE SMOOTH",
"758 399 OFFCURVE",
"778 396 OFFCURVE",
"763 324 CURVE SMOOTH",
"760 312 OFFCURVE",
"770 250 OFFCURVE",
"764 242 CURVE",
"752 185 OFFCURVE",
"709 116 OFFCURVE",
"698 107 CURVE",
"698 107 OFFCURVE",
"679 78 OFFCURVE",
"677 77 CURVE",
"671 72 OFFCURVE",
"667 55 OFFCURVE",
"662 51 CURVE",
"651 39 LINE SMOOTH",
"636 25 OFFCURVE",
"620 13 OFFCURVE",
"604 0 CURVE SMOOTH",
"564 -32 OFFCURVE",
"391 -118 OFFCURVE",
"396 -29 CURVE SMOOTH",
"398 2 OFFCURVE",
"454 64 OFFCURVE",
"470 79 CURVE SMOOTH",
"490 99 OFFCURVE",
"602 186 OFFCURVE",
"696 229 CURVE",
"688 231 LINE",
"582 194 OFFCURVE",
"502 139 OFFCURVE",
"468 115 CURVE",
"464 113 OFFCURVE",
"465 117 OFFCURVE",
"462 112 CURVE",
"456 110 LINE",
"456 110 OFFCURVE",
"451 104 OFFCURVE",
"450 103 CURVE",
"448 103 OFFCURVE",
"446 100 OFFCURVE",
"444 98 CURVE",
"440 97 OFFCURVE",
"437 93 OFFCURVE",
"433 92 CURVE",
"433 91 LINE",
"431 90 OFFCURVE",
"430 86 OFFCURVE",
"429 85 CURVE",
"428 85 OFFCURVE",
"427 84 OFFCURVE",
"426 84 CURVE",
"419 80 OFFCURVE",
"410 69 OFFCURVE",
"404 62 CURVE",
"404 60 LINE",
"394 60 OFFCURVE",
"396 52 OFFCURVE",
"390 41 CURVE",
"379 33 OFFCURVE",
"371 21 OFFCURVE",
"361 12 CURVE SMOOTH",
"352 4 OFFCURVE",
"342 -10 OFFCURVE",
"342 -26 CURVE SMOOTH",
"341 -46 OFFCURVE",
"343 -61 OFFCURVE",
"373 -81 CURVE SMOOTH",
"417 -113 OFFCURVE",
"562 -60 OFFCURVE",
"602 -29 CURVE SMOOTH",
"614 -20 OFFCURVE",
"628 -13 OFFCURVE",
"640 -3 CURVE SMOOTH",
"658 14 OFFCURVE",
"675 31 OFFCURVE",
"693 47 CURVE SMOOTH",
"706 59 LINE SMOOTH",
"724 76 OFFCURVE",
"739 101 OFFCURVE",
"755 121 CURVE SMOOTH",
"764 132 OFFCURVE",
"759 148 OFFCURVE",
"768 159 CURVE SMOOTH",
"771 164 OFFCURVE",
"775 168 OFFCURVE",
"779 173 CURVE SMOOTH",
"790 187 OFFCURVE",
"800 237 OFFCURVE",
"823 271 CURVE SMOOTH",
"828 278 OFFCURVE",
"823 302 OFFCURVE",
"826 309 CURVE SMOOTH",
"829 314 OFFCURVE",
"833 316 OFFCURVE",
"835 321 CURVE",
"841 331 OFFCURVE",
"826 336 OFFCURVE",
"832 345 CURVE",
"832 377 OFFCURVE",
"812 386 OFFCURVE",
"823 416 CURVE SMOOTH",
"832 439 OFFCURVE",
"801 449 OFFCURVE",
"802 471 CURVE SMOOTH",
"804 493 OFFCURVE",
"799 494 OFFCURVE",
"792 506 CURVE SMOOTH",
"789 510 OFFCURVE",
"788 514 OFFCURVE",
"785 517 CURVE SMOOTH",
"780 521 OFFCURVE",
"768 534 OFFCURVE",
"765 545 CURVE",
"779 552 OFFCURVE",
"789 560 OFFCURVE",
"806 566 CURVE",
"831 578 OFFCURVE",
"856 590 OFFCURVE",
"882 601 CURVE SMOOTH",
"925 621 OFFCURVE",
"902 608 OFFCURVE",
"945 627 CURVE",
"946 625 OFFCURVE",
"948 625 OFFCURVE",
"949 624 CURVE",
"949 628 OFFCURVE",
"971 625 OFFCURVE",
"975 628 CURVE",
"978 626 LINE",
"997 631 LINE",
"1017 628 LINE",
"1041 627 OFFCURVE",
"1067 630 OFFCURVE",
"1087 617 CURVE SMOOTH",
"1097 611 OFFCURVE",
"1103 602 OFFCURVE",
"1110 596 CURVE",
"1114 589 LINE",
"1119 593 LINE",
"1118 599 OFFCURVE",
"1097 615 OFFCURVE",
"1093 621 CURVE",
"1077 630 LINE SMOOTH",
"1065 636 OFFCURVE",
"1053 640 OFFCURVE",
"1040 644 CURVE SMOOTH",
"1036 645 OFFCURVE",
"1032 648 OFFCURVE",
"1027 648 CURVE",
"1027 647 LINE",
"1018 650 LINE SMOOTH",
"1009 652 OFFCURVE",
"972 658 OFFCURVE",
"966 654 CURVE",
"962 654 LINE SMOOTH",
"937 657 OFFCURVE",
"938 665 OFFCURVE",
"914 649 CURVE",
"904 650 OFFCURVE",
"896 645 OFFCURVE",
"887 642 CURVE SMOOTH",
"876 639 OFFCURVE",
"866 635 OFFCURVE",
"856 631 CURVE SMOOTH",
"849 628 OFFCURVE",
"841 626 OFFCURVE",
"834 624 CURVE",
"814 612 LINE",
"807 612 OFFCURVE",
"761 601 OFFCURVE",
"755 598 CURVE SMOOTH",
"742 593 OFFCURVE",
"734 589 OFFCURVE",
"728 584 CURVE",
"688 604 LINE",
"633 621 LINE",
"625 622 OFFCURVE",
"618 626 OFFCURVE",
"610 626 CURVE SMOOTH",
"596 626 OFFCURVE",
"593 637 OFFCURVE",
"587 637 CURVE SMOOTH",
"584 637 OFFCURVE",
"582 636 OFFCURVE",
"580 634 CURVE",
"572 635 OFFCURVE",
"558 640 OFFCURVE",
"551 637 CURVE",
"545 638 OFFCURVE",
"538 639 OFFCURVE",
"532 639 CURVE SMOOTH",
"527 639 OFFCURVE",
"523 638 OFFCURVE",
"519 637 CURVE",
"512 638 OFFCURVE",
"489 638 OFFCURVE",
"483 634 CURVE",
"435 630 LINE",
"411 633 OFFCURVE",
"297 608 OFFCURVE",
"287 592 CURVE SMOOTH",
"286 591 LINE",
"258 595 OFFCURVE",
"202 541 OFFCURVE",
"180 534 CURVE",
"179 532 OFFCURVE",
"147 512 OFFCURVE",
"145 510 CURVE SMOOTH",
"128 497 OFFCURVE",
"110 485 OFFCURVE",
"95 470 CURVE SMOOTH",
"45 419 OFFCURVE",
"-2 337 OFFCURVE",
"-2 264 CURVE SMOOTH",
"-2 251 OFFCURVE",
"-1 231 OFFCURVE",
"12 223 CURVE",
"15 225 LINE",
"23 225 OFFCURVE",
"22 214 OFFCURVE",
"29 211 CURVE",
"30 211 OFFCURVE",
"31 212 OFFCURVE",
"31 213 CURVE SMOOTH",
"31 222 OFFCURVE",
"22 243 OFFCURVE",
"22 261 CURVE SMOOTH",
"22 416 OFFCURVE",
"173 538 OFFCURVE",
"315 563 CURVE",
"317 573 OFFCURVE",
"385 572 OFFCURVE",
"396 585 CURVE",
"402 584 OFFCURVE",
"409 585 OFFCURVE",
"415 585 CURVE",
"416 590 OFFCURVE",
"452 591 OFFCURVE",
"457 591 CURVE SMOOTH",
"460 591 LINE",
"462 595 LINE",
"467 594 OFFCURVE",
"471 593 OFFCURVE",
"476 593 CURVE SMOOTH",
"480 593 OFFCURVE",
"483 593 OFFCURVE",
"486 596 CURVE",
"493 594 OFFCURVE",
"500 592 OFFCURVE",
"507 592 CURVE SMOOTH",
"523 592 OFFCURVE",
"539 586 OFFCURVE",
"556 586 CURVE SMOOTH",
"568 586 OFFCURVE",
"568 574 OFFCURVE",
"580 572 CURVE",
"582 577 LINE",
"582 576 LINE",
"585 575 OFFCURVE",
"587 574 OFFCURVE",
"590 576 CURVE",
"591 571 LINE",
"598 570 OFFCURVE",
"623 550 OFFCURVE",
"638 546 CURVE SMOOTH",
"654 541 LINE",
"655 542 OFFCURVE",
"658 539 OFFCURVE",
"662 536 CURVE",
"657 533 OFFCURVE",
"653 530 OFFCURVE",
"651 528 CURVE SMOOTH",
"640 518 OFFCURVE",
"630 507 OFFCURVE",
"619 498 CURVE SMOOTH",
"613 493 OFFCURVE",
"600 486 OFFCURVE",
"597 479 CURVE",
"593 479 OFFCURVE",
"563 443 OFFCURVE",
"557 439 CURVE SMOOTH",
"536 423 OFFCURVE",
"526 404 OFFCURVE",
"507 385 CURVE SMOOTH",
"454 334 OFFCURVE",
"408 271 OFFCURVE",
"360 214 CURVE SMOOTH",
"347 199 OFFCURVE",
"341 185 OFFCURVE",
"332 170 CURVE",
"244 170 LINE SMOOTH",
"243 170 OFFCURVE",
"223 165 OFFCURVE",
"221 165 CURVE SMOOTH",
"220 165 OFFCURVE",
"220 167 OFFCURVE",
"219 168 CURVE",
"212 140 LINE",
"212 133 OFFCURVE",
"212 126 OFFCURVE",
"214 120 CURVE",
"218 117 LINE",
"219 118 OFFCURVE",
"230 117 OFFCURVE",
"230 117 CURVE",
"232 117 OFFCURVE",
"235 124 OFFCURVE",
"236 124 CURVE SMOOTH",
"238 124 OFFCURVE",
"236 123 OFFCURVE",
"238 123 CURVE",
"242 130 OFFCURVE",
"266 123 OFFCURVE",
"270 130 CURVE SMOOTH",
"275 138 OFFCURVE",
"287 126 OFFCURVE",
"291 135 CURVE",
"307 137 LINE",
"300 128 OFFCURVE",
"292 120 OFFCURVE",
"287 116 CURVE",
"288 112 OFFCURVE",
"277 101 OFFCURVE",
"275 96 CURVE",
"274 96 OFFCURVE",
"241 57 OFFCURVE",
"238 52 CURVE SMOOTH",
"233 43 LINE",
"234 43 OFFCURVE",
"202 15 OFFCURVE",
"208 10 CURVE",
"196 -5 OFFCURVE",
"177 -12 OFFCURVE",
"173 -25 CURVE",
"163 -32 OFFCURVE",
"140 -56 OFFCURVE",
"132 -64 CURVE SMOOTH",
"117 -79 OFFCURVE",
"115 -80 OFFCURVE",
"102 -96 CURVE",
"101 -95 OFFCURVE",
"99 -97 OFFCURVE",
"97 -97 CURVE",
"100 -100 OFFCURVE",
"78 -110 OFFCURVE",
"76 -115 CURVE",
"72 -115 LINE",
"56 -131 LINE",
"50 -134 OFFCURVE",
"43 -137 OFFCURVE",
"37 -141 CURVE SMOOTH",
"15 -154 OFFCURVE",
"-8 -172 OFFCURVE",
"-33 -174 CURVE SMOOTH",
"-43 -175 OFFCURVE",
"-53 -171 OFFCURVE",
"-63 -170 CURVE",
"-70 -168 LINE",
"-72 -173 LINE",
"-68 -177 OFFCURVE",
"-43 -178 OFFCURVE",
"-36 -180 CURVE",
"-17 -178 LINE SMOOTH",
"-3 -175 OFFCURVE",
"9 -172 OFFCURVE",
"23 -167 CURVE SMOOTH",
"27 -165 OFFCURVE",
"32 -165 OFFCURVE",
"36 -162 CURVE",
"46 -158 LINE SMOOTH",
"55 -155 OFFCURVE",
"92 -137 OFFCURVE",
"96 -130 CURVE",
"99 -128 LINE",
"122 -116 LINE",
"126 -112 OFFCURVE",
"133 -108 OFFCURVE",
"138 -104 CURVE",
"179 -83 LINE SMOOTH",
"186 -79 OFFCURVE",
"209 -56 OFFCURVE",
"212 -50 CURVE",
"222 -44 OFFCURVE",
"237 -36 OFFCURVE",
"244 -29 CURVE SMOOTH",
"273 3 LINE",
"274 6 OFFCURVE",
"341 81 OFFCURVE",
"342 84 CURVE",
"347 84 OFFCURVE",
"376 124 OFFCURVE",
"392 146 CURVE",
"403 147 OFFCURVE",
"412 147 OFFCURVE",
"412 147 CURVE",
"416 149 LINE",
"416 149 OFFCURVE",
"425 148 OFFCURVE",
"430 148 CURVE",
"430 150 OFFCURVE",
"430 152 OFFCURVE",
"431 153 CURVE",
"435 154 OFFCURVE",
"440 156 OFFCURVE",
"441 156 CURVE SMOOTH",
"442 156 OFFCURVE",
"442 153 OFFCURVE",
"444 153 CURVE",
"444 154 OFFCURVE",
"444 155 OFFCURVE",
"445 156 CURVE",
"448 156 OFFCURVE",
"453 159 OFFCURVE",
"454 159 CURVE SMOOTH",
"456 159 OFFCURVE",
"455 157 OFFCURVE",
"457 157 CURVE SMOOTH"
);
}
);
width = 793;
}
);
note = Eth;
unicode = 00D0;
},
{
color = 3;
glyphname = E;
lastChange = "2021-07-28 12:09:20 +0000";
layers = (
{
anchors = (
{
name = bottom;
position = "{415, 0}";
},
{
name = ogonek;
position = "{539, -3}";
},
{
name = top;
position = "{876, 600}";
},
{
name = topleft;
position = "{20, 600}";
}
);
layerId = "E8487A59-2E36-4739-8DF2-414A9818920F";
paths = (
{
closed = 1;
nodes = (
"709 -60 OFFCURVE",
"710 -55 OFFCURVE",
"708 -53 CURVE",
"707 -54 LINE",
"707 -47 LINE SMOOTH",
"707 -41 OFFCURVE",
"697 -19 OFFCURVE",
"688 -21 CURVE",
"686 -19 LINE",
"679 -6 LINE",
"675 -5 OFFCURVE",
"673 -1 OFFCURVE",
"669 1 CURVE",
"637 9 LINE",
"634 13 OFFCURVE",
"612 19 OFFCURVE",
"605 19 CURVE",
"601 24 OFFCURVE",
"591 23 OFFCURVE",
"584 25 CURVE SMOOTH",
"574 27 OFFCURVE",
"564 28 OFFCURVE",
"554 29 CURVE SMOOTH",
"547 29 OFFCURVE",
"539 18 OFFCURVE",
"532 19 CURVE",
"509 31 LINE",
"506 34 OFFCURVE",
"480 30 OFFCURVE",
"472 29 CURVE SMOOTH",
"437 27 OFFCURVE",
"356 16 OFFCURVE",
"317 8 CURVE SMOOTH",
"302 5 OFFCURVE",
"287 4 OFFCURVE",
"272 1 CURVE SMOOTH",
"201 -11 LINE",
"202 -8 OFFCURVE",
"202 -4 OFFCURVE",
"199 1 CURVE",
"208 10 OFFCURVE",
"203 21 OFFCURVE",
"206 31 CURVE SMOOTH",
"231 114 OFFCURVE",
"273 168 OFFCURVE",
"324 231 CURVE",
"380 244 LINE",
"412 244 LINE SMOOTH",
"417 244 OFFCURVE",
"422 248 OFFCURVE",
"426 249 CURVE SMOOTH",
"437 252 OFFCURVE",
"467 256 OFFCURVE",
"471 256 CURVE SMOOTH",
"475 256 OFFCURVE",
"479 254 OFFCURVE",
"482 254 CURVE",
"486 256 OFFCURVE",
"493 258 OFFCURVE",
"493 258 CURVE",
"504 261 LINE",
"504 261 OFFCURVE",
"531 260 OFFCURVE",
"544 260 CURVE",
"544 262 OFFCURVE",
"544 265 OFFCURVE",
"546 265 CURVE SMOOTH",
"556 267 OFFCURVE",
"569 269 OFFCURVE",
"572 269 CURVE SMOOTH",
"576 269 OFFCURVE",
"579 266 OFFCURVE",
"582 266 CURVE",
"582 267 OFFCURVE",
"582 268 OFFCURVE",
"584 269 CURVE",
"593 269 OFFCURVE",
"606 273 OFFCURVE",
"610 273 CURVE SMOOTH",
"614 273 OFFCURVE",
"614 270 OFFCURVE",
"618 270 CURVE SMOOTH",
"622 270 OFFCURVE",
"651 275 OFFCURVE",
"667 279 CURVE",
"667 280 OFFCURVE",
"665 282 OFFCURVE",
"665 282 CURVE",
"658 281 OFFCURVE",
"650 281 OFFCURVE",
"645 278 CURVE",
"643 280 OFFCURVE",
"642 282 OFFCURVE",
"642 283 CURVE",
"640 282 OFFCURVE",
"638 281 OFFCURVE",
"633 281 CURVE SMOOTH",
"629 281 OFFCURVE",
"591 282 OFFCURVE",
"586 282 CURVE SMOOTH",
"581 282 OFFCURVE",
"580 285 OFFCURVE",
"578 285 CURVE SMOOTH",
"563 286 OFFCURVE",
"542 287 OFFCURVE",
"527 287 CURVE SMOOTH",
"520 287 OFFCURVE",
"507 289 OFFCURVE",
"504 289 CURVE SMOOTH",
"499 289 OFFCURVE",
"480 286 OFFCURVE",
"476 286 CURVE SMOOTH",
"471 286 LINE SMOOTH",
"467 286 OFFCURVE",
"449 288 OFFCURVE",
"445 288 CURVE SMOOTH",
"440 288 OFFCURVE",
"424 283 OFFCURVE",
"419 283 CURVE SMOOTH",
"369 284 LINE",
"382 303 OFFCURVE",
"488 396 OFFCURVE",
"504 405 CURVE",
"504 405 OFFCURVE",
"538 432 OFFCURVE",
"541 433 CURVE",
"566 447 LINE SMOOTH",
"572 451 OFFCURVE",
"577 456 OFFCURVE",
"582 459 CURVE SMOOTH",
"603 473 OFFCURVE",
"625 485 OFFCURVE",
"646 497 CURVE",
"651 496 LINE",
"650 490 OFFCURVE",
"692 486 OFFCURVE",
"695 486 CURVE SMOOTH",
"699 486 LINE SMOOTH",
"702 486 OFFCURVE",
"709 484 OFFCURVE",
"711 480 CURVE",
"712 480 LINE",
"713 479 LINE",
"747 476 OFFCURVE",
"779 458 OFFCURVE",
"813 461 CURVE SMOOTH",
"815 461 OFFCURVE",
"817 461 OFFCURVE",
"818 462 CURVE",
"820 462 LINE",
"820 460 OFFCURVE",
"822 460 OFFCURVE",
"822 460 CURVE",
"831 457 OFFCURVE",
"841 459 OFFCURVE",
"850 458 CURVE",
"857 456 OFFCURVE",
"864 456 OFFCURVE",
"870 456 CURVE SMOOTH",
"913 459 OFFCURVE",
"1000 499 OFFCURVE",
"1013 564 CURVE",
"1006 564 OFFCURVE",
"1002 554 OFFCURVE",
"997 549 CURVE SMOOTH",
"970 522 OFFCURVE",
"910 508 OFFCURVE",
"879 506 CURVE",
"875 505 OFFCURVE",
"870 508 OFFCURVE",
"867 505 CURVE",
"851 508 OFFCURVE",
"836 513 OFFCURVE",
"820 512 CURVE SMOOTH",
"816 512 OFFCURVE",
"812 511 OFFCURVE",
"809 509 CURVE",
"809 508 LINE",
"806 509 OFFCURVE",
"808 513 OFFCURVE",
"800 514 CURVE SMOOTH",
"791 516 OFFCURVE",
"788 519 OFFCURVE",
"779 519 CURVE SMOOTH",
"770 519 LINE",
"770 524 LINE",
"765 525 OFFCURVE",
"764 523 OFFCURVE",
"759 525 CURVE",
"752 523 LINE",
"751 521 LINE",
"751 522 LINE",
"747 523 OFFCURVE",
"746 528 OFFCURVE",
"742 528 CURVE SMOOTH",
"741 528 OFFCURVE",
"741 527 OFFCURVE",
"740 527 CURVE",
"740 527 OFFCURVE",
"739 527 OFFCURVE",
"739 526 CURVE",
"736 527 OFFCURVE",
"734 531 OFFCURVE",
"731 532 CURVE",
"731 527 LINE",
"730 528 OFFCURVE",
"730 527 OFFCURVE",
"730 527 CURVE",
"729 532 LINE",
"726 532 LINE SMOOTH",
"723 532 OFFCURVE",
"719 530 OFFCURVE",
"718 536 CURVE",
"720 537 OFFCURVE",
"723 537 OFFCURVE",
"725 537 CURVE",
"727 540 LINE",
"741 540 OFFCURVE",
"782 574 OFFCURVE",
"807 574 CURVE SMOOTH",
"833 574 OFFCURVE",
"845 567 OFFCURVE",
"851 548 CURVE",
"855 523 OFFCURVE",
"872 534 OFFCURVE",
"872 541 CURVE SMOOTH",
"872 563 OFFCURVE",
"827 590 OFFCURVE",
"811 605 CURVE SMOOTH",
"800 616 OFFCURVE",
"791 621 OFFCURVE",
"775 621 CURVE SMOOTH",
"756 621 OFFCURVE",
"714 617 OFFCURVE",
"705 608 CURVE SMOOTH",
"698 601 OFFCURVE",
"651 597 OFFCURVE",
"658 584 CURVE SMOOTH",
"661 578 OFFCURVE",
"651 574 OFFCURVE",
"645 574 CURVE SMOOTH",
"637 574 OFFCURVE",
"612 562 OFFCURVE",
"590 550 CURVE",
"586 551 OFFCURVE",
"583 553 OFFCURVE",
"581 554 CURVE",
"578 551 LINE",
"568 553 OFFCURVE",
"558 561 OFFCURVE",
"548 560 CURVE SMOOTH",
"547 560 OFFCURVE",
"544 559 OFFCURVE",
"544 559 CURVE",
"544 562 OFFCURVE",
"528 563 OFFCURVE",
"524 565 CURVE",
"523 565 OFFCURVE",
"521 563 OFFCURVE",
"521 563 CURVE",
"521 567 OFFCURVE",
"507 570 OFFCURVE",
"505 570 CURVE SMOOTH",
"483 568 OFFCURVE",
"457 576 OFFCURVE",
"436 580 CURVE",
"435 576 LINE",
"429 577 OFFCURVE",
"423 581 OFFCURVE",
"417 580 CURVE SMOOTH",
"416 580 OFFCURVE",
"414 580 OFFCURVE",
"412 578 CURVE",
"410 579 OFFCURVE",
"405 581 OFFCURVE",
"402 581 CURVE SMOOTH",
"400 581 OFFCURVE",
"398 580 OFFCURVE",
"397 578 CURVE",
"390 579 OFFCURVE",
"380 583 OFFCURVE",
"374 580 CURVE",
"369 580 OFFCURVE",
"364 581 OFFCURVE",
"360 581 CURVE SMOOTH",
"356 581 OFFCURVE",
"353 579 OFFCURVE",
"350 577 CURVE",
"344 578 OFFCURVE",
"337 580 OFFCURVE",
"332 576 CURVE",
"332 575 LINE",
"314 577 OFFCURVE",
"206 550 OFFCURVE",
"197 533 CURVE",
"197 532 LINE",
"176 534 OFFCURVE",
"125 488 OFFCURVE",
"108 479 CURVE",
"107 477 OFFCURVE",
"83 455 OFFCURVE",
"80 452 CURVE SMOOTH",
"67 437 OFFCURVE",
"53 425 OFFCURVE",
"41 408 CURVE SMOOTH",
"2 352 OFFCURVE",
"-36 263 OFFCURVE",
"-37 187 CURVE SMOOTH",
"-37 173 OFFCURVE",
"-36 152 OFFCURVE",
"-27 144 CURVE",
"-24 147 LINE",
"-19 147 OFFCURVE",
"-19 136 OFFCURVE",
"-14 132 CURVE",
"-13 132 OFFCURVE",
"-12 134 OFFCURVE",
"-12 135 CURVE SMOOTH",
"-12 144 OFFCURVE",
"-19 166 OFFCURVE",
"-18 185 CURVE SMOOTH",
"-16 347 OFFCURVE",
"103 482 OFFCURVE",
"212 516 CURVE",
"214 527 OFFCURVE",
"266 529 OFFCURVE",
"275 543 CURVE",
"280 542 OFFCURVE",
"285 544 OFFCURVE",
"290 544 CURVE",
"291 549 OFFCURVE",
"318 553 OFFCURVE",
"323 553 CURVE SMOOTH",
"325 553 LINE",
"326 557 LINE",
"330 556 OFFCURVE",
"334 555 OFFCURVE",
"337 555 CURVE SMOOTH",
"340 555 OFFCURVE",
"343 556 OFFCURVE",
"345 559 CURVE",
"350 558 OFFCURVE",
"355 556 OFFCURVE",
"361 556 CURVE SMOOTH",
"373 557 OFFCURVE",
"386 551 OFFCURVE",
"398 552 CURVE SMOOTH",
"408 553 OFFCURVE",
"411 553 OFFCURVE",
"419 551 CURVE",
"421 556 LINE",
"422 555 LINE",
"424 555 OFFCURVE",
"425 554 OFFCURVE",
"427 556 CURVE",
"428 551 LINE",
"434 549 OFFCURVE",
"441 548 OFFCURVE",
"447 549 CURVE SMOOTH",
"451 549 OFFCURVE",
"455 550 OFFCURVE",
"459 553 CURVE",
"459 554 LINE",
"460 554 LINE",
"459 547 LINE",
"465 547 LINE",
"467 550 LINE",
"472 546 LINE",
"473 546 OFFCURVE",
"475 545 OFFCURVE",
"476 544 CURVE",
"477 550 LINE",
"480 550 LINE",
"479 542 LINE",
"482 541 OFFCURVE",
"486 544 OFFCURVE",
"488 548 CURVE",
"493 546 OFFCURVE",
"498 536 OFFCURVE",
"505 536 CURVE SMOOTH",
"506 536 OFFCURVE",
"507 537 OFFCURVE",
"508 538 CURVE",
"517 534 OFFCURVE",
"525 534 OFFCURVE",
"534 533 CURVE",
"536 531 OFFCURVE",
"538 529 OFFCURVE",
"540 528 CURVE",
"542 534 LINE",
"550 530 LINE",
"549 529 LINE",
"547 529 LINE",
"547 525 LINE",
"548 525 LINE",
"474 476 LINE SMOOTH",
"468 472 OFFCURVE",
"460 468 OFFCURVE",
"454 463 CURVE SMOOTH",
"427 445 OFFCURVE",
"404 419 OFFCURVE",
"379 396 CURVE SMOOTH",
"340 359 LINE SMOOTH",
"334 354 OFFCURVE",
"328 350 OFFCURVE",
"323 345 CURVE SMOOTH",
"303 325 OFFCURVE",
"287 302 OFFCURVE",
"269 281 CURVE",
"256 280 OFFCURVE",
"244 278 OFFCURVE",
"242 278 CURVE SMOOTH",
"237 278 OFFCURVE",
"237 281 OFFCURVE",
"233 282 CURVE",
"231 248 LINE",
"237 236 LINE",
"234 231 OFFCURVE",
"228 230 OFFCURVE",
"225 226 CURVE SMOOTH",
"217 217 OFFCURVE",
"211 198 OFFCURVE",
"202 191 CURVE",
"202 184 LINE",
"199 177 OFFCURVE",
"189 170 OFFCURVE",
"189 161 CURVE SMOOTH",
"189 159 OFFCURVE",
"190 157 OFFCURVE",
"191 155 CURVE",
"193 157 OFFCURVE",
"194 160 OFFCURVE",
"194 162 CURVE",
"196 162 LINE",
"197 161 LINE",
"197 155 OFFCURVE",
"178 130 OFFCURVE",
"173 126 CURVE",
"173 125 LINE",
"172 125 LINE",
"172 135 OFFCURVE",
"179 142 OFFCURVE",
"182 151 CURVE",
"180 151 LINE",
"180 147 OFFCURVE",
"171 134 OFFCURVE",
"169 129 CURVE SMOOTH",
"158 107 OFFCURVE",
"147 74 OFFCURVE",
"147 49 CURVE SMOOTH",
"147 25 OFFCURVE",
"154 21 OFFCURVE",
"167 3 CURVE SMOOTH",
"171 -2 OFFCURVE",
"173 -8 OFFCURVE",
"178 -12 CURVE",
"179 -12 OFFCURVE",
"180 -13 OFFCURVE",
"181 -14 CURVE",
"148 -19 LINE SMOOTH",
"131 -22 OFFCURVE",
"69 -37 OFFCURVE",
"61 -39 CURVE SMOOTH",
"30 -44 OFFCURVE",
"50 -69 OFFCURVE",
"91 -65 CURVE",
"174 -46 OFFCURVE",
"198 -32 OFFCURVE",
"289 -19 CURVE SMOOTH",
"316 -15 LINE",
"368 -14 OFFCURVE",
"476 -7 OFFCURVE",
"526 -9 CURVE SMOOTH",
"540 -10 OFFCURVE",
"552 -22 OFFCURVE",
"571 -16 CURVE",
"576 -22 OFFCURVE",
"586 -33 OFFCURVE",
"594 -35 CURVE SMOOTH",
"609 -39 OFFCURVE",
"624 -35 OFFCURVE",
"642 -36 CURVE",
"641 -37 OFFCURVE",
"641 -39 OFFCURVE",
"641 -40 CURVE",
"646 -36 OFFCURVE",
"651 -49 OFFCURVE",
"658 -47 CURVE",
"656 -51 LINE",
"672 -55 LINE",
"674 -59 OFFCURVE",
"675 -63 OFFCURVE",
"678 -66 CURVE",
"686 -78 OFFCURVE",
"703 -87 OFFCURVE",
"695 -108 CURVE SMOOTH",
"692 -117 OFFCURVE",
"682 -127 OFFCURVE",
"677 -137 CURVE",
"670 -144 LINE",
"677 -143 LINE",
"684 -137 OFFCURVE",
"697 -114 OFFCURVE",
"703 -106 CURVE",
"707 -92 LINE SMOOTH",
"710 -80 OFFCURVE",
"710 -72 OFFCURVE",
"709 -63 CURVE SMOOTH"
);
}
);
width = 725;
}
);
note = E;
unicode = 0045;
},
{
color = 3;
glyphname = F;
lastChange = "2021-07-28 11:24:51 +0000";
layers = (
{
layerId = "E8487A59-2E36-4739-8DF2-414A9818920F";
paths = (
{
closed = 1;
nodes = (
"1334 513 OFFCURVE",
"1329 504 OFFCURVE",
"1322 499 CURVE SMOOTH",
"1287 475 OFFCURVE",
"1212 465 OFFCURVE",
"1170 465 CURVE SMOOTH",
"1165 465 OFFCURVE",
"1158 468 OFFCURVE",
"1154 465 CURVE",
"1134 469 OFFCURVE",
"1114 475 OFFCURVE",
"1093 475 CURVE SMOOTH",
"1089 475 OFFCURVE",
"1083 474 OFFCURVE",
"1079 472 CURVE",
"1079 471 LINE",
"1075 472 OFFCURVE",
"1077 477 OFFCURVE",
"1067 478 CURVE SMOOTH",
"1056 480 OFFCURVE",
"1046 485 OFFCURVE",
"1036 485 CURVE SMOOTH",
"1033 485 OFFCURVE",
"1031 485 OFFCURVE",
"1029 484 CURVE",
"1028 484 LINE",
"1029 489 LINE",
"1022 490 OFFCURVE",
"1015 492 OFFCURVE",
"1008 494 CURVE",
"1005 489 LINE",
"1004 487 LINE",
"1003 488 LINE",
"998 489 OFFCURVE",
"997 494 OFFCURVE",
"992 494 CURVE SMOOTH",
"991 494 OFFCURVE",
"990 494 OFFCURVE",
"989 493 CURVE",
"989 494 OFFCURVE",
"988 493 OFFCURVE",
"988 493 CURVE",
"984 494 OFFCURVE",
"982 498 OFFCURVE",
"978 499 CURVE",
"977 494 LINE",
"976 495 OFFCURVE",
"976 495 OFFCURVE",
"975 494 CURVE",
"974 499 LINE",
"971 499 LINE SMOOTH",
"967 499 OFFCURVE",
"962 498 OFFCURVE",
"960 503 CURVE",
"954 500 LINE",
"954 504 LINE",
"950 505 LINE",
"948 500 LINE",
"941 501 OFFCURVE",
"931 503 OFFCURVE",
"929 511 CURVE",
"934 527 OFFCURVE",
"942 548 OFFCURVE",
"942 565 CURVE SMOOTH",
"942 604 OFFCURVE",
"886 596 OFFCURVE",
"860 600 CURVE",
"857 599 LINE SMOOTH",
"856 599 OFFCURVE",
"856 598 OFFCURVE",
"856 598 CURVE",
"856 588 OFFCURVE",
"866 583 OFFCURVE",
"866 570 CURVE SMOOTH",
"866 554 OFFCURVE",
"857 528 OFFCURVE",
"848 515 CURVE",
"848 514 LINE",
"839 516 LINE",
"836 522 LINE",
"832 523 LINE",
"832 521 OFFCURVE",
"830 520 OFFCURVE",
"828 520 CURVE SMOOTH",
"822 520 OFFCURVE",
"799 526 OFFCURVE",
"794 529 CURVE",
"791 527 LINE",
"791 526 LINE",
"778 529 OFFCURVE",
"765 537 OFFCURVE",
"751 537 CURVE SMOOTH",
"749 537 OFFCURVE",
"746 536 OFFCURVE",
"745 536 CURVE",
"746 539 OFFCURVE",
"725 541 OFFCURVE",
"720 543 CURVE",
"718 543 OFFCURVE",
"716 541 OFFCURVE",
"716 542 CURVE SMOOTH",
"716 546 OFFCURVE",
"698 549 OFFCURVE",
"695 549 CURVE SMOOTH",
"666 549 OFFCURVE",
"633 557 OFFCURVE",
"606 563 CURVE",
"604 559 LINE",
"596 561 OFFCURVE",
"589 564 OFFCURVE",
"581 564 CURVE SMOOTH",
"579 564 OFFCURVE",
"576 564 OFFCURVE",
"575 562 CURVE",
"571 564 OFFCURVE",
"565 566 OFFCURVE",
"561 566 CURVE SMOOTH",
"558 566 OFFCURVE",
"556 565 OFFCURVE",
"554 563 CURVE",
"546 564 OFFCURVE",
"533 569 OFFCURVE",
"525 566 CURVE",
"519 567 OFFCURVE",
"513 568 OFFCURVE",
"507 568 CURVE SMOOTH",
"502 568 OFFCURVE",
"497 567 OFFCURVE",
"493 565 CURVE",
"486 567 OFFCURVE",
"477 569 OFFCURVE",
"471 565 CURVE SMOOTH",
"470 564 LINE",
"447 567 OFFCURVE",
"307 548 OFFCURVE",
"297 532 CURVE",
"295 532 LINE SMOOTH",
"268 535 OFFCURVE",
"203 494 OFFCURVE",
"181 486 CURVE",
"180 484 OFFCURVE",
"149 464 OFFCURVE",
"146 462 CURVE SMOOTH",
"129 449 OFFCURVE",
"111 438 OFFCURVE",
"96 423 CURVE SMOOTH",
"47 371 OFFCURVE",
"0 289 OFFCURVE",
"0 216 CURVE SMOOTH",
"0 203 OFFCURVE",
"1 183 OFFCURVE",
"13 175 CURVE",
"16 178 LINE",
"24 178 OFFCURVE",
"24 166 OFFCURVE",
"30 163 CURVE",
"32 163 OFFCURVE",
"32 164 OFFCURVE",
"32 165 CURVE SMOOTH",
"32 174 OFFCURVE",
"24 196 OFFCURVE",
"24 213 CURVE SMOOTH",
"24 368 OFFCURVE",
"175 490 OFFCURVE",
"316 516 CURVE",
"318 526 OFFCURVE",
"386 524 OFFCURVE",
"397 537 CURVE",
"403 536 OFFCURVE",
"410 537 OFFCURVE",
"416 537 CURVE",
"418 542 OFFCURVE",
"453 544 OFFCURVE",
"459 543 CURVE SMOOTH",
"462 543 LINE",
"463 547 LINE",
"468 546 OFFCURVE",
"473 545 OFFCURVE",
"478 545 CURVE SMOOTH",
"481 545 OFFCURVE",
"484 546 OFFCURVE",
"487 548 CURVE",
"494 547 OFFCURVE",
"501 545 OFFCURVE",
"509 545 CURVE SMOOTH",
"524 545 OFFCURVE",
"541 538 OFFCURVE",
"557 538 CURVE SMOOTH",
"569 538 OFFCURVE",
"573 538 OFFCURVE",
"584 536 CURVE",
"586 541 LINE",
"587 540 LINE",
"590 539 OFFCURVE",
"592 539 OFFCURVE",
"594 540 CURVE",
"595 535 LINE",
"604 534 OFFCURVE",
"612 532 OFFCURVE",
"620 532 CURVE SMOOTH",
"625 532 OFFCURVE",
"631 533 OFFCURVE",
"635 535 CURVE",
"636 536 LINE",
"637 536 LINE",
"636 530 LINE",
"644 530 LINE",
"647 532 LINE",
"653 528 LINE",
"655 528 OFFCURVE",
"657 527 OFFCURVE",
"658 526 CURVE",
"660 532 LINE",
"664 531 LINE",
"662 523 LINE",
"666 523 OFFCURVE",
"671 526 OFFCURVE",
"673 529 CURVE",
"680 527 OFFCURVE",
"687 517 OFFCURVE",
"695 517 CURVE SMOOTH",
"697 517 OFFCURVE",
"699 518 OFFCURVE",
"700 519 CURVE",
"711 514 OFFCURVE",
"721 514 OFFCURVE",
"733 512 CURVE",
"741 506 LINE",
"744 512 LINE",
"754 508 LINE",
"754 507 LINE",
"751 508 LINE",
"750 504 LINE",
"766 498 LINE",
"767 501 OFFCURVE",
"765 504 OFFCURVE",
"763 506 CURVE",
"763 507 LINE",
"774 504 OFFCURVE",
"784 490 OFFCURVE",
"797 490 CURVE SMOOTH",
"799 490 OFFCURVE",
"802 491 OFFCURVE",
"803 492 CURVE",
"804 492 LINE",
"804 487 OFFCURVE",
"829 482 OFFCURVE",
"833 481 CURVE",
"832 475 OFFCURVE",
"827 471 OFFCURVE",
"827 465 CURVE",
"824 459 OFFCURVE",
"818 448 OFFCURVE",
"813 445 CURVE",
"812 439 OFFCURVE",
"807 432 OFFCURVE",
"801 428 CURVE",
"801 426 OFFCURVE",
"802 422 OFFCURVE",
"801 420 CURVE",
"796 419 LINE",
"795 412 OFFCURVE",
"783 391 OFFCURVE",
"777 387 CURVE",
"777 375 LINE",
"769 373 LINE",
"769 365 LINE",
"760 364 LINE",
"763 356 LINE",
"763 351 LINE",
"762 350 LINE",
"761 350 LINE",
"760 354 LINE",
"757 355 OFFCURVE",
"754 353 OFFCURVE",
"754 349 CURVE SMOOTH",
"754 347 OFFCURVE",
"756 345 OFFCURVE",
"756 344 CURVE",
"749 345 OFFCURVE",
"738 327 OFFCURVE",
"738 321 CURVE",
"734 314 OFFCURVE",
"730 306 OFFCURVE",
"725 300 CURVE",
"725 298 LINE",
"724 298 LINE",
"724 300 OFFCURVE",
"721 298 OFFCURVE",
"719 298 CURVE",
"719 291 LINE",
"712 286 OFFCURVE",
"698 264 OFFCURVE",
"693 256 CURVE",
"690 258 LINE",
"690 252 LINE",
"679 253 LINE",
"677 248 LINE",
"676 250 OFFCURVE",
"674 252 OFFCURVE",
"671 252 CURVE SMOOTH",
"670 252 OFFCURVE",
"669 251 OFFCURVE",
"669 250 CURVE",
"666 251 OFFCURVE",
"663 250 OFFCURVE",
"662 247 CURVE",
"658 247 OFFCURVE",
"654 250 OFFCURVE",
"650 250 CURVE SMOOTH",
"649 250 OFFCURVE",
"648 250 OFFCURVE",
"648 249 CURVE",
"637 251 OFFCURVE",
"607 244 OFFCURVE",
"597 240 CURVE",
"577 239 LINE",
"576 239 LINE",
"576 237 OFFCURVE",
"577 235 OFFCURVE",
"576 233 CURVE",
"564 235 OFFCURVE",
"564 232 OFFCURVE",
"553 229 CURVE",
"546 230 OFFCURVE",
"480 209 OFFCURVE",
"474 204 CURVE",
"467 205 OFFCURVE",
"432 191 OFFCURVE",
"426 185 CURVE",
"426 184 LINE",
"417 185 OFFCURVE",
"410 180 OFFCURVE",
"402 180 CURVE",
"400 174 OFFCURVE",
"353 144 OFFCURVE",
"346 141 CURVE",
"344 137 OFFCURVE",
"328 116 OFFCURVE",
"324 113 CURVE",
"324 107 LINE SMOOTH",
"323 93 OFFCURVE",
"332 70 OFFCURVE",
"349 70 CURVE SMOOTH",
"357 70 OFFCURVE",
"363 74 OFFCURVE",
"367 80 CURVE",
"362 79 OFFCURVE",
"355 81 OFFCURVE",
"351 83 CURVE",
"351 85 LINE",
"358 92 OFFCURVE",
"390 123 OFFCURVE",
"402 123 CURVE",
"410 129 LINE",
"413 134 OFFCURVE",
"421 135 OFFCURVE",
"427 136 CURVE",
"429 146 OFFCURVE",
"498 162 OFFCURVE",
"510 176 CURVE",
"515 173 LINE",
"517 177 LINE",
"523 176 LINE",
"524 182 LINE",
"536 188 LINE",
"546 186 OFFCURVE",
"557 190 OFFCURVE",
"563 198 CURVE",
"564 198 LINE",
"564 194 LINE",
"566 194 LINE SMOOTH",
"573 194 OFFCURVE",
"584 197 OFFCURVE",
"586 204 CURVE",
"588 204 LINE",
"587 198 LINE",
"606 208 OFFCURVE",
"638 215 OFFCURVE",
"659 215 CURVE",
"659 214 LINE",
"651 204 OFFCURVE",
"639 192 OFFCURVE",
"633 180 CURVE",
"624 182 OFFCURVE",
"622 174 OFFCURVE",
"621 167 CURVE",
"616 167 LINE",
"616 166 LINE",
"615 167 LINE",
"614 159 LINE",
"608 159 OFFCURVE",
"588 136 OFFCURVE",
"579 134 CURVE",
"581 126 LINE",
"572 128 OFFCURVE",
"568 114 OFFCURVE",
"562 110 CURVE SMOOTH",
"561 109 LINE",
"557 110 LINE",
"543 96 OFFCURVE",
"521 83 OFFCURVE",
"509 68 CURVE",
"504 68 LINE",
"502 55 OFFCURVE",
"483 55 OFFCURVE",
"478 43 CURVE",
"468 45 OFFCURVE",
"455 34 OFFCURVE",
"448 27 CURVE",
"446 27 LINE SMOOTH",
"440 26 OFFCURVE",
"437 21 OFFCURVE",
"435 16 CURVE",
"426 17 LINE",
"425 10 OFFCURVE",
"388 -3 OFFCURVE",
"380 -6 CURVE",
"377 -12 LINE",
"361 -13 LINE",
"359 -18 LINE",
"355 -20 LINE",
"347 -19 OFFCURVE",
"311 -33 OFFCURVE",
"306 -38 CURVE",
"302 -39 OFFCURVE",
"295 -40 OFFCURVE",
"292 -42 CURVE SMOOTH",
"291 -43 LINE",
"266 -41 OFFCURVE",
"240 -51 OFFCURVE",
"214 -51 CURVE SMOOTH",
"150 -51 OFFCURVE",
"105 -18 OFFCURVE",
"105 50 CURVE SMOOTH",
"105 131 OFFCURVE",
"179 162 OFFCURVE",
"186 180 CURVE",
"184 180 LINE SMOOTH",
"174 180 OFFCURVE",
"164 171 OFFCURVE",
"156 165 CURVE SMOOTH",
"118 139 OFFCURVE",
"87 96 OFFCURVE",
"87 48 CURVE SMOOTH",
"87 -41 OFFCURVE",
"154 -73 OFFCURVE",
"231 -73 CURVE SMOOTH",
"291 -73 OFFCURVE",
"350 -47 OFFCURVE",
"404 -22 CURVE SMOOTH",
"419 -15 OFFCURVE",
"443 9 OFFCURVE",
"456 9 CURVE",
"456 10 OFFCURVE",
"458 11 OFFCURVE",
"458 11 CURVE",
"463 20 OFFCURVE",
"481 21 OFFCURVE",
"490 28 CURVE",
"499 45 OFFCURVE",
"556 70 OFFCURVE",
"557 76 CURVE SMOOTH",
"557 77 LINE",
"558 77 LINE SMOOTH",
"573 79 OFFCURVE",
"644 132 OFFCURVE",
"644 143 CURVE SMOOTH",
"644 144 LINE",
"647 145 LINE",
"649 147 LINE",
"653 155 OFFCURVE",
"664 168 OFFCURVE",
"674 168 CURVE",
"671 173 LINE",
"672 176 LINE",
"688 173 OFFCURVE",
"694 186 OFFCURVE",
"698 198 CURVE SMOOTH",
"699 200 OFFCURVE",
"712 198 OFFCURVE",
"712 202 CURVE SMOOTH",
"712 204 OFFCURVE",
"710 205 OFFCURVE",
"709 206 CURVE",
"709 208 LINE",
"714 212 OFFCURVE",
"728 224 OFFCURVE",
"730 228 CURVE",
"752 225 OFFCURVE",
"833 242 OFFCURVE",
"867 242 CURVE SMOOTH",
"878 242 OFFCURVE",
"889 241 OFFCURVE",
"899 240 CURVE",
"900 251 LINE SMOOTH",
"900 252 OFFCURVE",
"899 252 OFFCURVE",
"899 252 CURVE",
"898 252 OFFCURVE",
"895 252 OFFCURVE",
"893 251 CURVE",
"875 253 OFFCURVE",
"855 259 OFFCURVE",
"836 259 CURVE SMOOTH",
"813 259 OFFCURVE",
"790 260 OFFCURVE",
"768 260 CURVE SMOOTH",
"763 260 OFFCURVE",
"759 259 OFFCURVE",
"755 259 CURVE",
"758 275 OFFCURVE",
"785 289 OFFCURVE",
"788 305 CURVE",
"793 304 OFFCURVE",
"796 310 OFFCURVE",
"796 314 CURVE SMOOTH",
"796 316 LINE",
"797 316 LINE",
"800 317 LINE SMOOTH",
"811 319 OFFCURVE",
"839 354 OFFCURVE",
"841 366 CURVE",
"851 364 OFFCURVE",
"898 458 OFFCURVE",
"906 465 CURVE",
"904 458 OFFCURVE",
"928 457 OFFCURVE",
"932 457 CURVE SMOOTH",
"936 458 LINE",
"941 457 OFFCURVE",
"949 454 OFFCURVE",
"952 451 CURVE",
"953 451 LINE",
"955 450 LINE",
"999 444 OFFCURVE",
"1041 426 OFFCURVE",
"1086 426 CURVE SMOOTH",
"1088 426 OFFCURVE",
"1090 426 OFFCURVE",
"1092 427 CURVE",
"1094 426 LINE",
"1094 424 OFFCURVE",
"1102 423 OFFCURVE",
"1104 423 CURVE SMOOTH",
"1113 422 OFFCURVE",
"1124 423 OFFCURVE",
"1134 421 CURVE SMOOTH",
"1142 419 OFFCURVE",
"1151 419 OFFCURVE",
"1160 419 CURVE SMOOTH",
"1215 419 OFFCURVE",
"1327 452 OFFCURVE",
"1343 513 CURVE"
);
}
);
width = 829;
}
);
note = F;
unicode = 0046;
},
{
color = 3;
glyphname = G;
lastChange = "2021-07-28 12:13:30 +0000";
layers = (
{
anchors = (
{
name = bottom;
position = "{86, -35}";
},
{
name = top;
position = "{607, 600}";
}
);
layerId = "E8487A59-2E36-4739-8DF2-414A9818920F";
paths = (
{
closed = 1;
nodes = (
"433 224 OFFCURVE",
"432 224 OFFCURVE",
"431 225 CURVE",
"432 225 OFFCURVE",
"433 225 OFFCURVE",
"434 226 CURVE",
"434 224 LINE",
"437 226 OFFCURVE",
"443 228 OFFCURVE",
"443 228 CURVE",
"452 230 LINE",
"452 230 OFFCURVE",
"476 229 OFFCURVE",
"487 229 CURVE",
"487 231 OFFCURVE",
"487 233 OFFCURVE",
"489 234 CURVE",
"497 235 OFFCURVE",
"508 237 OFFCURVE",
"512 237 CURVE SMOOTH",
"515 237 OFFCURVE",
"517 234 OFFCURVE",
"520 234 CURVE",
"520 235 OFFCURVE",
"520 236 OFFCURVE",
"521 237 CURVE",
"529 237 OFFCURVE",
"540 240 OFFCURVE",
"543 240 CURVE SMOOTH",
"547 240 OFFCURVE",
"547 238 OFFCURVE",
"550 238 CURVE SMOOTH",
"554 238 OFFCURVE",
"579 242 OFFCURVE",
"593 245 CURVE",
"593 246 OFFCURVE",
"591 248 OFFCURVE",
"591 248 CURVE",
"585 247 OFFCURVE",
"578 247 OFFCURVE",
"574 245 CURVE",
"572 246 OFFCURVE",
"571 248 OFFCURVE",
"571 249 CURVE",
"569 248 OFFCURVE",
"568 247 OFFCURVE",
"564 247 CURVE SMOOTH",
"560 247 OFFCURVE",
"527 248 OFFCURVE",
"523 248 CURVE SMOOTH",
"519 248 OFFCURVE",
"518 250 OFFCURVE",
"516 250 CURVE SMOOTH",
"504 251 OFFCURVE",
"485 252 OFFCURVE",
"472 252 CURVE SMOOTH",
"466 252 OFFCURVE",
"456 254 OFFCURVE",
"452 254 CURVE SMOOTH",
"449 254 OFFCURVE",
"432 251 OFFCURVE",
"429 251 CURVE SMOOTH",
"425 251 LINE SMOOTH",
"421 251 OFFCURVE",
"406 253 OFFCURVE",
"402 253 CURVE SMOOTH",
"398 253 OFFCURVE",
"384 249 OFFCURVE",
"380 249 CURVE",
"381 251 LINE",
"349 248 LINE",
"315 248 LINE SMOOTH",
"311 248 OFFCURVE",
"263 244 OFFCURVE",
"260 244 CURVE SMOOTH",
"256 244 OFFCURVE",
"255 245 OFFCURVE",
"252 246 CURVE",
"250 218 LINE",
"253 211 OFFCURVE",
"257 205 OFFCURVE",
"263 199 CURVE",
"266 198 OFFCURVE",
"297 196 OFFCURVE",
"302 196 CURVE SMOOTH",
"306 196 LINE SMOOTH",
"310 196 OFFCURVE",
"314 203 OFFCURVE",
"318 203 CURVE SMOOTH",
"322 203 OFFCURVE",
"318 200 OFFCURVE",
"322 202 CURVE SMOOTH",
"346 216 LINE",
"374 216 LINE SMOOTH",
"379 216 OFFCURVE",
"383 219 OFFCURVE",
"386 220 CURVE SMOOTH",
"396 222 OFFCURVE",
"421 226 OFFCURVE",
"424 226 CURVE SMOOTH",
"427 226 OFFCURVE",
"429 225 OFFCURVE",
"431 225 CURVE",
"425 221 OFFCURVE",
"416 210 OFFCURVE",
"411 206 CURVE",
"408 206 OFFCURVE",
"405 199 OFFCURVE",
"404 197 CURVE",
"400 196 OFFCURVE",
"263 59 OFFCURVE",
"255 54 CURVE",
"254 54 LINE",
"253 55 LINE",
"253 54 LINE",
"246 48 OFFCURVE",
"251 53 OFFCURVE",
"245 50 CURVE SMOOTH",
"240 47 OFFCURVE",
"236 43 OFFCURVE",
"232 40 CURVE SMOOTH",
"221 32 OFFCURVE",
"210 26 OFFCURVE",
"199 18 CURVE SMOOTH",
"168 -4 OFFCURVE",
"137 -23 OFFCURVE",
"97 -23 CURVE SMOOTH",
"79 -23 OFFCURVE",
"66 -22 OFFCURVE",
"66 1 CURVE SMOOTH",
"66 11 OFFCURVE",
"69 21 OFFCURVE",
"72 31 CURVE SMOOTH",
"99 119 OFFCURVE",
"144 173 OFFCURVE",
"199 242 CURVE SMOOTH",
"208 253 OFFCURVE",
"221 274 OFFCURVE",
"234 281 CURVE",
"236 292 OFFCURVE",
"354 396 OFFCURVE",
"371 405 CURVE",
"371 405 OFFCURVE",
"404 432 OFFCURVE",
"407 433 CURVE",
"433 447 LINE",
"438 451 OFFCURVE",
"444 456 OFFCURVE",
"449 459 CURVE SMOOTH",
"472 475 OFFCURVE",
"496 488 OFFCURVE",
"520 501 CURVE SMOOTH",
"528 506 OFFCURVE",
"561 521 OFFCURVE",
"565 526 CURVE",
"575 526 OFFCURVE",
"582 537 OFFCURVE",
"592 537 CURVE",
"593 540 LINE",
"607 540 OFFCURVE",
"620 556 OFFCURVE",
"645 556 CURVE SMOOTH",
"656 556 OFFCURVE",
"675 550 OFFCURVE",
"675 537 CURVE SMOOTH",
"675 509 OFFCURVE",
"587 443 OFFCURVE",
"563 426 CURVE SMOOTH",
"532 405 OFFCURVE",
"503 380 OFFCURVE",
"471 360 CURVE",
"470 358 LINE",
"471 358 LINE SMOOTH",
"473 358 OFFCURVE",
"482 364 OFFCURVE",
"484 365 CURVE SMOOTH",
"490 368 OFFCURVE",
"496 366 OFFCURVE",
"500 371 CURVE",
"503 370 LINE",
"504 370 LINE",
"505 374 OFFCURVE",
"510 375 OFFCURVE",
"512 378 CURVE",
"516 378 OFFCURVE",
"519 380 OFFCURVE",
"521 383 CURVE",
"527 383 OFFCURVE",
"532 388 OFFCURVE",
"539 389 CURVE",
"539 390 LINE",
"540 391 OFFCURVE",
"543 396 OFFCURVE",
"545 397 CURVE",
"546 397 OFFCURVE",
"548 397 OFFCURVE",
"549 398 CURVE",
"559 401 OFFCURVE",
"574 414 OFFCURVE",
"583 421 CURVE",
"583 423 LINE",
"598 423 OFFCURVE",
"628 440 OFFCURVE",
"636 453 CURVE",
"653 462 OFFCURVE",
"665 474 OFFCURVE",
"680 484 CURVE SMOOTH",
"694 492 OFFCURVE",
"710 505 OFFCURVE",
"710 523 CURVE SMOOTH",
"710 545 OFFCURVE",
"665 572 OFFCURVE",
"649 587 CURVE SMOOTH",
"638 598 OFFCURVE",
"629 603 OFFCURVE",
"613 603 CURVE SMOOTH",
"594 603 OFFCURVE",
"565 591 OFFCURVE",
"546 584 CURVE SMOOTH",
"523 576 OFFCURVE",
"500 568 OFFCURVE",
"479 557 CURVE SMOOTH",
"460 547 OFFCURVE",
"439 540 OFFCURVE",
"421 529 CURVE SMOOTH",
"394 512 OFFCURVE",
"368 494 OFFCURVE",
"341 476 CURVE SMOOTH",
"334 472 OFFCURVE",
"327 468 OFFCURVE",
"320 463 CURVE SMOOTH",
"293 445 OFFCURVE",
"270 419 OFFCURVE",
"246 396 CURVE SMOOTH",
"232 384 OFFCURVE",
"219 371 OFFCURVE",
"206 359 CURVE SMOOTH",
"201 354 OFFCURVE",
"195 350 OFFCURVE",
"189 345 CURVE",
"167 322 OFFCURVE",
"149 296 OFFCURVE",
"128 272 CURVE",
"127 267 LINE",
"130 268 LINE",
"130 259 OFFCURVE",
"119 260 OFFCURVE",
"114 256 CURVE SMOOTH",
"108 250 OFFCURVE",
"108 242 OFFCURVE",
"104 236 CURVE SMOOTH",
"101 231 OFFCURVE",
"95 230 OFFCURVE",
"91 226 CURVE SMOOTH",
"84 217 OFFCURVE",
"78 198 OFFCURVE",
"68 191 CURVE",
"68 184 LINE",
"65 177 OFFCURVE",
"56 170 OFFCURVE",
"56 161 CURVE SMOOTH",
"56 159 OFFCURVE",
"57 157 OFFCURVE",
"58 155 CURVE",
"60 157 OFFCURVE",
"60 160 OFFCURVE",
"61 162 CURVE",
"63 162 LINE",
"63 162 OFFCURVE",
"63 161 OFFCURVE",
"64 161 CURVE",
"63 155 OFFCURVE",
"44 130 OFFCURVE",
"39 126 CURVE",
"39 135 OFFCURVE",
"46 142 OFFCURVE",
"48 151 CURVE",
"47 151 LINE",
"46 147 OFFCURVE",
"37 134 OFFCURVE",
"35 129 CURVE SMOOTH",
"24 107 OFFCURVE",
"13 74 OFFCURVE",
"13 49 CURVE SMOOTH",
"13 25 OFFCURVE",
"20 21 OFFCURVE",
"33 3 CURVE SMOOTH",
"37 -2 OFFCURVE",
"40 -8 OFFCURVE",
"45 -12 CURVE SMOOTH",
"54 -20 OFFCURVE",
"70 -25 OFFCURVE",
"73 -39 CURVE",
"78 -39 OFFCURVE",
"90 -58 OFFCURVE",
"112 -58 CURVE SMOOTH",
"131 -58 OFFCURVE",
"212 -5 OFFCURVE",
"227 10 CURVE SMOOTH",
"234 16 OFFCURVE",
"271 51 OFFCURVE",
"275 52 CURVE",
"275 53 OFFCURVE",
"421 171 OFFCURVE",
"434 224 CURVE"
);
}
);
width = 494;
}
);
note = G;
unicode = 0047;
},
{
color = 3;
glyphname = H;
lastChange = "2021-07-28 11:38:49 +0000";
layers = (
{
anchors = (
{
name = bottom;
position = "{682, 0}";
},
{
name = center;
position = "{540, 300}";
},
{
name = top;
position = "{1056, 600}";
},
{
name = topleft;
position = "{20, 600}";
}
);
layerId = "E8487A59-2E36-4739-8DF2-414A9818920F";
paths = (
{
closed = 1;
nodes = (
"1306 545 OFFCURVE",
"1277 572 OFFCURVE",
"1268 587 CURVE SMOOTH",
"1261 598 OFFCURVE",
"1255 603 OFFCURVE",
"1245 603 CURVE SMOOTH",
"1233 603 OFFCURVE",
"1214 591 OFFCURVE",
"1202 584 CURVE SMOOTH",
"1187 576 OFFCURVE",
"1173 568 OFFCURVE",
"1159 557 CURVE SMOOTH",
"1147 547 OFFCURVE",
"1134 540 OFFCURVE",
"1123 529 CURVE SMOOTH",
"1105 512 OFFCURVE",
"1088 494 OFFCURVE",
"1071 476 CURVE SMOOTH",
"1067 472 OFFCURVE",
"1062 468 OFFCURVE",
"1058 463 CURVE SMOOTH",
"1041 445 OFFCURVE",
"1027 418 OFFCURVE",
"1011 396 CURVE SMOOTH",
"985 359 LINE",
"975 345 LINE SMOOTH",
"959 323 OFFCURVE",
"949 296 OFFCURVE",
"936 272 CURVE",
"935 267 LINE",
"937 268 LINE",
"937 266 OFFCURVE",
"937 264 OFFCURVE",
"936 263 CURVE",
"869 265 OFFCURVE",
"797 263 OFFCURVE",
"781 263 CURVE SMOOTH",
"776 263 OFFCURVE",
"772 262 OFFCURVE",
"768 262 CURVE",
"771 278 OFFCURVE",
"797 289 OFFCURVE",
"800 305 CURVE",
"805 304 OFFCURVE",
"808 310 OFFCURVE",
"808 314 CURVE SMOOTH",
"808 316 LINE",
"809 316 LINE",
"812 317 LINE SMOOTH",
"823 321 OFFCURVE",
"851 354 OFFCURVE",
"853 366 CURVE",
"863 364 OFFCURVE",
"910 458 OFFCURVE",
"917 465 CURVE",
"910 426 OFFCURVE",
"1000 491 OFFCURVE",
"941 511 CURVE",
"946 527 OFFCURVE",
"954 548 OFFCURVE",
"954 565 CURVE SMOOTH",
"954 604 OFFCURVE",
"898 596 OFFCURVE",
"872 600 CURVE",
"869 599 LINE SMOOTH",
"868 599 OFFCURVE",
"868 598 OFFCURVE",
"868 598 CURVE",
"868 588 OFFCURVE",
"878 583 OFFCURVE",
"878 570 CURVE SMOOTH",
"878 554 OFFCURVE",
"869 548 OFFCURVE",
"860 535 CURVE",
"860 534 LINE",
"851 536 LINE",
"848 542 LINE",
"844 543 LINE",
"844 541 OFFCURVE",
"842 540 OFFCURVE",
"840 540 CURVE SMOOTH",
"834 540 OFFCURVE",
"811 546 OFFCURVE",
"806 549 CURVE",
"803 547 LINE",
"803 546 LINE",
"789 549 OFFCURVE",
"776 557 OFFCURVE",
"763 557 CURVE SMOOTH",
"761 557 OFFCURVE",
"758 556 OFFCURVE",
"757 556 CURVE",
"757 559 OFFCURVE",
"737 561 OFFCURVE",
"732 563 CURVE",
"730 563 OFFCURVE",
"728 561 OFFCURVE",
"728 562 CURVE SMOOTH",
"728 566 OFFCURVE",
"710 569 OFFCURVE",
"707 569 CURVE SMOOTH",
"678 569 OFFCURVE",
"645 577 OFFCURVE",
"617 583 CURVE",
"616 579 LINE",
"608 581 OFFCURVE",
"601 584 OFFCURVE",
"593 584 CURVE SMOOTH",
"591 584 OFFCURVE",
"588 584 OFFCURVE",
"587 582 CURVE",
"583 584 OFFCURVE",
"577 586 OFFCURVE",
"573 586 CURVE SMOOTH",
"570 586 OFFCURVE",
"568 585 OFFCURVE",
"566 583 CURVE",
"558 584 OFFCURVE",
"545 589 OFFCURVE",
"537 586 CURVE",
"531 587 OFFCURVE",
"524 588 OFFCURVE",
"519 588 CURVE SMOOTH",
"514 588 OFFCURVE",
"509 587 OFFCURVE",
"505 585 CURVE",
"498 587 OFFCURVE",
"488 590 OFFCURVE",
"483 585 CURVE SMOOTH",
"482 584 LINE",
"459 587 OFFCURVE",
"319 568 OFFCURVE",
"309 552 CURVE",
"307 552 LINE SMOOTH",
"280 552 OFFCURVE",
"215 514 OFFCURVE",
"193 506 CURVE",
"192 504 OFFCURVE",
"161 484 OFFCURVE",
"158 482 CURVE SMOOTH",
"141 469 OFFCURVE",
"123 458 OFFCURVE",
"108 443 CURVE SMOOTH",
"59 391 OFFCURVE",
"11 309 OFFCURVE",
"11 236 CURVE SMOOTH",
"11 223 OFFCURVE",
"13 203 OFFCURVE",
"25 195 CURVE",
"28 198 LINE",
"36 198 OFFCURVE",
"36 186 OFFCURVE",
"42 183 CURVE",
"44 183 OFFCURVE",
"44 184 OFFCURVE",
"44 185 CURVE SMOOTH",
"44 194 OFFCURVE",
"35 216 OFFCURVE",
"35 233 CURVE SMOOTH",
"35 388 OFFCURVE",
"187 510 OFFCURVE",
"328 536 CURVE",
"330 546 OFFCURVE",
"398 544 OFFCURVE",
"409 557 CURVE",
"415 556 OFFCURVE",
"422 557 OFFCURVE",
"428 557 CURVE",
"430 562 OFFCURVE",
"465 563 OFFCURVE",
"471 563 CURVE SMOOTH",
"474 563 LINE",
"475 567 LINE",
"480 566 OFFCURVE",
"485 565 OFFCURVE",
"490 565 CURVE SMOOTH",
"493 565 OFFCURVE",
"496 566 OFFCURVE",
"499 568 CURVE",
"506 567 OFFCURVE",
"513 565 OFFCURVE",
"521 565 CURVE SMOOTH",
"536 565 OFFCURVE",
"553 558 OFFCURVE",
"569 558 CURVE SMOOTH",
"581 558 OFFCURVE",
"585 558 OFFCURVE",
"596 556 CURVE",
"598 561 LINE",
"599 560 LINE",
"602 559 OFFCURVE",
"604 559 OFFCURVE",
"606 560 CURVE",
"607 555 LINE",
"616 554 OFFCURVE",
"624 552 OFFCURVE",
"632 552 CURVE SMOOTH",
"637 552 OFFCURVE",
"643 553 OFFCURVE",
"647 555 CURVE",
"648 556 LINE",
"649 556 LINE",
"648 550 LINE",
"656 550 LINE",
"658 552 LINE",
"665 548 LINE",
"667 548 OFFCURVE",
"669 547 OFFCURVE",
"670 546 CURVE",
"671 552 LINE",
"675 551 LINE",
"674 543 LINE",
"678 543 OFFCURVE",
"683 546 OFFCURVE",
"685 549 CURVE",
"692 547 OFFCURVE",
"699 537 OFFCURVE",
"707 537 CURVE SMOOTH",
"709 537 OFFCURVE",
"711 538 OFFCURVE",
"712 539 CURVE",
"723 534 OFFCURVE",
"733 534 OFFCURVE",
"745 532 CURVE",
"753 526 LINE",
"756 532 LINE",
"766 528 LINE",
"766 527 LINE",
"763 528 LINE",
"762 524 LINE",
"778 518 LINE",
"779 521 OFFCURVE",
"777 524 OFFCURVE",
"775 526 CURVE",
"775 527 LINE",
"786 524 OFFCURVE",
"796 510 OFFCURVE",
"809 510 CURVE SMOOTH",
"811 510 OFFCURVE",
"814 511 OFFCURVE",
"815 512 CURVE",
"816 512 LINE",
"816 507 OFFCURVE",
"841 502 OFFCURVE",
"845 501 CURVE",
"844 495 OFFCURVE",
"839 471 OFFCURVE",
"839 465 CURVE",
"836 459 OFFCURVE",
"830 448 OFFCURVE",
"825 445 CURVE",
"824 439 OFFCURVE",
"819 432 OFFCURVE",
"813 428 CURVE",
"813 420 LINE",
"808 419 LINE",
"807 412 OFFCURVE",
"795 391 OFFCURVE",
"789 387 CURVE",
"789 375 LINE",
"781 373 LINE",
"781 365 LINE",
"772 364 LINE",
"775 356 LINE",
"775 351 LINE",
"774 350 LINE",
"773 350 LINE",
"772 354 LINE",
"769 355 OFFCURVE",
"766 353 OFFCURVE",
"766 349 CURVE SMOOTH",
"766 347 OFFCURVE",
"768 345 OFFCURVE",
"768 344 CURVE",
"761 345 OFFCURVE",
"750 327 OFFCURVE",
"750 321 CURVE",
"746 314 OFFCURVE",
"742 306 OFFCURVE",
"737 300 CURVE",
"737 298 LINE",
"736 298 LINE",
"736 300 OFFCURVE",
"733 298 OFFCURVE",
"731 298 CURVE",
"731 291 LINE",
"724 286 OFFCURVE",
"710 264 OFFCURVE",
"705 256 CURVE",
"701 258 LINE",
"702 254 LINE",
"702 252 LINE",
"691 253 LINE",
"689 248 LINE",
"688 250 OFFCURVE",
"686 252 OFFCURVE",
"683 252 CURVE SMOOTH",
"682 252 OFFCURVE",
"681 251 OFFCURVE",
"681 250 CURVE",
"678 251 OFFCURVE",
"675 250 OFFCURVE",
"673 247 CURVE",
"670 247 OFFCURVE",
"666 250 OFFCURVE",
"662 250 CURVE SMOOTH",
"661 250 OFFCURVE",
"660 250 OFFCURVE",
"660 249 CURVE",
"649 251 OFFCURVE",
"619 244 OFFCURVE",
"609 240 CURVE",
"589 239 LINE",
"588 239 LINE",
"588 237 OFFCURVE",
"589 235 OFFCURVE",
"588 233 CURVE",
"576 235 OFFCURVE",
"576 232 OFFCURVE",
"565 229 CURVE",
"558 230 OFFCURVE",
"492 209 OFFCURVE",
"486 204 CURVE",
"479 205 OFFCURVE",
"444 191 OFFCURVE",
"438 185 CURVE",
"438 184 LINE",
"429 185 OFFCURVE",
"422 180 OFFCURVE",
"413 180 CURVE",
"412 174 OFFCURVE",
"365 144 OFFCURVE",
"357 141 CURVE",
"356 137 OFFCURVE",
"340 116 OFFCURVE",
"336 113 CURVE",
"336 107 LINE SMOOTH",
"336 93 OFFCURVE",
"344 70 OFFCURVE",
"361 70 CURVE SMOOTH",
"368 70 OFFCURVE",
"375 74 OFFCURVE",
"378 80 CURVE",
"374 79 OFFCURVE",
"367 81 OFFCURVE",
"363 83 CURVE",
"363 85 LINE",
"370 92 OFFCURVE",
"402 123 OFFCURVE",
"414 123 CURVE",
"421 129 LINE",
"425 134 OFFCURVE",
"433 135 OFFCURVE",
"439 136 CURVE",
"441 146 OFFCURVE",
"510 162 OFFCURVE",
"522 176 CURVE",
"527 173 LINE",
"529 177 LINE",
"535 176 LINE",
"536 182 LINE",
"548 188 LINE",
"558 186 OFFCURVE",
"569 190 OFFCURVE",
"575 198 CURVE",
"576 198 LINE",
"576 194 LINE",
"578 194 LINE SMOOTH",
"585 194 OFFCURVE",
"596 197 OFFCURVE",
"598 204 CURVE",
"600 204 LINE",
"599 198 LINE",
"618 208 OFFCURVE",
"650 215 OFFCURVE",
"671 215 CURVE",
"671 214 LINE",
"663 204 OFFCURVE",
"651 192 OFFCURVE",
"645 180 CURVE",
"636 182 OFFCURVE",
"634 174 OFFCURVE",
"633 167 CURVE",
"628 167 LINE",
"628 166 LINE",
"627 167 LINE",
"626 159 LINE",
"619 159 OFFCURVE",
"600 136 OFFCURVE",
"591 134 CURVE",
"593 126 LINE",
"584 128 OFFCURVE",
"579 115 OFFCURVE",
"574 110 CURVE SMOOTH",
"573 109 LINE",
"569 110 LINE",
"554 96 OFFCURVE",
"533 83 OFFCURVE",
"521 68 CURVE",
"516 68 LINE",
"513 55 OFFCURVE",
"495 55 OFFCURVE",
"490 43 CURVE",
"480 45 OFFCURVE",
"467 34 OFFCURVE",
"460 27 CURVE",
"458 27 LINE SMOOTH",
"452 27 OFFCURVE",
"449 21 OFFCURVE",
"447 16 CURVE",
"438 17 LINE",
"437 10 OFFCURVE",
"400 -3 OFFCURVE",
"392 -6 CURVE",
"389 -12 LINE",
"373 -13 LINE",
"371 -18 LINE",
"367 -20 LINE",
"359 -19 OFFCURVE",
"323 -33 OFFCURVE",
"318 -38 CURVE",
"314 -39 OFFCURVE",
"307 -39 OFFCURVE",
"304 -42 CURVE SMOOTH",
"303 -43 LINE",
"278 -41 OFFCURVE",
"252 -51 OFFCURVE",
"226 -51 CURVE SMOOTH",
"162 -51 OFFCURVE",
"117 -18 OFFCURVE",
"117 50 CURVE SMOOTH",
"117 131 OFFCURVE",
"191 162 OFFCURVE",
"198 180 CURVE",
"196 180 LINE SMOOTH",
"186 180 OFFCURVE",
"176 171 OFFCURVE",
"168 165 CURVE SMOOTH",
"130 139 OFFCURVE",
"98 96 OFFCURVE",
"98 48 CURVE SMOOTH",
"98 -41 OFFCURVE",
"166 -73 OFFCURVE",
"243 -73 CURVE SMOOTH",
"303 -73 OFFCURVE",
"362 -47 OFFCURVE",
"416 -22 CURVE SMOOTH",
"431 -15 OFFCURVE",
"455 9 OFFCURVE",
"468 9 CURVE",
"468 10 OFFCURVE",
"470 11 OFFCURVE",
"470 11 CURVE",
"475 20 OFFCURVE",
"493 21 OFFCURVE",
"501 28 CURVE",
"511 45 OFFCURVE",
"569 70 OFFCURVE",
"569 76 CURVE SMOOTH",
"569 77 LINE",
"570 77 LINE SMOOTH",
"585 77 OFFCURVE",
"656 132 OFFCURVE",
"656 143 CURVE SMOOTH",
"656 144 LINE",
"659 145 LINE",
"661 147 LINE",
"664 155 OFFCURVE",
"676 168 OFFCURVE",
"686 168 CURVE",
"683 173 LINE",
"684 176 LINE",
"700 173 OFFCURVE",
"705 186 OFFCURVE",
"710 198 CURVE SMOOTH",
"711 200 OFFCURVE",
"724 198 OFFCURVE",
"724 202 CURVE SMOOTH",
"724 204 OFFCURVE",
"722 205 OFFCURVE",
"721 206 CURVE",
"721 208 LINE",
"726 212 OFFCURVE",
"740 224 OFFCURVE",
"742 228 CURVE",
"772 230 OFFCURVE",
"852 236 OFFCURVE",
"921 237 CURVE",
"920 236 LINE",
"918 231 OFFCURVE",
"915 230 OFFCURVE",
"912 226 CURVE",
"908 217 OFFCURVE",
"904 198 OFFCURVE",
"898 191 CURVE",
"898 184 LINE",
"896 177 OFFCURVE",
"890 170 OFFCURVE",
"890 161 CURVE SMOOTH",
"890 159 OFFCURVE",
"890 157 OFFCURVE",
"891 155 CURVE",
"892 157 OFFCURVE",
"893 160 OFFCURVE",
"893 162 CURVE",
"894 162 LINE",
"895 161 LINE",
"895 155 OFFCURVE",
"883 130 OFFCURVE",
"879 126 CURVE",
"879 135 OFFCURVE",
"883 142 OFFCURVE",
"885 151 CURVE",
"884 151 LINE",
"884 147 OFFCURVE",
"878 134 OFFCURVE",
"877 129 CURVE SMOOTH",
"870 107 OFFCURVE",
"870 84 OFFCURVE",
"870 64 CURVE SMOOTH",
"870 44 OFFCURVE",
"874 41 OFFCURVE",
"882 27 CURVE SMOOTH",
"884 23 OFFCURVE",
"886 18 OFFCURVE",
"889 15 CURVE SMOOTH",
"895 9 OFFCURVE",
"905 5 OFFCURVE",
"906 -7 CURVE",
"909 -7 OFFCURVE",
"917 -22 OFFCURVE",
"931 -22 CURVE SMOOTH",
"942 -22 OFFCURVE",
"992 21 OFFCURVE",
"1001 33 CURVE SMOOTH",
"1005 37 OFFCURVE",
"1028 65 OFFCURVE",
"1030 66 CURVE",
"1030 67 OFFCURVE",
"1079 119 OFFCURVE",
"1090 135 CURVE",
"1084 137 LINE",
"1081 137 OFFCURVE",
"1074 125 OFFCURVE",
"1070 122 CURVE SMOOTH",
"1068 121 OFFCURVE",
"1058 112 OFFCURVE",
"1057 110 CURVE",
"1053 109 OFFCURVE",
"1023 73 OFFCURVE",
"1012 64 CURVE SMOOTH",
"1009 62 OFFCURVE",
"1006 59 OFFCURVE",
"1004 56 CURVE",
"997 50 OFFCURVE",
"990 45 OFFCURVE",
"984 39 CURVE SMOOTH",
"965 21 OFFCURVE",
"946 6 OFFCURVE",
"921 6 CURVE SMOOTH",
"910 6 OFFCURVE",
"902 6 OFFCURVE",
"902 25 CURVE SMOOTH",
"902 33 OFFCURVE",
"904 41 OFFCURVE",
"906 49 CURVE SMOOTH",
"922 118 OFFCURVE",
"945 171 OFFCURVE",
"978 237 CURVE",
"992 236 OFFCURVE",
"1005 235 OFFCURVE",
"1014 233 CURVE SMOOTH",
"1025 231 OFFCURVE",
"1057 230 OFFCURVE",
"1067 229 CURVE",
"1068 240 LINE SMOOTH",
"1068 241 OFFCURVE",
"1067 241 OFFCURVE",
"1067 241 CURVE",
"1066 241 OFFCURVE",
"1063 241 OFFCURVE",
"1061 240 CURVE",
"1041 253 OFFCURVE",
"1022 255 OFFCURVE",
"1004 258 CURVE",
"999 258 OFFCURVE",
"994 259 OFFCURVE",
"989 259 CURVE",
"994 268 OFFCURVE",
"999 277 OFFCURVE",
"1003 281 CURVE",
"1004 292 OFFCURVE",
"1079 396 OFFCURVE",
"1090 405 CURVE",
"1090 405 OFFCURVE",
"1112 432 OFFCURVE",
"1113 433 CURVE SMOOTH",
"1130 447 LINE",
"1140 459 LINE SMOOTH",
"1154 476 OFFCURVE",
"1170 488 OFFCURVE",
"1185 501 CURVE SMOOTH",
"1191 506 OFFCURVE",
"1211 521 OFFCURVE",
"1214 526 CURVE",
"1221 526 OFFCURVE",
"1224 537 OFFCURVE",
"1231 537 CURVE",
"1232 540 LINE",
"1241 540 OFFCURVE",
"1249 556 OFFCURVE",
"1265 556 CURVE SMOOTH",
"1272 556 OFFCURVE",
"1284 550 OFFCURVE",
"1284 537 CURVE",
"1279 511 OFFCURVE",
"1221 418 OFFCURVE",
"1287 484 CURVE SMOOTH",
"1296 492 OFFCURVE",
"1306 505 OFFCURVE",
"1306 523 CURVE SMOOTH"
);
}
);
width = 1080;
}
);
note = H;
unicode = 0048;
},
{
color = 3;
glyphname = I;
lastChange = "2021-07-28 12:13:42 +0000";
layers = (
{
anchors = (
{
name = bottom;
position = "{176, 0}";
},
{
name = ogonek;
position = "{163, 0}";
},
{
name = top;
position = "{662, 600}";
},
{
name = topleft;
position = "{20, 600}";
}
);
layerId = "E8487A59-2E36-4739-8DF2-414A9818920F";
paths = (
{
closed = 1;
nodes = (
"767 574 OFFCURVE",
"721 578 OFFCURVE",
"720 578 CURVE",
"721 580 OFFCURVE",
"699 581 OFFCURVE",
"682 581 CURVE",
"683 600 OFFCURVE",
"649 600 OFFCURVE",
"627 592 CURVE SMOOTH",
"624 591 OFFCURVE",
"619 587 OFFCURVE",
"615 581 CURVE",
"609 581 LINE SMOOTH",
"607 581 OFFCURVE",
"606 581 OFFCURVE",
"605 580 CURVE",
"602 581 OFFCURVE",
"599 583 OFFCURVE",
"596 583 CURVE SMOOTH",
"594 583 OFFCURVE",
"593 582 OFFCURVE",
"591 580 CURVE",
"586 581 OFFCURVE",
"578 586 OFFCURVE",
"573 583 CURVE",
"569 584 OFFCURVE",
"565 585 OFFCURVE",
"561 585 CURVE SMOOTH",
"558 585 OFFCURVE",
"555 584 OFFCURVE",
"552 582 CURVE",
"548 584 OFFCURVE",
"542 586 OFFCURVE",
"537 582 CURVE",
"537 581 LINE",
"522 584 OFFCURVE",
"429 567 OFFCURVE",
"420 552 CURVE",
"402 553 LINE",
"385 557 OFFCURVE",
"337 519 OFFCURVE",
"322 512 CURVE",
"321 510 OFFCURVE",
"298 491 OFFCURVE",
"296 489 CURVE SMOOTH",
"284 477 OFFCURVE",
"270 467 OFFCURVE",
"259 453 CURVE SMOOTH",
"220 406 OFFCURVE",
"196 328 OFFCURVE",
"187 261 CURVE SMOOTH",
"185 249 OFFCURVE",
"183 230 OFFCURVE",
"190 223 CURVE",
"193 225 LINE",
"197 225 OFFCURVE",
"196 215 OFFCURVE",
"200 212 CURVE",
"201 212 OFFCURVE",
"201 213 OFFCURVE",
"201 214 CURVE SMOOTH",
"202 222 OFFCURVE",
"200 242 OFFCURVE",
"202 258 CURVE SMOOTH",
"222 401 OFFCURVE",
"336 513 OFFCURVE",
"431 537 CURVE",
"434 546 OFFCURVE",
"473 541 OFFCURVE",
"482 553 CURVE",
"486 552 OFFCURVE",
"490 553 OFFCURVE",
"494 552 CURVE",
"496 557 OFFCURVE",
"523 556 OFFCURVE",
"526 556 CURVE SMOOTH",
"528 556 LINE",
"530 559 LINE",
"533 559 OFFCURVE",
"536 557 OFFCURVE",
"539 557 CURVE SMOOTH",
"541 557 OFFCURVE",
"543 558 OFFCURVE",
"545 560 CURVE",
"550 559 OFFCURVE",
"554 557 OFFCURVE",
"559 557 CURVE SMOOTH",
"569 557 OFFCURVE",
"569 558 OFFCURVE",
"580 558 CURVE SMOOTH",
"585 558 OFFCURVE",
"584 557 OFFCURVE",
"589 557 CURVE",
"571 526 LINE",
"551 487 LINE SMOOTH",
"547 480 OFFCURVE",
"490 403 OFFCURVE",
"486 396 CURVE",
"483 395 OFFCURVE",
"462 346 OFFCURVE",
"456 340 CURVE SMOOTH",
"416 301 OFFCURVE",
"435 280 OFFCURVE",
"381 238 CURVE",
"364 219 OFFCURVE",
"332 169 OFFCURVE",
"315 150 CURVE SMOOTH",
"263 88 OFFCURVE",
"272 106 OFFCURVE",
"226 67 CURVE",
"216 60 OFFCURVE",
"184 29 OFFCURVE",
"173 23 CURVE SMOOTH",
"157 14 LINE",
"116 14 LINE SMOOTH",
"113 14 OFFCURVE",
"85 10 OFFCURVE",
"82 10 CURVE SMOOTH",
"80 10 OFFCURVE",
"80 12 OFFCURVE",
"79 13 CURVE",
"71 -13 LINE",
"71 -20 LINE",
"67 -22 LINE SMOOTH",
"57 -27 OFFCURVE",
"39 -26 OFFCURVE",
"32 -33 CURVE",
"24 -33 OFFCURVE",
"18 -37 OFFCURVE",
"11 -39 CURVE SMOOTH",
"-2 -42 OFFCURVE",
"-18 -43 OFFCURVE",
"-31 -48 CURVE",
"-33 -47 LINE",
"-33 -50 OFFCURVE",
"-48 -47 OFFCURVE",
"-51 -49 CURVE",
"-53 -48 LINE",
"-67 -51 LINE",
"-72 -51 OFFCURVE",
"-76 -50 OFFCURVE",
"-81 -50 CURVE SMOOTH",
"-97 -49 OFFCURVE",
"-116 -51 OFFCURVE",
"-129 -42 CURVE SMOOTH",
"-135 -38 OFFCURVE",
"-139 -32 OFFCURVE",
"-144 -27 CURVE",
"-146 -23 LINE",
"-150 -25 LINE",
"-149 -29 OFFCURVE",
"-136 -40 OFFCURVE",
"-133 -45 CURVE",
"-123 -51 LINE SMOOTH",
"-115 -56 OFFCURVE",
"-107 -57 OFFCURVE",
"-98 -60 CURVE SMOOTH",
"-95 -61 OFFCURVE",
"-92 -63 OFFCURVE",
"-89 -63 CURVE",
"-89 -62 LINE",
"-82 -64 LINE SMOOTH",
"-77 -65 OFFCURVE",
"-51 -70 OFFCURVE",
"-46 -67 CURVE",
"-44 -67 LINE",
"-28 -69 LINE",
"-24 -68 OFFCURVE",
"-19 -68 OFFCURVE",
"-15 -68 CURVE",
"13 -61 LINE",
"18 -61 OFFCURVE",
"38 -56 OFFCURVE",
"42 -54 CURVE",
"49 -54 OFFCURVE",
"55 -51 OFFCURVE",
"61 -50 CURVE",
"84 -42 LINE",
"99 -37 LINE",
"114 -29 LINE",
"115 -29 OFFCURVE",
"117 -29 OFFCURVE",
"119 -28 CURVE",
"176 -26 LINE",
"179 -25 OFFCURVE",
"328 -16 OFFCURVE",
"330 -15 CURVE",
"331 -15 LINE SMOOTH",
"333 -15 OFFCURVE",
"334 -17 OFFCURVE",
"336 -17 CURVE",
"338 -15 OFFCURVE",
"368 -12 OFFCURVE",
"368 -12 CURVE",
"374 -10 LINE",
"374 -10 OFFCURVE",
"387 -11 OFFCURVE",
"394 -11 CURVE",
"394 -9 OFFCURVE",
"395 -7 OFFCURVE",
"395 -7 CURVE",
"401 -5 OFFCURVE",
"408 -4 OFFCURVE",
"410 -4 CURVE SMOOTH",
"412 -4 OFFCURVE",
"412 -6 OFFCURVE",
"414 -6 CURVE",
"414 -5 OFFCURVE",
"414 -5 OFFCURVE",
"415 -4 CURVE",
"420 -4 OFFCURVE",
"427 -1 OFFCURVE",
"429 -1 CURVE SMOOTH",
"431 -1 OFFCURVE",
"431 -3 OFFCURVE",
"433 -3 CURVE",
"433 -3 OFFCURVE",
"439 5 OFFCURVE",
"440 6 CURVE",
"419 6 LINE SMOOTH",
"417 6 OFFCURVE",
"417 9 OFFCURVE",
"416 9 CURVE SMOOTH",
"409 9 OFFCURVE",
"398 10 OFFCURVE",
"390 10 CURVE SMOOTH",
"387 10 OFFCURVE",
"355 11 OFFCURVE",
"354 11 CURVE SMOOTH",
"353 11 OFFCURVE",
"353 10 OFFCURVE",
"354 10 CURVE",
"352 11 OFFCURVE",
"351 11 OFFCURVE",
"350 11 CURVE SMOOTH",
"347 11 OFFCURVE",
"197 14 OFFCURVE",
"195 14 CURVE SMOOTH",
"188 14 LINE",
"194 19 LINE SMOOTH",
"239 56 OFFCURVE",
"225 24 OFFCURVE",
"286 72 CURVE SMOOTH",
"304 86 OFFCURVE",
"318 92 OFFCURVE",
"339 111 CURVE",
"356 123 OFFCURVE",
"382 148 OFFCURVE",
"388 155 CURVE SMOOTH",
"404 173 LINE",
"432 210 LINE",
"440 217 LINE",
"450 231 LINE",
"460 241 LINE",
"541 341 OFFCURVE",
"522 320 OFFCURVE",
"588 430 CURVE SMOOTH",
"619 482 OFFCURVE",
"657 523 OFFCURVE",
"671 549 CURVE",
"671 550 LINE",
"678 549 LINE",
"681 552 LINE",
"686 548 LINE",
"688 548 OFFCURVE",
"690 547 OFFCURVE",
"691 546 CURVE",
"693 552 LINE",
"697 551 LINE",
"694 544 LINE",
"710 541 OFFCURVE",
"728 529 OFFCURVE",
"736 537 CURVE SMOOTH"
);
},
{
closed = 1;
nodes = (
"362 9 LINE SMOOTH",
"361 9 OFFCURVE",
"357 10 OFFCURVE",
"354 10 CURVE SMOOTH",
"358 10 OFFCURVE",
"366 9 OFFCURVE",
"365 9 CURVE SMOOTH"
);
}
);
width = 494;
}
);
note = I;
unicode = 0049;
},
{
color = 3;
glyphname = J;
lastChange = "2021-07-28 11:39:28 +0000";
layers = (
{
anchors = (
{
name = bottom;
position = "{235, 0}";
},
{
name = top;
position = "{653, 600}";
}
);
layerId = "E8487A59-2E36-4739-8DF2-414A9818920F";
paths = (
{
closed = 1;
nodes = (
"419 144 LINE",
"470 212 LINE SMOOTH",
"476 221 OFFCURVE",
"483 230 OFFCURVE",
"487 239 CURVE",
"522 293 OFFCURVE",
"553 331 OFFCURVE",
"595 405 CURVE SMOOTH",
"627 461 OFFCURVE",
"663 508 OFFCURVE",
"677 536 CURVE",
"677 537 LINE",
"695 534 LINE",
"698 536 LINE",
"707 530 OFFCURVE",
"738 523 OFFCURVE",
"748 533 CURVE",
"780 573 OFFCURVE",
"730 578 OFFCURVE",
"730 578 CURVE",
"730 580 OFFCURVE",
"706 581 OFFCURVE",
"688 581 CURVE",
"688 601 OFFCURVE",
"649 602 OFFCURVE",
"625 593 CURVE SMOOTH",
"621 592 OFFCURVE",
"617 587 OFFCURVE",
"612 581 CURVE",
"606 581 LINE SMOOTH",
"603 581 OFFCURVE",
"601 581 OFFCURVE",
"599 579 CURVE",
"596 581 OFFCURVE",
"590 583 OFFCURVE",
"586 583 CURVE SMOOTH",
"583 583 OFFCURVE",
"581 582 OFFCURVE",
"579 580 CURVE",
"571 581 OFFCURVE",
"558 586 OFFCURVE",
"550 583 CURVE",
"544 584 OFFCURVE",
"538 585 OFFCURVE",
"532 585 CURVE SMOOTH",
"527 585 OFFCURVE",
"522 584 OFFCURVE",
"518 583 CURVE",
"511 584 OFFCURVE",
"502 586 OFFCURVE",
"495 582 CURVE",
"495 581 LINE",
"472 584 OFFCURVE",
"330 565 OFFCURVE",
"318 549 CURVE",
"317 549 LINE SMOOTH",
"290 549 OFFCURVE",
"221 511 OFFCURVE",
"198 503 CURVE",
"197 501 OFFCURVE",
"163 481 OFFCURVE",
"160 479 CURVE SMOOTH",
"142 466 OFFCURVE",
"124 454 OFFCURVE",
"107 440 CURVE SMOOTH",
"-1 346 OFFCURVE",
"-15 311 OFFCURVE",
"-22 238 CURVE SMOOTH",
"-23 225 OFFCURVE",
"-13 200 OFFCURVE",
"-2 192 CURVE",
"2 195 LINE",
"10 195 OFFCURVE",
"8 183 OFFCURVE",
"14 180 CURVE",
"16 180 OFFCURVE",
"17 181 OFFCURVE",
"17 182 CURVE SMOOTH",
"18 191 OFFCURVE",
"11 213 OFFCURVE",
"13 230 CURVE SMOOTH",
"28 385 OFFCURVE",
"192 507 OFFCURVE",
"336 533 CURVE",
"339 543 OFFCURVE",
"407 542 OFFCURVE",
"419 554 CURVE",
"425 553 OFFCURVE",
"432 555 OFFCURVE",
"438 554 CURVE",
"440 559 OFFCURVE",
"475 560 OFFCURVE",
"481 560 CURVE SMOOTH",
"484 560 LINE",
"486 564 LINE",
"491 563 OFFCURVE",
"495 562 OFFCURVE",
"500 562 CURVE SMOOTH",
"504 562 OFFCURVE",
"507 563 OFFCURVE",
"510 565 CURVE",
"517 564 OFFCURVE",
"524 562 OFFCURVE",
"531 562 CURVE SMOOTH",
"547 562 OFFCURVE",
"553 555 OFFCURVE",
"569 555 CURVE SMOOTH",
"586 555 LINE",
"568 521 LINE",
"548 479 LINE SMOOTH",
"544 471 OFFCURVE",
"495 388 OFFCURVE",
"492 380 CURVE",
"488 379 OFFCURVE",
"467 325 OFFCURVE",
"461 320 CURVE",
"422 280 OFFCURVE",
"403 219 OFFCURVE",
"370 173 CURVE SMOOTH",
"366 167 OFFCURVE",
"361 162 OFFCURVE",
"356 156 CURVE SMOOTH",
"352 151 LINE SMOOTH",
"348 146 OFFCURVE",
"346 143 OFFCURVE",
"344 140 CURVE SMOOTH",
"332 122 LINE",
"320 111 LINE",
"314 100 LINE",
"300 85 LINE",
"298 78 LINE",
"295 74 OFFCURVE",
"287 72 OFFCURVE",
"285 68 CURVE SMOOTH",
"281 61 LINE",
"270 51 OFFCURVE",
"261 40 OFFCURVE",
"255 27 CURVE",
"256 26 OFFCURVE",
"252 28 OFFCURVE",
"251 29 CURVE",
"251 28 LINE",
"248 21 OFFCURVE",
"240 17 OFFCURVE",
"236 12 CURVE SMOOTH",
"227 2 OFFCURVE",
"218 -7 OFFCURVE",
"209 -18 CURVE",
"203 -28 LINE",
"189 -42 LINE",
"183 -40 LINE",
"182 -43 LINE",
"173 -53 LINE",
"171 -54 OFFCURVE",
"168 -53 OFFCURVE",
"166 -55 CURVE SMOOTH",
"151 -70 LINE",
"138 -80 OFFCURVE",
"122 -86 OFFCURVE",
"109 -95 CURVE SMOOTH",
"102 -99 OFFCURVE",
"97 -104 OFFCURVE",
"91 -109 CURVE",
"47 -132 OFFCURVE",
"3 -154 OFFCURVE",
"-42 -175 CURVE SMOOTH",
"-55 -181 OFFCURVE",
"-81 -181 OFFCURVE",
"-90 -192 CURVE",
"-101 -191 OFFCURVE",
"-109 -197 OFFCURVE",
"-119 -200 CURVE SMOOTH",
"-137 -205 OFFCURVE",
"-160 -207 OFFCURVE",
"-177 -214 CURVE",
"-177 -213 OFFCURVE",
"-180 -212 OFFCURVE",
"-181 -212 CURVE",
"-180 -216 OFFCURVE",
"-202 -212 OFFCURVE",
"-206 -216 CURVE",
"-209 -214 LINE",
"-228 -218 LINE",
"-235 -218 OFFCURVE",
"-241 -216 OFFCURVE",
"-248 -216 CURVE SMOOTH",
"-272 -215 OFFCURVE",
"-298 -217 OFFCURVE",
"-319 -205 CURVE SMOOTH",
"-329 -199 OFFCURVE",
"-335 -190 OFFCURVE",
"-344 -183 CURVE",
"-348 -177 LINE",
"-352 -180 LINE",
"-351 -186 OFFCURVE",
"-329 -202 OFFCURVE",
"-324 -209 CURVE",
"-308 -217 LINE SMOOTH",
"-295 -224 OFFCURVE",
"-283 -228 OFFCURVE",
"-270 -232 CURVE SMOOTH",
"-266 -233 OFFCURVE",
"-261 -235 OFFCURVE",
"-257 -235 CURVE",
"-247 -237 LINE",
"-239 -240 OFFCURVE",
"-200 -246 OFFCURVE",
"-195 -241 CURVE",
"-191 -241 LINE",
"-167 -245 LINE",
"-162 -243 OFFCURVE",
"-155 -245 OFFCURVE",
"-149 -243 CURVE SMOOTH",
"-111 -233 LINE",
"-104 -233 OFFCURVE",
"-76 -226 OFFCURVE",
"-71 -223 CURVE",
"-60 -223 OFFCURVE",
"-53 -219 OFFCURVE",
"-44 -216 CURVE SMOOTH",
"-33 -213 OFFCURVE",
"-24 -209 OFFCURVE",
"-14 -205 CURVE SMOOTH",
"7 -197 LINE",
"27 -186 LINE",
"34 -186 OFFCURVE",
"50 -173 OFFCURVE",
"56 -169 CURVE SMOOTH",
"82 -152 OFFCURVE",
"109 -135 OFFCURVE",
"132 -114 CURVE SMOOTH",
"140 -106 OFFCURVE",
"150 -99 OFFCURVE",
"159 -91 CURVE SMOOTH",
"170 -81 OFFCURVE",
"182 -77 OFFCURVE",
"192 -68 CURVE SMOOTH",
"198 -63 OFFCURVE",
"215 -51 OFFCURVE",
"218 -44 CURVE",
"221 -44 OFFCURVE",
"251 -17 OFFCURVE",
"257 -13 CURVE SMOOTH",
"277 3 OFFCURVE",
"297 26 OFFCURVE",
"315 45 CURVE SMOOTH",
"341 72 OFFCURVE",
"385 101 OFFCURVE",
"409 131 CURVE",
"409 132 LINE"
);
},
{
closed = 1;
nodes = (
"419 144 LINE",
"409 131 LINE",
"409 132 LINE"
);
}
);
width = 469;
}
);
note = J;
unicode = 004A;
},
{
color = 3;
glyphname = K;
lastChange = "2021-07-28 11:39:38 +0000";
layers = (
{
anchors = (
{
name = bottom;
position = "{351, -111}";
},
{
name = top;
position = "{892, 600}";
}
);
layerId = "E8487A59-2E36-4739-8DF2-414A9818920F";
paths = (
{
closed = 1;
nodes = (
"1254 556 LINE",
"1253 562 OFFCURVE",
"1236 579 OFFCURVE",
"1232 586 CURVE",
"1219 595 LINE SMOOTH",
"1209 602 OFFCURVE",
"1199 606 OFFCURVE",
"1188 611 CURVE SMOOTH",
"1185 612 OFFCURVE",
"1181 615 OFFCURVE",
"1178 615 CURVE",
"1170 618 LINE SMOOTH",
"1162 621 OFFCURVE",
"1131 628 OFFCURVE",
"1126 623 CURVE",
"1123 624 LINE",
"1103 628 LINE",
"1099 626 OFFCURVE",
"1093 627 OFFCURVE",
"1088 627 CURVE",
"1056 617 LINE",
"1050 618 OFFCURVE",
"1026 612 OFFCURVE",
"1022 609 CURVE",
"1013 609 OFFCURVE",
"1007 605 OFFCURVE",
"1000 602 CURVE SMOOTH",
"990 599 OFFCURVE",
"993 594 OFFCURVE",
"984 590 CURVE SMOOTH",
"979 588 OFFCURVE",
"985 577 OFFCURVE",
"979 576 CURVE SMOOTH",
"942 568 LINE",
"936 569 OFFCURVE",
"917 546 OFFCURVE",
"912 543 CURVE SMOOTH",
"901 537 OFFCURVE",
"896 534 OFFCURVE",
"892 531 CURVE SMOOTH",
"887 527 OFFCURVE",
"883 523 OFFCURVE",
"873 512 CURVE SMOOTH",
"865 504 OFFCURVE",
"852 494 OFFCURVE",
"844 487 CURVE SMOOTH",
"834 479 OFFCURVE",
"817 456 OFFCURVE",
"808 448 CURVE SMOOTH",
"803 444 OFFCURVE",
"793 439 OFFCURVE",
"789 432 CURVE",
"787 433 OFFCURVE",
"753 400 OFFCURVE",
"748 396 CURVE SMOOTH",
"730 383 OFFCURVE",
"721 373 OFFCURVE",
"705 357 CURVE SMOOTH",
"699 351 OFFCURVE",
"668 330 OFFCURVE",
"662 321 CURVE",
"645 308 OFFCURVE",
"592 275 OFFCURVE",
"577 262 CURVE SMOOTH",
"567 253 OFFCURVE",
"535 231 OFFCURVE",
"497 218 CURVE",
"501 222 LINE SMOOTH",
"509 230 OFFCURVE",
"517 240 OFFCURVE",
"521 249 CURVE",
"565 303 OFFCURVE",
"600 353 OFFCURVE",
"653 427 CURVE SMOOTH",
"692 484 OFFCURVE",
"738 528 OFFCURVE",
"756 556 CURVE",
"756 557 LINE",
"764 557 LINE",
"767 559 LINE",
"772 555 LINE",
"774 555 OFFCURVE",
"776 554 OFFCURVE",
"778 553 CURVE",
"780 559 LINE",
"784 558 LINE",
"781 550 LINE",
"797 548 OFFCURVE",
"816 535 OFFCURVE",
"825 543 CURVE SMOOTH",
"863 583 OFFCURVE",
"814 588 OFFCURVE",
"813 588 CURVE",
"813 590 OFFCURVE",
"790 591 OFFCURVE",
"772 591 CURVE",
"775 611 OFFCURVE",
"755 612 OFFCURVE",
"731 603 CURVE SMOOTH",
"727 602 OFFCURVE",
"701 597 OFFCURVE",
"696 591 CURVE",
"689 591 LINE SMOOTH",
"687 591 OFFCURVE",
"685 591 OFFCURVE",
"683 589 CURVE",
"679 591 OFFCURVE",
"674 593 OFFCURVE",
"670 593 CURVE SMOOTH",
"667 593 OFFCURVE",
"665 592 OFFCURVE",
"662 590 CURVE",
"655 591 OFFCURVE",
"642 596 OFFCURVE",
"634 593 CURVE",
"628 594 OFFCURVE",
"622 595 OFFCURVE",
"616 595 CURVE SMOOTH",
"611 595 OFFCURVE",
"607 594 OFFCURVE",
"602 593 CURVE",
"595 594 OFFCURVE",
"587 596 OFFCURVE",
"579 592 CURVE",
"579 591 LINE",
"556 594 OFFCURVE",
"412 575 OFFCURVE",
"397 559 CURVE",
"396 559 LINE SMOOTH",
"369 559 OFFCURVE",
"295 521 OFFCURVE",
"271 513 CURVE",
"269 511 OFFCURVE",
"233 491 OFFCURVE",
"230 489 CURVE SMOOTH",
"210 476 OFFCURVE",
"189 464 OFFCURVE",
"170 450 CURVE SMOOTH",
"49 356 OFFCURVE",
"31 321 OFFCURVE",
"13 248 CURVE SMOOTH",
"10 235 OFFCURVE",
"16 210 OFFCURVE",
"27 202 CURVE",
"30 205 LINE",
"38 205 OFFCURVE",
"35 193 OFFCURVE",
"41 190 CURVE",
"42 190 OFFCURVE",
"43 191 OFFCURVE",
"43 192 CURVE",
"46 201 OFFCURVE",
"42 223 OFFCURVE",
"46 240 CURVE SMOOTH",
"84 395 OFFCURVE",
"265 517 OFFCURVE",
"413 543 CURVE",
"417 553 OFFCURVE",
"485 552 OFFCURVE",
"499 564 CURVE",
"505 563 OFFCURVE",
"512 565 OFFCURVE",
"518 564 CURVE",
"521 569 OFFCURVE",
"556 570 OFFCURVE",
"562 570 CURVE SMOOTH",
"565 570 LINE",
"568 574 LINE",
"572 573 OFFCURVE",
"577 572 OFFCURVE",
"581 572 CURVE SMOOTH",
"585 572 OFFCURVE",
"588 573 OFFCURVE",
"591 575 CURVE",
"598 574 OFFCURVE",
"605 572 OFFCURVE",
"612 572 CURVE SMOOTH",
"628 572 OFFCURVE",
"643 565 OFFCURVE",
"659 565 CURVE SMOOTH",
"676 565 LINE",
"666 550 OFFCURVE",
"657 536 OFFCURVE",
"653 531 CURVE",
"627 489 LINE SMOOTH",
"622 481 OFFCURVE",
"551 398 OFFCURVE",
"547 390 CURVE",
"543 389 OFFCURVE",
"514 335 OFFCURVE",
"508 330 CURVE SMOOTH",
"495 318 OFFCURVE",
"483 305 OFFCURVE",
"472 290 CURVE",
"475 298 LINE",
"477 302 LINE",
"471 305 LINE",
"443 330 OFFCURVE",
"438 274 OFFCURVE",
"433 247 CURVE SMOOTH",
"429 226 LINE",
"426 221 OFFCURVE",
"423 217 OFFCURVE",
"420 214 CURVE SMOOTH",
"418 212 LINE SMOOTH",
"409 203 OFFCURVE",
"403 192 OFFCURVE",
"395 183 CURVE SMOOTH",
"390 177 OFFCURVE",
"406 168 OFFCURVE",
"398 166 CURVE SMOOTH",
"375 161 LINE SMOOTH",
"369 160 OFFCURVE",
"367 153 OFFCURVE",
"365 150 CURVE SMOOTH",
"360 144 OFFCURVE",
"355 138 OFFCURVE",
"351 132 CURVE",
"337 121 LINE",
"329 110 LINE",
"313 95 LINE",
"310 88 LINE",
"307 84 OFFCURVE",
"298 83 OFFCURVE",
"295 78 CURVE SMOOTH",
"290 71 LINE",
"278 61 OFFCURVE",
"268 50 OFFCURVE",
"260 37 CURVE",
"260 36 OFFCURVE",
"257 38 OFFCURVE",
"256 39 CURVE",
"255 39 LINE",
"255 38 LINE",
"251 31 OFFCURVE",
"243 27 OFFCURVE",
"238 22 CURVE SMOOTH",
"228 12 OFFCURVE",
"216 4 OFFCURVE",
"207 -8 CURVE SMOOTH",
"200 -18 LINE",
"184 -32 LINE",
"178 -30 LINE",
"176 -33 LINE",
"166 -43 LINE",
"164 -44 OFFCURVE",
"161 -43 OFFCURVE",
"159 -45 CURVE SMOOTH",
"142 -60 LINE",
"127 -70 OFFCURVE",
"110 -76 OFFCURVE",
"96 -85 CURVE SMOOTH",
"89 -89 OFFCURVE",
"82 -94 OFFCURVE",
"76 -99 CURVE",
"29 -122 OFFCURVE",
"-18 -144 OFFCURVE",
"-66 -165 CURVE SMOOTH",
"-80 -171 OFFCURVE",
"-106 -171 OFFCURVE",
"-116 -182 CURVE",
"-128 -181 OFFCURVE",
"-137 -187 OFFCURVE",
"-147 -190 CURVE SMOOTH",
"-166 -195 OFFCURVE",
"-189 -197 OFFCURVE",
"-207 -204 CURVE",
"-207 -203 OFFCURVE",
"-209 -202 OFFCURVE",
"-210 -202 CURVE",
"-210 -206 OFFCURVE",
"-232 -202 OFFCURVE",
"-236 -206 CURVE",
"-239 -204 LINE",
"-259 -208 LINE",
"-265 -208 OFFCURVE",
"-272 -206 OFFCURVE",
"-278 -206 CURVE SMOOTH",
"-302 -205 OFFCURVE",
"-328 -207 OFFCURVE",
"-348 -195 CURVE SMOOTH",
"-357 -189 OFFCURVE",
"-362 -180 OFFCURVE",
"-369 -173 CURVE",
"-373 -167 LINE",
"-377 -170 LINE",
"-377 -176 OFFCURVE",
"-358 -192 OFFCURVE",
"-354 -199 CURVE",
"-338 -207 LINE SMOOTH",
"-326 -213 OFFCURVE",
"-315 -218 OFFCURVE",
"-302 -222 CURVE SMOOTH",
"-298 -223 OFFCURVE",
"-294 -225 OFFCURVE",
"-290 -225 CURVE",
"-280 -227 LINE",
"-272 -230 OFFCURVE",
"-235 -236 OFFCURVE",
"-229 -231 CURVE",
"-225 -231 LINE",
"-202 -235 LINE",
"-196 -233 OFFCURVE",
"-189 -234 OFFCURVE",
"-184 -233 CURVE SMOOTH",
"-134 -223 LINE",
"-127 -223 OFFCURVE",
"-97 -216 OFFCURVE",
"-92 -213 CURVE",
"-82 -213 OFFCURVE",
"-73 -209 OFFCURVE",
"-65 -206 CURVE SMOOTH",
"-53 -203 OFFCURVE",
"-43 -199 OFFCURVE",
"-32 -195 CURVE SMOOTH",
"-10 -187 LINE",
"11 -176 LINE",
"18 -176 OFFCURVE",
"36 -163 OFFCURVE",
"43 -159 CURVE SMOOTH",
"71 -142 OFFCURVE",
"99 -124 OFFCURVE",
"126 -104 CURVE SMOOTH",
"157 -81 LINE SMOOTH",
"170 -72 OFFCURVE",
"181 -67 OFFCURVE",
"193 -58 CURVE SMOOTH",
"199 -53 OFFCURVE",
"218 -41 OFFCURVE",
"222 -34 CURVE",
"226 -34 OFFCURVE",
"259 -7 OFFCURVE",
"265 -3 CURVE SMOOTH",
"288 13 OFFCURVE",
"311 36 OFFCURVE",
"332 55 CURVE SMOOTH",
"362 82 OFFCURVE",
"398 113 OFFCURVE",
"428 141 CURVE SMOOTH",
"439 151 LINE",
"453 135 OFFCURVE",
"448 90 OFFCURVE",
"458 81 CURVE",
"461 58 LINE",
"470 38 LINE",
"473 28 OFFCURVE",
"476 18 OFFCURVE",
"481 8 CURVE SMOOTH",
"485 0 OFFCURVE",
"486 -9 OFFCURVE",
"494 -16 CURVE",
"495 -22 OFFCURVE",
"515 -56 OFFCURVE",
"521 -61 CURVE",
"543 -87 LINE SMOOTH",
"547 -92 OFFCURVE",
"553 -96 OFFCURVE",
"555 -101 CURVE",
"576 -115 LINE",
"578 -118 LINE",
"578 -125 OFFCURVE",
"612 -148 OFFCURVE",
"621 -152 CURVE SMOOTH",
"632 -157 LINE",
"631 -157 LINE",
"634 -161 OFFCURVE",
"640 -162 OFFCURVE",
"644 -164 CURVE SMOOTH",
"658 -170 OFFCURVE",
"648 -177 OFFCURVE",
"664 -181 CURVE SMOOTH",
"679 -185 OFFCURVE",
"724 -198 OFFCURVE",
"757 -183 CURVE",
"791 -178 OFFCURVE",
"802 -164 OFFCURVE",
"814 -146 CURVE SMOOTH",
"822 -133 OFFCURVE",
"740 -184 OFFCURVE",
"708 -178 CURVE SMOOTH",
"679 -173 OFFCURVE",
"664 -151 OFFCURVE",
"643 -136 CURVE SMOOTH",
"626 -124 LINE",
"617 -107 LINE",
"612 -106 LINE",
"613 -101 OFFCURVE",
"593 -88 OFFCURVE",
"596 -86 CURVE",
"595 -85 OFFCURVE",
"593 -84 OFFCURVE",
"592 -84 CURVE",
"587 -67 OFFCURVE",
"572 -49 OFFCURVE",
"563 -33 CURVE SMOOTH",
"558 -24 OFFCURVE",
"558 -14 OFFCURVE",
"549 -6 CURVE",
"554 9 OFFCURVE",
"534 27 OFFCURVE",
"530 41 CURVE SMOOTH",
"518 89 OFFCURVE",
"507 136 OFFCURVE",
"498 185 CURVE",
"498 191 LINE",
"510 192 OFFCURVE",
"523 194 OFFCURVE",
"525 196 CURVE SMOOTH",
"538 206 OFFCURVE",
"629 270 OFFCURVE",
"640 280 CURVE SMOOTH",
"648 287 OFFCURVE",
"657 293 OFFCURVE",
"664 300 CURVE SMOOTH",
"675 309 OFFCURVE",
"714 339 OFFCURVE",
"725 349 CURVE SMOOTH",
"730 353 OFFCURVE",
"734 356 OFFCURVE",
"737 360 CURVE",
"777 397 OFFCURVE",
"809 431 OFFCURVE",
"855 466 CURVE SMOOTH",
"860 470 OFFCURVE",
"865 475 OFFCURVE",
"871 479 CURVE SMOOTH",
"908 502 OFFCURVE",
"957 540 OFFCURVE",
"995 560 CURVE SMOOTH",
"1006 566 OFFCURVE",
"1028 565 OFFCURVE",
"1036 576 CURVE",
"1045 575 OFFCURVE",
"1061 593 OFFCURVE",
"1069 596 CURVE SMOOTH",
"1085 600 OFFCURVE",
"1095 589 OFFCURVE",
"1110 596 CURVE",
"1110 595 OFFCURVE",
"1112 594 OFFCURVE",
"1113 594 CURVE",
"1112 598 OFFCURVE",
"1131 594 OFFCURVE",
"1134 597 CURVE",
"1137 595 LINE",
"1153 599 LINE",
"1158 598 OFFCURVE",
"1164 596 OFFCURVE",
"1169 596 CURVE",
"1189 593 OFFCURVE",
"1211 596 OFFCURVE",
"1228 582 CURVE SMOOTH",
"1235 576 OFFCURVE",
"1241 566 OFFCURVE",
"1247 559 CURVE",
"1250 552 LINE"
);
}
);
width = 650;
}
);
note = K;
unicode = 004B;
},
{
color = 3;
glyphname = L;
lastChange = "2021-07-28 11:40:02 +0000";
layers = (
{
anchors = (
{
name = bottom;
position = "{354, -43}";
},
{
name = center;
position = "{386, 300}";
},
{
name = top;
position = "{770, 583}";
},
{
name = topright;
position = "{913, 584}";
}
);
layerId = "E8487A59-2E36-4739-8DF2-414A9818920F";
paths = (
{
closed = 1;
nodes = (
"849 529 OFFCURVE",
"835 554 OFFCURVE",
"813 569 CURVE SMOOTH",
"798 579 OFFCURVE",
"786 584 OFFCURVE",
"770 583 CURVE SMOOTH",
"751 583 OFFCURVE",
"704 582 OFFCURVE",
"687 575 CURVE SMOOTH",
"667 566 OFFCURVE",
"648 557 OFFCURVE",
"630 545 CURVE SMOOTH",
"616 535 OFFCURVE",
"608 526 OFFCURVE",
"595 515 CURVE SMOOTH",
"574 497 OFFCURVE",
"574 489 OFFCURVE",
"554 471 CURVE SMOOTH",
"549 466 OFFCURVE",
"523 433 OFFCURVE",
"518 429 CURVE SMOOTH",
"498 409 OFFCURVE",
"494 407 OFFCURVE",
"478 385 CURVE SMOOTH",
"469 372 OFFCURVE",
"438 323 OFFCURVE",
"430 310 CURVE SMOOTH",
"427 305 LINE SMOOTH",
"406 271 OFFCURVE",
"390 232 OFFCURVE",
"348 183 CURVE SMOOTH",
"336 169 OFFCURVE",
"324 143 OFFCURVE",
"312 133 CURVE SMOOTH",
"309 131 OFFCURVE",
"296 118 OFFCURVE",
"298 115 CURVE",
"290 107 LINE SMOOTH",
"274 91 OFFCURVE",
"263 75 OFFCURVE",
"250 61 CURVE",
"238 51 OFFCURVE",
"224 41 OFFCURVE",
"213 33 CURVE",
"190 30 OFFCURVE",
"157 25 OFFCURVE",
"135 21 CURVE SMOOTH",
"123 20 OFFCURVE",
"35 8 OFFCURVE",
"21 3 CURVE",
"19 5 OFFCURVE",
"-130 -21 OFFCURVE",
"-130 -46 CURVE SMOOTH",
"-130 -47 LINE SMOOTH",
"-130 -51 OFFCURVE",
"-127 -54 OFFCURVE",
"-124 -55 CURVE",
"-120 -60 OFFCURVE",
"-115 -64 OFFCURVE",
"-113 -67 CURVE",
"-101 -73 LINE SMOOTH",
"-91 -78 OFFCURVE",
"-82 -81 OFFCURVE",
"-71 -84 CURVE SMOOTH",
"-67 -85 OFFCURVE",
"-64 -86 OFFCURVE",
"-60 -86 CURVE",
"-51 -88 LINE SMOOTH",
"-44 -90 OFFCURVE",
"-11 -94 OFFCURVE",
"-4 -91 CURVE",
"-1 -91 LINE",
"20 -93 LINE",
"26 -92 OFFCURVE",
"32 -93 OFFCURVE",
"37 -92 CURVE SMOOTH",
"102 -80 OFFCURVE",
"63 -87 OFFCURVE",
"125 -63 CURVE",
"131 -63 OFFCURVE",
"139 -49 OFFCURVE",
"146 -47 CURVE SMOOTH",
"175 -35 OFFCURVE",
"183 -25 OFFCURVE",
"211 -10 CURVE SMOOTH",
"229 0 LINE",
"297 1 OFFCURVE",
"445 7 OFFCURVE",
"501 5 CURVE SMOOTH",
"519 5 OFFCURVE",
"531 -7 OFFCURVE",
"555 -2 CURVE",
"561 -7 OFFCURVE",
"571 -18 OFFCURVE",
"580 -20 CURVE SMOOTH",
"598 -24 OFFCURVE",
"617 -20 OFFCURVE",
"639 -21 CURVE",
"637 -22 OFFCURVE",
"637 -24 OFFCURVE",
"637 -25 CURVE",
"644 -21 OFFCURVE",
"648 -34 OFFCURVE",
"656 -33 CURVE",
"654 -36 LINE",
"672 -40 LINE",
"674 -44 OFFCURVE",
"675 -48 OFFCURVE",
"677 -51 CURVE SMOOTH",
"686 -63 OFFCURVE",
"704 -72 OFFCURVE",
"690 -93 CURVE SMOOTH",
"685 -102 OFFCURVE",
"672 -114 OFFCURVE",
"662 -122 CURVE SMOOTH",
"653 -129 LINE",
"661 -128 LINE",
"671 -122 OFFCURVE",
"691 -99 OFFCURVE",
"701 -91 CURVE",
"708 -77 LINE SMOOTH",
"714 -66 OFFCURVE",
"742 -37 OFFCURVE",
"743 -28 CURVE SMOOTH",
"743 -25 OFFCURVE",
"746 -21 OFFCURVE",
"744 -19 CURVE",
"743 -19 LINE",
"743 -13 LINE SMOOTH",
"743 -7 OFFCURVE",
"736 15 OFFCURVE",
"725 14 CURVE",
"723 16 LINE",
"718 29 LINE",
"712 30 OFFCURVE",
"710 34 OFFCURVE",
"706 36 CURVE",
"669 44 LINE",
"666 47 OFFCURVE",
"639 54 OFFCURVE",
"631 53 CURVE",
"626 58 OFFCURVE",
"614 58 OFFCURVE",
"606 59 CURVE SMOOTH",
"594 62 OFFCURVE",
"582 62 OFFCURVE",
"570 63 CURVE SMOOTH",
"561 64 OFFCURVE",
"549 53 OFFCURVE",
"541 54 CURVE",
"515 65 LINE",
"512 69 OFFCURVE",
"479 64 OFFCURVE",
"470 64 CURVE SMOOTH",
"393 60 OFFCURVE",
"319 50 OFFCURVE",
"245 38 CURVE",
"249 43 OFFCURVE",
"254 48 OFFCURVE",
"259 52 CURVE",
"280 74 OFFCURVE",
"303 95 OFFCURVE",
"313 114 CURVE",
"349 156 OFFCURVE",
"388 195 OFFCURVE",
"424 237 CURVE SMOOTH",
"466 285 OFFCURVE",
"524 346 OFFCURVE",
"563 379 CURVE",
"563 380 OFFCURVE",
"586 407 OFFCURVE",
"588 409 CURVE",
"595 413 OFFCURVE",
"602 418 OFFCURVE",
"609 423 CURVE",
"620 436 LINE",
"637 451 OFFCURVE",
"656 465 OFFCURVE",
"675 479 CURVE SMOOTH",
"682 484 OFFCURVE",
"709 500 OFFCURVE",
"711 505 CURVE",
"721 506 OFFCURVE",
"723 517 OFFCURVE",
"733 517 CURVE",
"750 525 LINE",
"764 525 OFFCURVE",
"774 536 OFFCURVE",
"793 534 CURVE SMOOTH",
"804 533 OFFCURVE",
"807 524 OFFCURVE",
"804 511 CURVE SMOOTH",
"798 479 OFFCURVE",
"766 424 OFFCURVE",
"748 407 CURVE SMOOTH",
"725 385 OFFCURVE",
"696 363 OFFCURVE",
"672 342 CURVE",
"662 329 OFFCURVE",
"672 326 OFFCURVE",
"682 337 CURVE",
"683 337 LINE SMOOTH",
"684 337 OFFCURVE",
"691 343 OFFCURVE",
"693 344 CURVE SMOOTH",
"698 347 OFFCURVE",
"704 346 OFFCURVE",
"706 351 CURVE",
"710 350 LINE",
"711 350 LINE",
"710 354 OFFCURVE",
"714 355 OFFCURVE",
"716 358 CURVE",
"719 358 OFFCURVE",
"721 361 OFFCURVE",
"722 364 CURVE",
"729 364 OFFCURVE",
"732 369 OFFCURVE",
"738 370 CURVE",
"738 371 LINE SMOOTH",
"738 372 OFFCURVE",
"740 377 OFFCURVE",
"741 377 CURVE",
"745 379 LINE SMOOTH",
"754 383 OFFCURVE",
"763 396 OFFCURVE",
"770 403 CURVE",
"769 405 LINE",
"785 405 OFFCURVE",
"807 423 OFFCURVE",
"811 436 CURVE",
"825 445 OFFCURVE",
"831 457 OFFCURVE",
"843 467 CURVE SMOOTH",
"854 476 OFFCURVE",
"865 489 OFFCURVE",
"858 507 CURVE SMOOTH"
);
},
{
closed = 1;
nodes = (
"184 -5 LINE SMOOTH",
"122 -36 OFFCURVE",
"89 -51 OFFCURVE",
"22 -71 CURVE",
"22 -70 OFFCURVE",
"20 -70 OFFCURVE",
"19 -69 CURVE",
"18 -72 OFFCURVE",
"-1 -70 OFFCURVE",
"-6 -72 CURVE",
"-8 -70 LINE",
"-28 -74 LINE",
"-45 -72 LINE SMOOTH",
"-67 -69 OFFCURVE",
"-84 -73 OFFCURVE",
"-100 -64 CURVE SMOOTH",
"-153 -32 OFFCURVE",
"87 -5 OFFCURVE",
"111 -4 CURVE SMOOTH",
"146 -3 OFFCURVE",
"185 -3 OFFCURVE",
"188 -3 CURVE"
);
}
);
width = 771;
}
);
note = L;
unicode = 004C;
},
{
color = 11;
glyphname = Lslash;
lastChange = "2021-07-28 11:24:51 +0000";
layers = (
{
layerId = "E8487A59-2E36-4739-8DF2-414A9818920F";
paths = (
{
closed = 1;
nodes = (
"510 172 OFFCURVE",
"500 182 OFFCURVE",
"495 182 CURVE SMOOTH",
"493 182 OFFCURVE",
"493 184 OFFCURVE",
"492 184 CURVE SMOOTH",
"487 184 OFFCURVE",
"477 185 OFFCURVE",
"471 185 CURVE SMOOTH",
"460 185 OFFCURVE",
"448 186 OFFCURVE",
"437 186 CURVE SMOOTH",
"432 186 LINE",
"430 183 OFFCURVE",
"387 191 OFFCURVE",
"386 185 CURVE SMOOTH",
"386 184 LINE",
"376 184 LINE",
"424 237 LINE SMOOTH",
"466 285 OFFCURVE",
"524 346 OFFCURVE",
"563 379 CURVE",
"563 380 OFFCURVE",
"586 407 OFFCURVE",
"588 409 CURVE",
"595 413 OFFCURVE",
"602 418 OFFCURVE",
"609 423 CURVE",
"620 436 LINE",
"637 451 OFFCURVE",
"656 465 OFFCURVE",
"675 479 CURVE SMOOTH",
"682 484 OFFCURVE",
"709 500 OFFCURVE",
"711 505 CURVE",
"721 506 OFFCURVE",
"723 517 OFFCURVE",
"733 517 CURVE",
"750 525 LINE",
"764 525 OFFCURVE",
"774 536 OFFCURVE",
"793 534 CURVE SMOOTH",
"804 533 OFFCURVE",
"807 524 OFFCURVE",
"804 511 CURVE SMOOTH",
"798 479 OFFCURVE",
"766 424 OFFCURVE",
"748 407 CURVE SMOOTH",
"725 385 OFFCURVE",
"696 363 OFFCURVE",
"672 342 CURVE",
"662 329 OFFCURVE",
"672 326 OFFCURVE",
"682 337 CURVE",
"683 337 LINE SMOOTH",
"684 337 OFFCURVE",
"691 343 OFFCURVE",
"693 344 CURVE SMOOTH",
"698 347 OFFCURVE",
"704 346 OFFCURVE",
"706 351 CURVE",
"710 350 LINE",
"711 350 LINE",
"710 354 OFFCURVE",
"714 355 OFFCURVE",
"716 358 CURVE",
"719 358 OFFCURVE",
"721 361 OFFCURVE",
"722 364 CURVE",
"729 364 OFFCURVE",
"732 369 OFFCURVE",
"738 370 CURVE",
"738 371 LINE SMOOTH",
"738 372 OFFCURVE",
"740 377 OFFCURVE",
"741 377 CURVE",
"745 379 LINE SMOOTH",
"754 383 OFFCURVE",
"763 396 OFFCURVE",
"770 403 CURVE",
"769 405 LINE",
"785 405 OFFCURVE",
"807 423 OFFCURVE",
"811 436 CURVE",
"825 445 OFFCURVE",
"831 457 OFFCURVE",
"843 467 CURVE SMOOTH",
"854 476 OFFCURVE",
"865 489 OFFCURVE",
"858 507 CURVE SMOOTH",
"849 529 OFFCURVE",
"835 554 OFFCURVE",
"813 569 CURVE SMOOTH",
"798 579 OFFCURVE",
"786 584 OFFCURVE",
"770 583 CURVE SMOOTH",
"751 583 OFFCURVE",
"704 582 OFFCURVE",
"687 575 CURVE SMOOTH",
"667 566 OFFCURVE",
"648 557 OFFCURVE",
"630 545 CURVE SMOOTH",
"616 535 OFFCURVE",
"608 526 OFFCURVE",
"595 515 CURVE SMOOTH",
"574 497 OFFCURVE",
"574 489 OFFCURVE",
"554 471 CURVE SMOOTH",
"549 466 OFFCURVE",
"523 433 OFFCURVE",
"518 429 CURVE SMOOTH",
"498 409 OFFCURVE",
"494 407 OFFCURVE",
"478 385 CURVE SMOOTH",
"469 372 OFFCURVE",
"438 323 OFFCURVE",
"430 310 CURVE SMOOTH",
"427 305 LINE SMOOTH",
"406 271 OFFCURVE",
"390 232 OFFCURVE",
"349 184 CURVE",
"247 184 LINE SMOOTH",
"245 184 OFFCURVE",
"221 180 OFFCURVE",
"219 180 CURVE SMOOTH",
"217 180 OFFCURVE",
"218 182 OFFCURVE",
"216 183 CURVE",
"208 156 LINE",
"208 149 OFFCURVE",
"208 143 OFFCURVE",
"210 137 CURVE",
"215 134 LINE",
"216 135 OFFCURVE",
"230 134 OFFCURVE",
"230 134 CURVE",
"232 134 OFFCURVE",
"235 141 OFFCURVE",
"238 141 CURVE SMOOTH",
"239 141 OFFCURVE",
"238 140 OFFCURVE",
"239 140 CURVE SMOOTH",
"240 140 LINE",
"245 146 OFFCURVE",
"273 140 OFFCURVE",
"278 146 CURVE SMOOTH",
"284 154 OFFCURVE",
"298 143 OFFCURVE",
"304 151 CURVE",
"328 153 LINE",
"322 145 OFFCURVE",
"317 137 OFFCURVE",
"312 133 CURVE SMOOTH",
"309 131 OFFCURVE",
"296 118 OFFCURVE",
"298 115 CURVE",
"290 107 LINE SMOOTH",
"276 90 OFFCURVE",
"263 75 OFFCURVE",
"250 61 CURVE",
"238 51 OFFCURVE",
"224 41 OFFCURVE",
"213 33 CURVE",
"190 30 OFFCURVE",
"157 25 OFFCURVE",
"135 21 CURVE SMOOTH",
"123 20 OFFCURVE",
"35 8 OFFCURVE",
"21 3 CURVE",
"19 5 OFFCURVE",
"-131 -21 OFFCURVE",
"-130 -46 CURVE SMOOTH",
"-130 -47 LINE SMOOTH",
"-129 -51 OFFCURVE",
"-127 -54 OFFCURVE",
"-124 -55 CURVE",
"-120 -60 OFFCURVE",
"-115 -64 OFFCURVE",
"-113 -67 CURVE",
"-101 -73 LINE SMOOTH",
"-91 -78 OFFCURVE",
"-82 -81 OFFCURVE",
"-71 -84 CURVE SMOOTH",
"-67 -85 OFFCURVE",
"-64 -86 OFFCURVE",
"-60 -86 CURVE",
"-51 -88 LINE SMOOTH",
"-44 -90 OFFCURVE",
"-11 -94 OFFCURVE",
"-4 -91 CURVE",
"-1 -91 LINE",
"20 -93 LINE",
"26 -92 OFFCURVE",
"32 -93 OFFCURVE",
"37 -92 CURVE SMOOTH",
"102 -80 OFFCURVE",
"63 -87 OFFCURVE",
"125 -63 CURVE",
"131 -63 OFFCURVE",
"139 -49 OFFCURVE",
"146 -47 CURVE SMOOTH",
"175 -35 OFFCURVE",
"183 -25 OFFCURVE",
"211 -10 CURVE SMOOTH",
"229 0 LINE",
"297 1 OFFCURVE",
"445 7 OFFCURVE",
"501 5 CURVE SMOOTH",
"519 5 OFFCURVE",
"531 -7 OFFCURVE",
"555 -2 CURVE",
"561 -7 OFFCURVE",
"571 -18 OFFCURVE",
"580 -20 CURVE SMOOTH",
"598 -24 OFFCURVE",
"617 -20 OFFCURVE",
"639 -21 CURVE",
"637 -22 OFFCURVE",
"637 -24 OFFCURVE",
"637 -25 CURVE",
"644 -21 OFFCURVE",
"648 -34 OFFCURVE",
"656 -33 CURVE",
"654 -36 LINE",
"672 -40 LINE",
"674 -44 OFFCURVE",
"675 -48 OFFCURVE",
"677 -51 CURVE SMOOTH",
"686 -63 OFFCURVE",
"704 -72 OFFCURVE",
"690 -93 CURVE SMOOTH",
"685 -102 OFFCURVE",
"671 -113 OFFCURVE",
"662 -122 CURVE SMOOTH",
"653 -129 LINE",
"661 -128 LINE",
"671 -122 OFFCURVE",
"691 -99 OFFCURVE",
"701 -91 CURVE",
"708 -77 LINE SMOOTH",
"714 -66 OFFCURVE",
"742 -37 OFFCURVE",
"743 -28 CURVE SMOOTH",
"743 -25 OFFCURVE",
"746 -21 OFFCURVE",
"744 -19 CURVE",
"743 -19 LINE",
"743 -13 LINE SMOOTH",
"743 -7 OFFCURVE",
"736 15 OFFCURVE",
"725 14 CURVE",
"723 16 LINE",
"718 29 LINE",
"712 30 OFFCURVE",
"710 34 OFFCURVE",
"706 36 CURVE",
"669 44 LINE",
"666 47 OFFCURVE",
"639 54 OFFCURVE",
"631 53 CURVE",
"626 58 OFFCURVE",
"614 58 OFFCURVE",
"606 59 CURVE SMOOTH",
"594 62 OFFCURVE",
"582 62 OFFCURVE",
"570 63 CURVE SMOOTH",
"561 64 OFFCURVE",
"549 53 OFFCURVE",
"541 54 CURVE",
"515 65 LINE",
"512 69 OFFCURVE",
"479 64 OFFCURVE",
"470 64 CURVE SMOOTH",
"393 60 OFFCURVE",
"319 50 OFFCURVE",
"245 38 CURVE",
"249 43 OFFCURVE",
"254 48 OFFCURVE",
"259 52 CURVE",
"280 74 OFFCURVE",
"303 95 OFFCURVE",
"313 114 CURVE",
"325 128 OFFCURVE",
"337 142 OFFCURVE",
"350 156 CURVE",
"370 158 LINE SMOOTH",
"372 158 OFFCURVE",
"374 161 OFFCURVE",
"376 161 CURVE",
"377 162 LINE",
"378 162 OFFCURVE",
"380 160 OFFCURVE",
"381 160 CURVE",
"381 160 OFFCURVE",
"424 162 OFFCURVE",
"425 162 CURVE SMOOTH",
"439 163 OFFCURVE",
"451 163 OFFCURVE",
"451 163 CURVE",
"456 165 LINE",
"456 165 OFFCURVE",
"467 164 OFFCURVE",
"473 164 CURVE",
"474 165 OFFCURVE",
"474 167 OFFCURVE",
"474 168 CURVE",
"479 169 OFFCURVE",
"485 171 OFFCURVE",
"487 171 CURVE SMOOTH",
"488 171 OFFCURVE",
"489 168 OFFCURVE",
"490 168 CURVE",
"490 169 OFFCURVE",
"490 170 OFFCURVE",
"491 171 CURVE",
"495 171 OFFCURVE",
"501 174 OFFCURVE",
"503 174 CURVE SMOOTH",
"505 174 OFFCURVE",
"504 172 OFFCURVE",
"506 172 CURVE SMOOTH"
);
},
{
closed = 1;
nodes = (
"184 -5 LINE SMOOTH",
"121 -34 OFFCURVE",
"89 -51 OFFCURVE",
"22 -71 CURVE",
"22 -70 OFFCURVE",
"20 -70 OFFCURVE",
"19 -69 CURVE",
"18 -72 OFFCURVE",
"-1 -70 OFFCURVE",
"-6 -72 CURVE",
"-8 -70 LINE",
"-28 -74 LINE",
"-45 -72 LINE SMOOTH",
"-67 -71 OFFCURVE",
"-84 -73 OFFCURVE",
"-100 -64 CURVE SMOOTH",
"-153 -32 OFFCURVE",
"87 -5 OFFCURVE",
"111 -4 CURVE SMOOTH",
"146 -3 OFFCURVE",
"185 -3 OFFCURVE",
"188 -3 CURVE"
);
}
);
width = 771;
}
);
note = Lslash;
unicode = 0141;
},
{
color = 3;
glyphname = M;
lastChange = "2021-07-28 11:24:51 +0000";
layers = (
{
layerId = "E8487A59-2E36-4739-8DF2-414A9818920F";
paths = (
{
closed = 1;
nodes = (
"1197 554 OFFCURVE",
"1162 574 OFFCURVE",
"1149 587 CURVE SMOOTH",
"1139 596 OFFCURVE",
"1125 618 OFFCURVE",
"1115 616 CURVE SMOOTH",
"1103 613 OFFCURVE",
"1097 624 OFFCURVE",
"1086 615 CURVE SMOOTH",
"1073 604 OFFCURVE",
"1058 583 OFFCURVE",
"1047 570 CURVE SMOOTH",
"1016 533 OFFCURVE",
"1009 504 OFFCURVE",
"983 465 CURVE SMOOTH",
"979 460 OFFCURVE",
"970 435 OFFCURVE",
"967 430 CURVE",
"873 313 OFFCURVE",
"700 165 OFFCURVE",
"625 99 CURVE SMOOTH",
"583 63 LINE SMOOTH",
"564 48 OFFCURVE",
"550 41 OFFCURVE",
"552 67 CURVE",
"559 73 OFFCURVE",
"567 88 OFFCURVE",
"565 98 CURVE",
"573 99 OFFCURVE",
"584 112 OFFCURVE",
"579 119 CURVE SMOOTH",
"578 120 LINE",
"586 120 OFFCURVE",
"597 172 OFFCURVE",
"605 175 CURVE",
"603 185 OFFCURVE",
"616 191 OFFCURVE",
"617 200 CURVE",
"611 210 LINE",
"622 221 LINE",
"622 225 OFFCURVE",
"630 233 OFFCURVE",
"632 237 CURVE SMOOTH",
"659 286 OFFCURVE",
"736 397 OFFCURVE",
"807 491 CURVE",
"814 492 LINE",
"815 492 LINE",
"816 496 OFFCURVE",
"817 498 OFFCURVE",
"821 501 CURVE SMOOTH",
"831 510 OFFCURVE",
"841 524 OFFCURVE",
"838 538 CURVE",
"839 539 LINE SMOOTH",
"842 544 OFFCURVE",
"847 548 OFFCURVE",
"853 552 CURVE",
"863 549 OFFCURVE",
"871 545 OFFCURVE",
"878 550 CURVE SMOOTH",
"923 588 OFFCURVE",
"867 594 OFFCURVE",
"867 594 CURVE",
"868 596 OFFCURVE",
"845 596 OFFCURVE",
"828 597 CURVE",
"836 616 OFFCURVE",
"818 616 OFFCURVE",
"793 608 CURVE SMOOTH",
"788 607 OFFCURVE",
"782 603 OFFCURVE",
"776 597 CURVE",
"770 597 LINE SMOOTH",
"767 597 OFFCURVE",
"765 596 OFFCURVE",
"763 595 CURVE",
"762 596 LINE",
"759 597 OFFCURVE",
"755 598 OFFCURVE",
"752 598 CURVE",
"725 606 OFFCURVE",
"672 609 OFFCURVE",
"648 614 CURVE",
"646 610 LINE",
"639 611 OFFCURVE",
"631 615 OFFCURVE",
"623 615 CURVE SMOOTH",
"621 615 OFFCURVE",
"619 614 OFFCURVE",
"617 613 CURVE",
"613 614 OFFCURVE",
"607 616 OFFCURVE",
"604 616 CURVE SMOOTH",
"601 616 OFFCURVE",
"599 616 OFFCURVE",
"597 614 CURVE",
"589 615 OFFCURVE",
"575 620 OFFCURVE",
"567 617 CURVE",
"562 617 OFFCURVE",
"555 619 OFFCURVE",
"549 619 CURVE SMOOTH",
"544 619 OFFCURVE",
"540 618 OFFCURVE",
"536 616 CURVE",
"529 617 OFFCURVE",
"520 620 OFFCURVE",
"513 616 CURVE",
"513 615 LINE",
"489 618 OFFCURVE",
"350 599 OFFCURVE",
"339 583 CURVE SMOOTH",
"338 582 LINE",
"311 586 OFFCURVE",
"246 544 OFFCURVE",
"224 537 CURVE",
"223 535 OFFCURVE",
"191 515 OFFCURVE",
"188 513 CURVE SMOOTH",
"172 500 OFFCURVE",
"154 488 OFFCURVE",
"139 473 CURVE SMOOTH",
"89 422 OFFCURVE",
"42 340 OFFCURVE",
"42 267 CURVE SMOOTH",
"42 254 OFFCURVE",
"43 234 OFFCURVE",
"56 226 CURVE",
"59 228 LINE",
"66 228 OFFCURVE",
"85 195 OFFCURVE",
"91 191 CURVE",
"93 191 OFFCURVE",
"101 189 OFFCURVE",
"100 190 CURVE SMOOTH",
"80 216 OFFCURVE",
"72 261 OFFCURVE",
"72 279 CURVE SMOOTH",
"72 434 OFFCURVE",
"217 540 OFFCURVE",
"359 566 CURVE",
"361 576 OFFCURVE",
"428 575 OFFCURVE",
"439 588 CURVE",
"446 587 OFFCURVE",
"452 588 OFFCURVE",
"459 588 CURVE",
"460 593 OFFCURVE",
"495 594 OFFCURVE",
"501 594 CURVE SMOOTH",
"504 594 LINE",
"506 598 LINE",
"510 597 OFFCURVE",
"515 596 OFFCURVE",
"520 596 CURVE SMOOTH",
"523 596 OFFCURVE",
"527 596 OFFCURVE",
"529 599 CURVE",
"537 597 OFFCURVE",
"544 595 OFFCURVE",
"551 595 CURVE SMOOTH",
"567 595 OFFCURVE",
"583 589 OFFCURVE",
"599 589 CURVE SMOOTH",
"612 589 OFFCURVE",
"615 589 OFFCURVE",
"627 587 CURVE",
"629 591 LINE",
"630 590 LINE",
"632 590 OFFCURVE",
"635 589 OFFCURVE",
"637 591 CURVE",
"638 586 LINE",
"646 584 OFFCURVE",
"654 583 OFFCURVE",
"663 583 CURVE SMOOTH",
"668 583 OFFCURVE",
"673 583 OFFCURVE",
"678 586 CURVE",
"678 587 LINE",
"679 587 LINE",
"678 581 LINE",
"686 580 LINE",
"689 583 LINE",
"695 579 LINE",
"697 579 OFFCURVE",
"699 577 OFFCURVE",
"701 577 CURVE",
"702 583 LINE",
"706 582 LINE",
"705 574 LINE",
"709 573 OFFCURVE",
"713 576 OFFCURVE",
"716 579 CURVE",
"722 578 OFFCURVE",
"729 565 OFFCURVE",
"746 566 CURVE",
"735 555 OFFCURVE",
"726 544 OFFCURVE",
"722 540 CURVE SMOOTH",
"710 527 OFFCURVE",
"702 513 OFFCURVE",
"688 500 CURVE SMOOTH",
"681 493 OFFCURVE",
"622 434 OFFCURVE",
"616 427 CURVE",
"612 426 OFFCURVE",
"545 366 OFFCURVE",
"537 360 CURVE SMOOTH",
"507 340 OFFCURVE",
"503 329 OFFCURVE",
"475 307 CURVE SMOOTH",
"459 296 OFFCURVE",
"433 274 OFFCURVE",
"419 263 CURVE",
"417 262 OFFCURVE",
"415 255 OFFCURVE",
"411 253 CURVE SMOOTH",
"402 247 OFFCURVE",
"401 239 OFFCURVE",
"392 232 CURVE SMOOTH",
"355 203 LINE",
"352 203 OFFCURVE",
"300 156 OFFCURVE",
"288 146 CURVE SMOOTH",
"277 136 OFFCURVE",
"266 128 OFFCURVE",
"255 118 CURVE",
"247 108 LINE",
"147 33 LINE",
"141 34 OFFCURVE",
"142 35 OFFCURVE",
"140 31 CURVE",
"129 22 LINE",
"127 21 OFFCURVE",
"125 22 OFFCURVE",
"122 20 CURVE SMOOTH",
"104 6 LINE",
"89 -3 OFFCURVE",
"72 -9 OFFCURVE",
"57 -17 CURVE SMOOTH",
"36 -30 LINE",
"-11 -52 OFFCURVE",
"-58 -73 OFFCURVE",
"-106 -93 CURVE SMOOTH",
"-121 -98 OFFCURVE",
"-145 -98 OFFCURVE",
"-156 -108 CURVE",
"-167 -108 OFFCURVE",
"-176 -114 OFFCURVE",
"-186 -116 CURVE SMOOTH",
"-205 -121 OFFCURVE",
"-227 -123 OFFCURVE",
"-245 -130 CURVE",
"-244 -128 OFFCURVE",
"-247 -128 OFFCURVE",
"-248 -128 CURVE",
"-248 -131 OFFCURVE",
"-268 -128 OFFCURVE",
"-272 -131 CURVE",
"-275 -129 LINE",
"-294 -134 LINE",
"-312 -131 LINE",
"-334 -130 OFFCURVE",
"-360 -133 OFFCURVE",
"-376 -121 CURVE SMOOTH",
"-384 -115 OFFCURVE",
"-388 -107 OFFCURVE",
"-394 -100 CURVE",
"-396 -94 LINE",
"-401 -98 LINE",
"-401 -103 OFFCURVE",
"-385 -119 OFFCURVE",
"-382 -125 CURVE",
"-369 -133 LINE SMOOTH",
"-359 -139 OFFCURVE",
"-349 -142 OFFCURVE",
"-337 -146 CURVE SMOOTH",
"-334 -147 OFFCURVE",
"-330 -150 OFFCURVE",
"-326 -150 CURVE",
"-326 -149 LINE",
"-317 -152 LINE SMOOTH",
"-310 -154 OFFCURVE",
"-276 -160 OFFCURVE",
"-269 -155 CURVE",
"-266 -155 LINE",
"-244 -158 LINE",
"-239 -157 OFFCURVE",
"-233 -158 OFFCURVE",
"-227 -157 CURVE SMOOTH",
"-188 -147 LINE",
"-181 -147 OFFCURVE",
"-152 -141 OFFCURVE",
"-147 -138 CURVE",
"-137 -138 OFFCURVE",
"-129 -134 OFFCURVE",
"-120 -131 CURVE SMOOTH",
"-88 -121 LINE SMOOTH",
"-81 -118 OFFCURVE",
"-74 -116 OFFCURVE",
"-66 -114 CURVE",
"-45 -103 LINE",
"-38 -103 OFFCURVE",
"-19 -90 OFFCURVE",
"-12 -87 CURVE SMOOTH",
"17 -71 OFFCURVE",
"46 -55 OFFCURVE",
"73 -36 CURVE SMOOTH",
"106 -13 LINE",
"204 57 LINE",
"252 90 LINE",
"282 111 LINE",
"293 119 LINE",
"310 133 LINE",
"325 143 LINE SMOOTH",
"338 152 OFFCURVE",
"328 149 OFFCURVE",
"340 158 CURVE SMOOTH",
"349 165 OFFCURVE",
"362 180 OFFCURVE",
"371 186 CURVE SMOOTH",
"394 203 OFFCURVE",
"396 206 OFFCURVE",
"416 224 CURVE SMOOTH",
"470 273 LINE",
"513 312 LINE SMOOTH",
"517 316 OFFCURVE",
"526 319 OFFCURVE",
"531 324 CURVE SMOOTH",
"703 478 LINE SMOOTH",
"725 498 OFFCURVE",
"740 511 OFFCURVE",
"754 522 CURVE",
"627 371 OFFCURVE",
"519 189 OFFCURVE",
"446 19 CURVE SMOOTH",
"442 9 OFFCURVE",
"440 17 OFFCURVE",
"438 6 CURVE",
"435 -2 LINE",
"437 -20 OFFCURVE",
"443 -35 OFFCURVE",
"463 -40 CURVE SMOOTH",
"477 -44 OFFCURVE",
"506 -32 OFFCURVE",
"514 -26 CURVE",
"520 -18 LINE",
"520 -20 LINE",
"530 -8 LINE",
"539 0 OFFCURVE",
"535 -2 OFFCURVE",
"548 9 CURVE SMOOTH",
"577 33 LINE",
"625 72 LINE SMOOTH",
"637 81 OFFCURVE",
"658 101 OFFCURVE",
"669 111 CURVE SMOOTH",
"722 158 OFFCURVE",
"838 252 OFFCURVE",
"928 340 CURVE",
"918 316 LINE SMOOTH",
"916 310 OFFCURVE",
"913 306 OFFCURVE",
"911 300 CURVE SMOOTH",
"901 276 OFFCURVE",
"896 248 OFFCURVE",
"888 223 CURVE",
"889 219 LINE",
"890 220 LINE",
"893 211 OFFCURVE",
"886 211 OFFCURVE",
"883 206 CURVE SMOOTH",
"880 200 OFFCURVE",
"883 192 OFFCURVE",
"881 186 CURVE SMOOTH",
"880 181 OFFCURVE",
"877 179 OFFCURVE",
"876 175 CURVE SMOOTH",
"873 165 OFFCURVE",
"873 147 OFFCURVE",
"869 139 CURVE",
"870 132 LINE SMOOTH",
"870 125 OFFCURVE",
"866 117 OFFCURVE",
"868 109 CURVE",
"869 107 OFFCURVE",
"869 105 OFFCURVE",
"871 103 CURVE",
"872 105 OFFCURVE",
"871 108 OFFCURVE",
"871 110 CURVE",
"872 110 LINE",
"872 110 OFFCURVE",
"873 109 OFFCURVE",
"873 110 CURVE SMOOTH",
"874 104 OFFCURVE",
"868 78 OFFCURVE",
"866 73 CURVE",
"866 72 LINE",
"865 72 LINE",
"863 82 OFFCURVE",
"866 89 OFFCURVE",
"865 98 CURVE",
"864 98 LINE",
"865 94 OFFCURVE",
"862 81 OFFCURVE",
"862 76 CURVE SMOOTH",
"860 53 OFFCURVE",
"861 20 OFFCURVE",
"867 -4 CURVE SMOOTH",
"873 -27 OFFCURVE",
"886 -35 OFFCURVE",
"899 -50 CURVE",
"902 -55 OFFCURVE",
"905 -60 OFFCURVE",
"909 -63 CURVE SMOOTH",
"917 -70 OFFCURVE",
"929 -73 OFFCURVE",
"933 -86 CURVE",
"937 -86 OFFCURVE",
"949 -102 OFFCURVE",
"964 -100 CURVE SMOOTH",
"976 -97 OFFCURVE",
"1015 -37 OFFCURVE",
"1021 -21 CURVE SMOOTH",
"1024 -15 OFFCURVE",
"1040 23 OFFCURVE",
"1042 25 CURVE",
"1042 26 OFFCURVE",
"1061 77 OFFCURVE",
"1062 94 CURVE",
"1061 95 LINE",
"1057 94 OFFCURVE",
"1054 78 OFFCURVE",
"1051 74 CURVE",
"1049 73 OFFCURVE",
"1049 67 OFFCURVE",
"1049 64 CURVE",
"1046 63 OFFCURVE",
"1033 31 OFFCURVE",
"1028 25 CURVE",
"1028 24 LINE",
"1027 25 LINE",
"1024 17 OFFCURVE",
"1027 24 OFFCURVE",
"1023 19 CURVE",
"1017 8 LINE SMOOTH",
"1012 0 OFFCURVE",
"1006 -8 OFFCURVE",
"1002 -16 CURVE SMOOTH",
"987 -42 OFFCURVE",
"971 -63 OFFCURVE",
"946 -67 CURVE SMOOTH",
"934 -70 OFFCURVE",
"925 -71 OFFCURVE",
"920 -49 CURVE SMOOTH",
"918 -39 OFFCURVE",
"917 -29 OFFCURVE",
"917 -19 CURVE SMOOTH",
"914 68 OFFCURVE",
"930 125 OFFCURVE",
"949 198 CURVE SMOOTH",
"952 210 OFFCURVE",
"956 231 OFFCURVE",
"962 239 CURVE",
"961 250 OFFCURVE",
"1004 369 OFFCURVE",
"1013 379 CURVE",
"1013 380 OFFCURVE",
"1028 409 OFFCURVE",
"1029 411 CURVE",
"1043 427 LINE",
"1045 431 OFFCURVE",
"1047 437 OFFCURVE",
"1050 441 CURVE SMOOTH",
"1061 458 OFFCURVE",
"1073 474 OFFCURVE",
"1086 489 CURVE SMOOTH",
"1090 495 OFFCURVE",
"1107 513 OFFCURVE",
"1109 519 CURVE",
"1115 520 OFFCURVE",
"1117 531 OFFCURVE",
"1123 533 CURVE",
"1124 536 LINE",
"1133 537 OFFCURVE",
"1137 554 OFFCURVE",
"1153 557 CURVE SMOOTH",
"1160 558 OFFCURVE",
"1174 554 OFFCURVE",
"1177 542 CURVE SMOOTH",
"1183 515 OFFCURVE",
"1160 454 OFFCURVE",
"1193 492 CURVE SMOOTH",
"1200 500 OFFCURVE",
"1207 515 OFFCURVE",
"1203 533 CURVE SMOOTH"
);
}
);
width = 1081;
}
);
note = M;
unicode = 004D;
},
{
color = 3;
glyphname = N;
lastChange = "2021-07-28 11:40:38 +0000";
layers = (
{
anchors = (
{
name = bottom;
position = "{446, 0}";
},
{
name = top;
position = "{855, 548}";
}
);
layerId = "E8487A59-2E36-4739-8DF2-414A9818920F";
paths = (
{
closed = 1;
nodes = (
"706 585 OFFCURVE",
"664 610 OFFCURVE",
"648 611 CURVE",
"633 603 LINE",
"628 597 OFFCURVE",
"633 599 OFFCURVE",
"629 594 CURVE",
"628 595 OFFCURVE",
"627 595 OFFCURVE",
"626 595 CURVE",
"624 596 OFFCURVE",
"622 595 OFFCURVE",
"619 593 CURVE",
"614 596 OFFCURVE",
"608 602 OFFCURVE",
"600 600 CURVE",
"596 601 OFFCURVE",
"592 604 OFFCURVE",
"588 604 CURVE SMOOTH",
"584 605 OFFCURVE",
"580 605 OFFCURVE",
"576 603 CURVE",
"572 606 OFFCURVE",
"567 609 OFFCURVE",
"560 606 CURVE",
"559 605 LINE",
"543 611 OFFCURVE",
"430 609 OFFCURVE",
"413 595 CURVE",
"383 590 LINE",
"365 597 OFFCURVE",
"293 564 OFFCURVE",
"273 559 CURVE",
"271 557 OFFCURVE",
"236 541 OFFCURVE",
"233 539 CURVE SMOOTH",
"213 528 OFFCURVE",
"193 519 OFFCURVE",
"173 506 CURVE SMOOTH",
"107 461 OFFCURVE",
"34 383 OFFCURVE",
"-9 310 CURVE SMOOTH",
"-17 297 OFFCURVE",
"-30 261 OFFCURVE",
"-26 252 CURVE",
"-11 266 LINE",
"-5 265 OFFCURVE",
"-12 254 OFFCURVE",
"-9 250 CURVE",
"-8 189 OFFCURVE",
"0 199 OFFCURVE",
"0 201 CURVE SMOOTH",
"-3 256 OFFCURVE",
"9 282 OFFCURVE",
"15 301 CURVE SMOOTH",
"73 459 OFFCURVE",
"271 550 OFFCURVE",
"390 558 CURVE",
"397 568 OFFCURVE",
"455 551 OFFCURVE",
"471 562 CURVE",
"475 560 OFFCURVE",
"481 561 OFFCURVE",
"485 559 CURVE",
"489 564 OFFCURVE",
"519 557 OFFCURVE",
"523 557 CURVE SMOOTH",
"525 557 LINE",
"528 561 LINE",
"531 559 OFFCURVE",
"534 557 OFFCURVE",
"538 557 CURVE",
"540 556 OFFCURVE",
"543 557 OFFCURVE",
"546 559 CURVE",
"551 556 OFFCURVE",
"555 554 OFFCURVE",
"560 553 CURVE SMOOTH",
"584 549 LINE",
"593 547 LINE",
"585 536 OFFCURVE",
"576 526 OFFCURVE",
"572 520 CURVE SMOOTH",
"504 422 OFFCURVE",
"483 376 OFFCURVE",
"424 295 CURVE SMOOTH",
"418 286 OFFCURVE",
"404 261 OFFCURVE",
"396 257 CURVE SMOOTH",
"394 256 LINE",
"390 240 OFFCURVE",
"374 226 OFFCURVE",
"366 214 CURVE SMOOTH",
"355 199 OFFCURVE",
"346 184 OFFCURVE",
"336 169 CURVE",
"337 169 OFFCURVE",
"329 158 OFFCURVE",
"327 156 CURVE",
"308 128 OFFCURVE",
"289 99 OFFCURVE",
"272 69 CURVE SMOOTH",
"265 58 OFFCURVE",
"259 46 OFFCURVE",
"252 34 CURVE",
"251 30 OFFCURVE",
"250 26 OFFCURVE",
"248 23 CURVE",
"245 11 OFFCURVE",
"239 2 OFFCURVE",
"235 -9 CURVE SMOOTH",
"227 -35 OFFCURVE",
"237 -55 OFFCURVE",
"249 -66 CURVE SMOOTH",
"252 -69 OFFCURVE",
"276 -6 OFFCURVE",
"282 -3 CURVE",
"281 -3 LINE",
"288 27 OFFCURVE",
"314 56 OFFCURVE",
"330 80 CURVE",
"348 115 LINE",
"368 140 LINE",
"376 157 LINE",
"395 190 LINE SMOOTH",
"405 208 OFFCURVE",
"427 212 OFFCURVE",
"427 235 CURVE",
"430 235 OFFCURVE",
"440 260 OFFCURVE",
"442 264 CURVE",
"446 281 OFFCURVE",
"458 285 OFFCURVE",
"467 297 CURVE SMOOTH",
"478 312 OFFCURVE",
"490 326 OFFCURVE",
"502 341 CURVE SMOOTH",
"508 348 OFFCURVE",
"511 357 OFFCURVE",
"516 364 CURVE SMOOTH",
"530 384 LINE",
"546 401 LINE",
"555 416 LINE",
"562 424 OFFCURVE",
"569 431 OFFCURVE",
"573 441 CURVE",
"578 441 LINE",
"579 442 LINE",
"584 451 OFFCURVE",
"591 461 OFFCURVE",
"599 467 CURVE",
"616 494 OFFCURVE",
"669 511 OFFCURVE",
"691 555 CURVE SMOOTH"
);
},
{
closed = 1;
nodes = (
"915 495 OFFCURVE",
"865 542 OFFCURVE",
"855 548 CURVE SMOOTH",
"798 579 OFFCURVE",
"752 504 OFFCURVE",
"734 488 CURVE SMOOTH",
"723 477 OFFCURVE",
"702 465 OFFCURVE",
"696 450 CURVE",
"697 449 LINE",
"693 450 LINE",
"691 450 LINE",
"643 399 LINE SMOOTH",
"631 386 OFFCURVE",
"601 369 OFFCURVE",
"597 350 CURVE",
"592 351 OFFCURVE",
"563 320 OFFCURVE",
"562 317 CURVE",
"532 284 OFFCURVE",
"500 253 OFFCURVE",
"472 219 CURVE SMOOTH",
"466 212 OFFCURVE",
"461 202 OFFCURVE",
"455 195 CURVE SMOOTH",
"445 183 OFFCURVE",
"435 173 OFFCURVE",
"425 162 CURVE",
"408 151 OFFCURVE",
"404 135 OFFCURVE",
"389 125 CURVE",
"365 97 LINE",
"292 36 OFFCURVE",
"268 -31 OFFCURVE",
"352 64 CURVE SMOOTH",
"456 182 OFFCURVE",
"567 293 OFFCURVE",
"664 382 CURVE SMOOTH",
"675 392 OFFCURVE",
"690 407 OFFCURVE",
"700 419 CURVE SMOOTH",
"709 431 OFFCURVE",
"717 446 OFFCURVE",
"733 450 CURVE",
"733 450 OFFCURVE",
"743 459 OFFCURVE",
"753 466 CURVE",
"764 471 OFFCURVE",
"780 464 OFFCURVE",
"780 464 CURVE",
"782 448 OFFCURVE",
"761 432 OFFCURVE",
"755 428 CURVE",
"733 409 OFFCURVE",
"715 384 OFFCURVE",
"696 361 CURVE SMOOTH",
"665 323 LINE",
"652 309 LINE SMOOTH",
"633 289 OFFCURVE",
"638 291 OFFCURVE",
"623 268 CURVE",
"623 263 LINE",
"626 264 LINE",
"628 255 OFFCURVE",
"617 256 OFFCURVE",
"613 252 CURVE SMOOTH",
"608 246 OFFCURVE",
"610 238 OFFCURVE",
"607 232 CURVE SMOOTH",
"605 227 OFFCURVE",
"599 226 OFFCURVE",
"597 222 CURVE SMOOTH",
"591 212 OFFCURVE",
"590 194 OFFCURVE",
"582 187 CURVE",
"583 180 LINE",
"582 172 OFFCURVE",
"575 166 OFFCURVE",
"577 157 CURVE",
"577 155 OFFCURVE",
"578 153 OFFCURVE",
"580 151 CURVE",
"582 152 OFFCURVE",
"581 156 OFFCURVE",
"581 158 CURVE",
"583 158 LINE",
"583 157 OFFCURVE",
"584 157 OFFCURVE",
"584 157 CURVE",
"586 149 OFFCURVE",
"568 122 OFFCURVE",
"568 121 CURVE",
"564 121 OFFCURVE",
"571 143 OFFCURVE",
"571 147 CURVE",
"570 147 LINE",
"570 143 OFFCURVE",
"564 130 OFFCURVE",
"563 125 CURVE SMOOTH",
"558 102 OFFCURVE",
"559 97 OFFCURVE",
"559 97 CURVE",
"569 87 OFFCURVE",
"569 69 OFFCURVE",
"582 52 CURVE SMOOTH",
"586 47 OFFCURVE",
"589 41 OFFCURVE",
"593 37 CURVE SMOOTH",
"601 28 OFFCURVE",
"613 23 OFFCURVE",
"615 9 CURVE",
"618 9 OFFCURVE",
"627 -10 OFFCURVE",
"644 -9 CURVE SMOOTH",
"658 -8 OFFCURVE",
"718 47 OFFCURVE",
"730 62 CURVE SMOOTH",
"734 68 OFFCURVE",
"758 101 OFFCURVE",
"761 103 CURVE",
"771 118 OFFCURVE",
"798 142 OFFCURVE",
"795 140 CURVE",
"808 155 OFFCURVE",
"789 158 OFFCURVE",
"784 144 CURVE",
"781 143 OFFCURVE",
"763 120 OFFCURVE",
"757 115 CURVE",
"757 114 OFFCURVE",
"751 107 OFFCURVE",
"750 107 CURVE SMOOTH",
"749 107 OFFCURVE",
"746 105 OFFCURVE",
"744 102 CURVE",
"733 92 LINE SMOOTH",
"725 85 OFFCURVE",
"717 77 OFFCURVE",
"709 69 CURVE SMOOTH",
"686 46 OFFCURVE",
"663 30 OFFCURVE",
"634 27 CURVE SMOOTH",
"620 25 OFFCURVE",
"611 25 OFFCURVE",
"606 49 CURVE SMOOTH",
"604 59 OFFCURVE",
"604 69 OFFCURVE",
"604 79 CURVE SMOOTH",
"607 127 OFFCURVE",
"638 164 OFFCURVE",
"673 235 CURVE SMOOTH",
"679 247 OFFCURVE",
"716 301 OFFCURVE",
"726 309 CURVE",
"753 345 OFFCURVE",
"815 428 OFFCURVE",
"829 438 CURVE",
"843 436 OFFCURVE",
"878 471 OFFCURVE",
"889 479 CURVE SMOOTH",
"894 482 OFFCURVE",
"898 486 OFFCURVE",
"903 490 CURVE"
);
}
);
width = 782;
}
);
note = N;
unicode = 004E;
},
{
color = 3;
glyphname = Eng;
lastChange = "2021-07-28 11:24:51 +0000";
layers = (
{
background = {
paths = (
{
closed = 1;
nodes = (
"-5 265 OFFCURVE",
"-12 254 OFFCURVE",
"-9 250 CURVE",
"-8 189 OFFCURVE",
"0 199 OFFCURVE",
"0 201 CURVE SMOOTH",
"-3 256 OFFCURVE",
"9 282 OFFCURVE",
"15 301 CURVE SMOOTH",
"73 459 OFFCURVE",
"271 550 OFFCURVE",
"390 558 CURVE",
"397 568 OFFCURVE",
"455 551 OFFCURVE",
"471 562 CURVE",
"475 560 OFFCURVE",
"481 561 OFFCURVE",
"485 559 CURVE",
"489 564 OFFCURVE",
"519 557 OFFCURVE",
"523 557 CURVE SMOOTH",
"525 557 LINE",
"528 561 LINE",
"531 559 OFFCURVE",
"534 557 OFFCURVE",
"538 557 CURVE",
"540 556 OFFCURVE",
"543 557 OFFCURVE",
"546 559 CURVE",
"551 556 OFFCURVE",
"555 554 OFFCURVE",
"560 553 CURVE SMOOTH",
"584 549 LINE",
"593 547 LINE",
"585 536 OFFCURVE",
"576 526 OFFCURVE",
"572 520 CURVE SMOOTH",
"504 422 OFFCURVE",
"483 376 OFFCURVE",
"424 295 CURVE SMOOTH",
"418 286 OFFCURVE",
"404 261 OFFCURVE",
"396 257 CURVE SMOOTH",
"394 256 LINE",
"390 240 OFFCURVE",
"374 226 OFFCURVE",
"366 214 CURVE SMOOTH",
"355 199 OFFCURVE",
"346 184 OFFCURVE",
"336 169 CURVE",
"337 169 OFFCURVE",
"329 158 OFFCURVE",
"327 156 CURVE",
"308 128 OFFCURVE",
"289 99 OFFCURVE",
"272 69 CURVE SMOOTH",
"265 58 OFFCURVE",
"259 46 OFFCURVE",
"252 34 CURVE",
"251 30 OFFCURVE",
"250 26 OFFCURVE",
"248 23 CURVE",
"245 11 OFFCURVE",
"239 2 OFFCURVE",
"235 -9 CURVE SMOOTH",
"227 -35 OFFCURVE",
"237 -55 OFFCURVE",
"249 -66 CURVE SMOOTH",
"252 -69 OFFCURVE",
"276 -6 OFFCURVE",
"282 -3 CURVE",
"281 -3 LINE",
"288 27 OFFCURVE",
"314 56 OFFCURVE",
"330 80 CURVE",
"348 115 LINE",
"368 140 LINE",
"376 157 LINE",
"395 190 LINE SMOOTH",
"405 208 OFFCURVE",
"427 212 OFFCURVE",
"427 235 CURVE",
"430 235 OFFCURVE",
"440 260 OFFCURVE",
"442 264 CURVE",
"446 281 OFFCURVE",
"458 285 OFFCURVE",
"467 297 CURVE SMOOTH",
"478 312 OFFCURVE",
"490 326 OFFCURVE",
"502 341 CURVE SMOOTH",
"508 348 OFFCURVE",
"511 357 OFFCURVE",
"516 364 CURVE SMOOTH",
"530 384 LINE",
"546 401 LINE",
"555 416 LINE",
"562 424 OFFCURVE",
"569 431 OFFCURVE",
"573 441 CURVE",
"578 441 LINE",
"579 442 LINE",
"584 451 OFFCURVE",
"591 461 OFFCURVE",
"599 467 CURVE",
"616 494 OFFCURVE",
"669 511 OFFCURVE",
"691 555 CURVE SMOOTH",
"706 585 OFFCURVE",
"664 610 OFFCURVE",
"648 611 CURVE",
"633 603 LINE",
"628 597 OFFCURVE",
"633 599 OFFCURVE",
"629 594 CURVE",
"628 595 OFFCURVE",
"627 595 OFFCURVE",
"626 595 CURVE",
"624 596 OFFCURVE",
"622 595 OFFCURVE",
"619 593 CURVE",
"614 596 OFFCURVE",
"608 602 OFFCURVE",
"600 600 CURVE",
"596 601 OFFCURVE",
"592 604 OFFCURVE",
"588 604 CURVE SMOOTH",
"584 605 OFFCURVE",
"580 605 OFFCURVE",
"576 603 CURVE",
"572 606 OFFCURVE",
"567 609 OFFCURVE",
"560 606 CURVE",
"559 605 LINE",
"543 611 OFFCURVE",
"430 609 OFFCURVE",
"413 595 CURVE",
"383 590 LINE",
"365 597 OFFCURVE",
"293 564 OFFCURVE",
"273 559 CURVE",
"271 557 OFFCURVE",
"236 541 OFFCURVE",
"233 539 CURVE SMOOTH",
"213 528 OFFCURVE",
"193 519 OFFCURVE",
"173 506 CURVE SMOOTH",
"107 461 OFFCURVE",
"34 383 OFFCURVE",
"-9 310 CURVE SMOOTH",
"-17 297 OFFCURVE",
"-30 261 OFFCURVE",
"-26 252 CURVE",
"-11 266 LINE"
);
},
{
closed = 1;
nodes = (
"798 579 OFFCURVE",
"752 504 OFFCURVE",
"734 488 CURVE SMOOTH",
"723 477 OFFCURVE",
"702 465 OFFCURVE",
"696 450 CURVE",
"697 449 LINE",
"693 450 LINE",
"691 450 LINE",
"643 399 LINE SMOOTH",
"631 386 OFFCURVE",
"601 369 OFFCURVE",
"597 350 CURVE",
"592 351 OFFCURVE",
"563 320 OFFCURVE",
"562 317 CURVE",
"532 284 OFFCURVE",
"500 253 OFFCURVE",
"472 219 CURVE SMOOTH",
"466 212 OFFCURVE",
"461 202 OFFCURVE",
"455 195 CURVE SMOOTH",
"445 183 OFFCURVE",
"435 173 OFFCURVE",
"425 162 CURVE",
"408 151 OFFCURVE",
"404 135 OFFCURVE",
"389 125 CURVE",
"365 97 LINE",
"292 36 OFFCURVE",
"268 -31 OFFCURVE",
"352 64 CURVE SMOOTH",
"456 182 OFFCURVE",
"567 293 OFFCURVE",
"664 382 CURVE SMOOTH",
"675 392 OFFCURVE",
"690 407 OFFCURVE",
"700 419 CURVE SMOOTH",
"709 431 OFFCURVE",
"717 446 OFFCURVE",
"733 450 CURVE",
"733 450 OFFCURVE",
"743 459 OFFCURVE",
"753 466 CURVE",
"764 471 OFFCURVE",
"780 464 OFFCURVE",
"780 464 CURVE",
"782 448 OFFCURVE",
"761 432 OFFCURVE",
"755 428 CURVE",
"733 409 OFFCURVE",
"715 384 OFFCURVE",
"696 361 CURVE SMOOTH",
"665 323 LINE",
"652 309 LINE SMOOTH",
"633 289 OFFCURVE",
"638 291 OFFCURVE",
"623 268 CURVE",
"623 263 LINE",
"626 264 LINE",
"628 255 OFFCURVE",
"617 256 OFFCURVE",
"613 252 CURVE SMOOTH",
"608 246 OFFCURVE",
"610 238 OFFCURVE",
"607 232 CURVE SMOOTH",
"605 227 OFFCURVE",
"599 226 OFFCURVE",
"597 222 CURVE SMOOTH",
"593 215 OFFCURVE",
"591 203 OFFCURVE",
"587 195 CURVE",
"584 191 LINE SMOOTH",
"583 190 OFFCURVE",
"583 188 OFFCURVE",
"582 187 CURVE",
"580 182 OFFCURVE",
"577 177 OFFCURVE",
"574 172 CURVE",
"571 161 LINE",
"564 154 LINE",
"557 140 LINE",
"550 131 LINE",
"534 102 LINE",
"521 85 LINE",
"501 51 LINE",
"490 40 LINE",
"485 29 LINE",
"473 14 LINE",
"471 7 LINE SMOOTH",
"470 3 OFFCURVE",
"461 1 OFFCURVE",
"459 -3 CURVE SMOOTH",
"455 -10 LINE",
"446 -20 OFFCURVE",
"438 -31 OFFCURVE",
"433 -44 CURVE",
"434 -45 OFFCURVE",
"430 -43 OFFCURVE",
"429 -42 CURVE",
"429 -43 LINE",
"426 -50 OFFCURVE",
"420 -54 OFFCURVE",
"415 -59 CURVE",
"408 -69 OFFCURVE",
"398 -77 OFFCURVE",
"392 -89 CURVE SMOOTH",
"387 -99 LINE",
"374 -113 LINE",
"368 -111 LINE",
"367 -114 LINE",
"360 -124 LINE",
"357 -125 OFFCURVE",
"355 -124 OFFCURVE",
"353 -126 CURVE SMOOTH",
"339 -141 LINE",
"327 -151 OFFCURVE",
"312 -157 OFFCURVE",
"299 -166 CURVE SMOOTH",
"293 -170 OFFCURVE",
"288 -175 OFFCURVE",
"283 -180 CURVE",
"242 -203 OFFCURVE",
"200 -225 OFFCURVE",
"157 -246 CURVE SMOOTH",
"144 -252 OFFCURVE",
"118 -252 OFFCURVE",
"111 -263 CURVE",
"99 -262 OFFCURVE",
"92 -268 OFFCURVE",
"83 -271 CURVE SMOOTH",
"64 -276 OFFCURVE",
"42 -278 OFFCURVE",
"26 -285 CURVE",
"26 -284 OFFCURVE",
"23 -283 OFFCURVE",
"22 -283 CURVE",
"23 -287 OFFCURVE",
"0 -283 OFFCURVE",
"-3 -287 CURVE",
"-7 -285 LINE",
"-25 -289 LINE",
"-32 -289 OFFCURVE",
"-39 -287 OFFCURVE",
"-45 -287 CURVE SMOOTH",
"-69 -286 OFFCURVE",
"-95 -289 OFFCURVE",
"-118 -276 CURVE SMOOTH",
"-128 -270 OFFCURVE",
"-135 -261 OFFCURVE",
"-144 -254 CURVE",
"-149 -248 LINE",
"-153 -251 LINE",
"-151 -257 OFFCURVE",
"-128 -273 OFFCURVE",
"-122 -280 CURVE",
"-116 -283 OFFCURVE",
"-111 -286 OFFCURVE",
"-105 -288 CURVE",
"-91 -295 OFFCURVE",
"-79 -299 OFFCURVE",
"-66 -303 CURVE SMOOTH",
"-61 -304 OFFCURVE",
"-57 -306 OFFCURVE",
"-52 -306 CURVE",
"-42 -308 LINE SMOOTH",
"-33 -310 OFFCURVE",
"5 -317 OFFCURVE",
"11 -312 CURVE",
"14 -312 LINE",
"39 -316 LINE",
"43 -314 OFFCURVE",
"50 -316 OFFCURVE",
"56 -314 CURVE SMOOTH",
"93 -304 LINE",
"101 -304 OFFCURVE",
"128 -297 OFFCURVE",
"133 -294 CURVE",
"143 -294 OFFCURVE",
"150 -290 OFFCURVE",
"158 -287 CURVE SMOOTH",
"169 -284 OFFCURVE",
"178 -280 OFFCURVE",
"188 -276 CURVE SMOOTH",
"195 -273 OFFCURVE",
"202 -271 OFFCURVE",
"208 -268 CURVE SMOOTH",
"227 -257 LINE",
"234 -257 OFFCURVE",
"249 -244 OFFCURVE",
"254 -240 CURVE SMOOTH",
"279 -223 OFFCURVE",
"302 -205 OFFCURVE",
"324 -185 CURVE SMOOTH",
"349 -162 LINE SMOOTH",
"359 -152 OFFCURVE",
"367 -142 OFFCURVE",
"376 -132 CURVE SMOOTH",
"381 -127 OFFCURVE",
"393 -120 OFFCURVE",
"395 -113 CURVE",
"399 -113 OFFCURVE",
"426 -82 OFFCURVE",
"431 -77 CURVE SMOOTH",
"449 -61 OFFCURVE",
"464 -42 OFFCURVE",
"480 -23 CURVE SMOOTH",
"524 28 OFFCURVE",
"565 83 OFFCURVE",
"603 140 CURVE SMOOTH",
"612 153 LINE",
"638 183 OFFCURVE",
"661 211 OFFCURVE",
"673 235 CURVE SMOOTH",
"679 247 OFFCURVE",
"716 301 OFFCURVE",
"726 309 CURVE",
"753 345 OFFCURVE",
"815 428 OFFCURVE",
"829 438 CURVE",
"843 436 OFFCURVE",
"878 471 OFFCURVE",
"889 479 CURVE SMOOTH",
"894 482 OFFCURVE",
"898 486 OFFCURVE",
"903 490 CURVE",
"915 495 OFFCURVE",
"865 542 OFFCURVE",
"855 548 CURVE SMOOTH"
);
}
);
};
layerId = "E8487A59-2E36-4739-8DF2-414A9818920F";
paths = (
{
closed = 1;
nodes = (
"810 560 OFFCURVE",
"737 499 OFFCURVE",
"718 482 CURVE SMOOTH",
"706 470 OFFCURVE",
"683 457 OFFCURVE",
"676 441 CURVE",
"678 440 LINE",
"673 441 LINE",
"671 441 LINE",
"619 387 LINE SMOOTH",
"606 373 OFFCURVE",
"573 355 OFFCURVE",
"569 335 CURVE",
"563 336 OFFCURVE",
"532 303 OFFCURVE",
"531 300 CURVE",
"498 264 OFFCURVE",
"463 231 OFFCURVE",
"433 195 CURVE SMOOTH",
"426 188 OFFCURVE",
"404 172 OFFCURVE",
"398 164 CURVE SMOOTH",
"387 151 OFFCURVE",
"392 146 OFFCURVE",
"381 134 CURVE",
"363 123 OFFCURVE",
"357 107 OFFCURVE",
"342 95 CURVE SMOOTH",
"332 87 LINE",
"334 90 OFFCURVE",
"335 92 OFFCURVE",
"335 91 CURVE",
"358 136 OFFCURVE",
"357 133 OFFCURVE",
"368 140 CURVE",
"376 157 LINE",
"395 190 LINE SMOOTH",
"405 208 OFFCURVE",
"427 212 OFFCURVE",
"427 235 CURVE",
"430 235 OFFCURVE",
"440 260 OFFCURVE",
"442 264 CURVE",
"446 281 OFFCURVE",
"458 285 OFFCURVE",
"467 297 CURVE SMOOTH",
"478 312 OFFCURVE",
"490 326 OFFCURVE",
"502 341 CURVE SMOOTH",
"508 348 OFFCURVE",
"511 357 OFFCURVE",
"516 364 CURVE SMOOTH",
"530 384 LINE",
"546 401 LINE",
"555 416 LINE",
"562 424 OFFCURVE",
"569 431 OFFCURVE",
"573 441 CURVE",
"578 441 LINE",
"579 442 LINE",
"584 451 OFFCURVE",
"591 461 OFFCURVE",
"599 467 CURVE",
"616 494 OFFCURVE",
"669 511 OFFCURVE",
"691 555 CURVE SMOOTH",
"706 585 OFFCURVE",
"664 610 OFFCURVE",
"648 611 CURVE",
"633 603 LINE",
"628 597 OFFCURVE",
"633 599 OFFCURVE",
"629 594 CURVE",
"628 595 OFFCURVE",
"627 595 OFFCURVE",
"626 595 CURVE",
"624 596 OFFCURVE",
"622 595 OFFCURVE",
"619 593 CURVE",
"614 596 OFFCURVE",
"608 602 OFFCURVE",
"600 600 CURVE",
"596 601 OFFCURVE",
"592 604 OFFCURVE",
"588 604 CURVE SMOOTH",
"584 605 OFFCURVE",
"580 605 OFFCURVE",
"576 603 CURVE",
"572 606 OFFCURVE",
"567 609 OFFCURVE",
"560 606 CURVE",
"559 605 LINE",
"543 611 OFFCURVE",
"430 609 OFFCURVE",
"413 595 CURVE",
"383 590 LINE",
"365 597 OFFCURVE",
"293 564 OFFCURVE",
"273 559 CURVE",
"271 557 OFFCURVE",
"236 541 OFFCURVE",
"233 539 CURVE SMOOTH",
"213 528 OFFCURVE",
"193 519 OFFCURVE",
"173 506 CURVE SMOOTH",
"107 461 OFFCURVE",
"34 383 OFFCURVE",
"-9 310 CURVE SMOOTH",
"-17 297 OFFCURVE",
"-30 261 OFFCURVE",
"-26 252 CURVE",
"-11 266 LINE",
"-5 265 OFFCURVE",
"-12 254 OFFCURVE",
"-9 250 CURVE",
"-8 189 OFFCURVE",
"0 199 OFFCURVE",
"0 201 CURVE SMOOTH",
"-3 256 OFFCURVE",
"9 282 OFFCURVE",
"15 301 CURVE SMOOTH",
"73 459 OFFCURVE",
"271 550 OFFCURVE",
"390 558 CURVE",
"397 568 OFFCURVE",
"455 551 OFFCURVE",
"471 562 CURVE",
"475 560 OFFCURVE",
"481 561 OFFCURVE",
"485 559 CURVE",
"489 564 OFFCURVE",
"519 557 OFFCURVE",
"523 557 CURVE SMOOTH",
"525 557 LINE",
"528 561 LINE",
"531 559 OFFCURVE",
"534 557 OFFCURVE",
"538 557 CURVE",
"540 556 OFFCURVE",
"543 557 OFFCURVE",
"546 559 CURVE",
"551 556 OFFCURVE",
"555 554 OFFCURVE",
"560 553 CURVE SMOOTH",
"584 549 LINE",
"593 547 LINE",
"585 536 OFFCURVE",
"576 526 OFFCURVE",
"572 520 CURVE SMOOTH",
"504 422 OFFCURVE",
"483 376 OFFCURVE",
"424 295 CURVE SMOOTH",
"418 286 OFFCURVE",
"404 261 OFFCURVE",
"396 257 CURVE SMOOTH",
"394 256 LINE",
"390 240 OFFCURVE",
"374 226 OFFCURVE",
"366 214 CURVE SMOOTH",
"355 199 OFFCURVE",
"346 184 OFFCURVE",
"336 169 CURVE",
"335 169 OFFCURVE",
"314 136 OFFCURVE",
"310 128 CURVE SMOOTH",
"305 119 OFFCURVE",
"301 109 OFFCURVE",
"296 99 CURVE SMOOTH",
"295 96 OFFCURVE",
"294 92 OFFCURVE",
"293 90 CURVE",
"291 80 OFFCURVE",
"286 72 OFFCURVE",
"284 63 CURVE SMOOTH",
"279 46 OFFCURVE",
"282 33 OFFCURVE",
"288 23 CURVE",
"287 20 OFFCURVE",
"288 19 OFFCURVE",
"290 19 CURVE",
"293 15 LINE",
"294 15 OFFCURVE",
"297 21 OFFCURVE",
"302 30 CURVE",
"415 154 OFFCURVE",
"522 269 OFFCURVE",
"628 364 CURVE SMOOTH",
"640 375 OFFCURVE",
"662 396 OFFCURVE",
"673 408 CURVE SMOOTH",
"683 421 OFFCURVE",
"699 437 OFFCURVE",
"717 441 CURVE",
"761 474 LINE SMOOTH",
"782 490 OFFCURVE",
"803 487 OFFCURVE",
"793 477 CURVE",
"795 461 OFFCURVE",
"788 450 OFFCURVE",
"782 446 CURVE",
"777 426 OFFCURVE",
"787 413 OFFCURVE",
"761 395 CURVE SMOOTH",
"742 382 OFFCURVE",
"718 337 OFFCURVE",
"704 316 CURVE",
"696 310 OFFCURVE",
"674 269 OFFCURVE",
"662 266 CURVE SMOOTH",
"653 264 OFFCURVE",
"657 245 OFFCURVE",
"648 230 CURVE",
"604 174 LINE",
"601 160 OFFCURVE",
"547 96 OFFCURVE",
"539 80 CURVE SMOOTH",
"513 37 OFFCURVE",
"524 58 OFFCURVE",
"490 0 CURVE",
"484 -8 OFFCURVE",
"442 -54 OFFCURVE",
"439 -59 CURVE SMOOTH",
"434 -65 OFFCURVE",
"432 -85 OFFCURVE",
"415 -101 CURVE",
"404 -124 OFFCURVE",
"387 -130 OFFCURVE",
"345 -175 CURVE",
"335 -180 OFFCURVE",
"331 -191 OFFCURVE",
"323 -198 CURVE SMOOTH",
"314 -206 OFFCURVE",
"248 -253 OFFCURVE",
"240 -242 CURVE SMOOTH",
"220 -214 OFFCURVE",
"239 -167 OFFCURVE",
"253 -148 CURVE SMOOTH",
"281 -111 OFFCURVE",
"298 -84 OFFCURVE",
"365 -50 CURVE",
"380 -41 OFFCURVE",
"329 -49 OFFCURVE",
"313 -60 CURVE SMOOTH",
"262 -96 OFFCURVE",
"246 -110 OFFCURVE",
"229 -143 CURVE SMOOTH",
"219 -161 OFFCURVE",
"209 -174 OFFCURVE",
"207 -191 CURVE",
"197 -211 OFFCURVE",
"210 -236 OFFCURVE",
"212 -245 CURVE",
"209 -269 OFFCURVE",
"238 -280 OFFCURVE",
"256 -280 CURVE",
"280 -275 LINE SMOOTH",
"291 -273 OFFCURVE",
"310 -263 OFFCURVE",
"324 -256 CURVE SMOOTH",
"340 -247 OFFCURVE",
"345 -224 OFFCURVE",
"359 -212 CURVE SMOOTH",
"385 -189 OFFCURVE",
"404 -198 OFFCURVE",
"465 -101 CURVE SMOOTH",
"470 -92 OFFCURVE",
"556 41 OFFCURVE",
"562 49 CURVE SMOOTH",
"604 105 OFFCURVE",
"623 142 OFFCURVE",
"668 214 CURVE",
"669 215 OFFCURVE",
"670 217 OFFCURVE",
"671 219 CURVE SMOOTH",
"674 223 OFFCURVE",
"676 227 OFFCURVE",
"678 231 CURVE SMOOTH",
"692 252 OFFCURVE",
"714 282 OFFCURVE",
"721 288 CURVE",
"748 324 OFFCURVE",
"815 428 OFFCURVE",
"829 438 CURVE",
"843 455 OFFCURVE",
"843 459 OFFCURVE",
"854 468 CURVE SMOOTH",
"875 485 OFFCURVE",
"895 530 OFFCURVE",
"850 546 CURVE SMOOTH"
);
}
);
width = 782;
}
);
unicode = 014A;
},
{
color = 3;
glyphname = O;
lastChange = "2021-07-28 11:42:11 +0000";
layers = (
{
anchors = (
{
name = bottom;
position = "{40, -8}";
},
{
name = center;
position = "{260, 300}";
},
{
name = ogonek;
position = "{54, -15}";
},
{
name = top;
position = "{629, 600}";
},
{
name = topleft;
position = "{20, 600}";
},
{
name = topright;
position = "{696, 529}";
}
);
layerId = "E8487A59-2E36-4739-8DF2-414A9818920F";
paths = (
{
closed = 1;
nodes = (
"710 545 OFFCURVE",
"665 572 OFFCURVE",
"649 587 CURVE SMOOTH",
"638 598 OFFCURVE",
"629 603 OFFCURVE",
"613 603 CURVE SMOOTH",
"594 603 OFFCURVE",
"565 591 OFFCURVE",
"546 584 CURVE SMOOTH",
"523 576 OFFCURVE",
"500 568 OFFCURVE",
"479 557 CURVE SMOOTH",
"460 547 OFFCURVE",
"439 540 OFFCURVE",
"421 529 CURVE SMOOTH",
"394 512 OFFCURVE",
"368 494 OFFCURVE",
"341 476 CURVE SMOOTH",
"334 472 OFFCURVE",
"327 468 OFFCURVE",
"320 463 CURVE SMOOTH",
"293 445 OFFCURVE",
"270 419 OFFCURVE",
"246 396 CURVE SMOOTH",
"232 384 OFFCURVE",
"219 371 OFFCURVE",
"206 359 CURVE SMOOTH",
"201 354 OFFCURVE",
"194 350 OFFCURVE",
"189 345 CURVE SMOOTH",
"167 322 OFFCURVE",
"149 296 OFFCURVE",
"128 272 CURVE",
"127 267 LINE",
"130 268 LINE",
"130 259 OFFCURVE",
"119 260 OFFCURVE",
"114 256 CURVE SMOOTH",
"107 250 OFFCURVE",
"108 242 OFFCURVE",
"104 236 CURVE SMOOTH",
"100 231 OFFCURVE",
"95 230 OFFCURVE",
"91 226 CURVE SMOOTH",
"84 217 OFFCURVE",
"78 198 OFFCURVE",
"68 191 CURVE",
"68 184 LINE",
"65 177 OFFCURVE",
"56 170 OFFCURVE",
"56 161 CURVE SMOOTH",
"56 159 OFFCURVE",
"57 157 OFFCURVE",
"58 155 CURVE",
"60 157 OFFCURVE",
"60 160 OFFCURVE",
"61 162 CURVE",
"63 162 LINE SMOOTH",
"64 162 OFFCURVE",
"63 161 OFFCURVE",
"64 161 CURVE",
"63 155 OFFCURVE",
"44 130 OFFCURVE",
"39 126 CURVE",
"39 135 OFFCURVE",
"46 142 OFFCURVE",
"48 151 CURVE",
"47 151 LINE",
"46 147 OFFCURVE",
"37 134 OFFCURVE",
"35 129 CURVE SMOOTH",
"24 107 OFFCURVE",
"13 74 OFFCURVE",
"13 49 CURVE SMOOTH",
"13 25 OFFCURVE",
"20 21 OFFCURVE",
"33 3 CURVE SMOOTH",
"37 -2 OFFCURVE",
"40 -8 OFFCURVE",
"45 -12 CURVE SMOOTH",
"54 -20 OFFCURVE",
"70 -25 OFFCURVE",
"72 -39 CURVE",
"78 -39 OFFCURVE",
"90 -58 OFFCURVE",
"112 -58 CURVE SMOOTH",
"131 -58 OFFCURVE",
"241 -33 OFFCURVE",
"476 202 CURVE SMOOTH",
"520 247 OFFCURVE",
"650 363 OFFCURVE",
"671 444 CURVE",
"681 457 OFFCURVE",
"682 472 OFFCURVE",
"681 484 CURVE",
"694 492 OFFCURVE",
"710 505 OFFCURVE",
"710 523 CURVE SMOOTH"
);
},
{
closed = 1;
nodes = (
"675 528 OFFCURVE",
"665 514 OFFCURVE",
"652 500 CURVE",
"620 497 OFFCURVE",
"616 496 OFFCURVE",
"607 459 CURVE",
"588 444 OFFCURVE",
"572 432 OFFCURVE",
"563 426 CURVE SMOOTH",
"532 405 OFFCURVE",
"503 380 OFFCURVE",
"471 360 CURVE",
"470 358 LINE",
"471 358 LINE SMOOTH",
"473 358 OFFCURVE",
"482 364 OFFCURVE",
"484 365 CURVE SMOOTH",
"490 368 OFFCURVE",
"496 366 OFFCURVE",
"500 371 CURVE",
"503 370 LINE",
"504 370 LINE",
"505 374 OFFCURVE",
"510 375 OFFCURVE",
"512 378 CURVE",
"516 378 OFFCURVE",
"519 380 OFFCURVE",
"521 383 CURVE",
"527 383 OFFCURVE",
"532 388 OFFCURVE",
"539 389 CURVE",
"539 390 LINE",
"544 397 LINE",
"546 397 OFFCURVE",
"547 397 OFFCURVE",
"549 398 CURVE SMOOTH",
"559 401 OFFCURVE",
"574 414 OFFCURVE",
"583 421 CURVE",
"583 423 LINE",
"588 423 OFFCURVE",
"594 425 OFFCURVE",
"601 428 CURVE",
"599 416 OFFCURVE",
"598 402 OFFCURVE",
"597 385 CURVE SMOOTH",
"596 372 OFFCURVE",
"519 261 OFFCURVE",
"448 210 CURVE SMOOTH",
"431 198 OFFCURVE",
"353 119 OFFCURVE",
"270 61 CURVE SMOOTH",
"196 9 OFFCURVE",
"116 -23 OFFCURVE",
"97 -23 CURVE SMOOTH",
"79 -23 OFFCURVE",
"66 -23 OFFCURVE",
"66 1 CURVE SMOOTH",
"66 11 OFFCURVE",
"69 21 OFFCURVE",
"72 31 CURVE SMOOTH",
"99 119 OFFCURVE",
"144 173 OFFCURVE",
"199 242 CURVE SMOOTH",
"208 253 OFFCURVE",
"221 274 OFFCURVE",
"234 281 CURVE",
"235 292 OFFCURVE",
"354 396 OFFCURVE",
"370 405 CURVE",
"371 405 OFFCURVE",
"404 432 OFFCURVE",
"407 433 CURVE",
"433 447 LINE",
"438 451 OFFCURVE",
"443 456 OFFCURVE",
"449 459 CURVE",
"472 475 OFFCURVE",
"496 488 OFFCURVE",
"519 501 CURVE SMOOTH",
"528 506 OFFCURVE",
"561 521 OFFCURVE",
"565 526 CURVE",
"575 526 OFFCURVE",
"581 537 OFFCURVE",
"592 537 CURVE",
"593 540 LINE",
"607 540 OFFCURVE",
"620 556 OFFCURVE",
"645 556 CURVE SMOOTH",
"655 556 OFFCURVE",
"675 550 OFFCURVE",
"675 537 CURVE SMOOTH"
);
}
);
width = 519;
}
);
note = O;
unicode = 004F;
},
{
color = 3;
glyphname = Oslash;
lastChange = "2021-07-28 11:41:06 +0000";
layers = (
{
anchors = (
{
name = bottom;
position = "{260, 0}";
},
{
name = top;
position = "{681, 638}";
}
);
layerId = "E8487A59-2E36-4739-8DF2-414A9818920F";
paths = (
{
closed = 1;
nodes = (
"710 541 OFFCURVE",
"679 562 OFFCURVE",
"659 578 CURVE",
"761 681 LINE",
"744 700 OFFCURVE",
"639 606 OFFCURVE",
"636 597 CURVE",
"629 601 OFFCURVE",
"622 603 OFFCURVE",
"613 603 CURVE SMOOTH",
"594 603 OFFCURVE",
"565 591 OFFCURVE",
"546 584 CURVE SMOOTH",
"523 576 OFFCURVE",
"500 568 OFFCURVE",
"479 557 CURVE SMOOTH",
"460 547 OFFCURVE",
"439 540 OFFCURVE",
"421 529 CURVE SMOOTH",
"394 512 OFFCURVE",
"368 494 OFFCURVE",
"341 476 CURVE SMOOTH",
"334 472 OFFCURVE",
"327 468 OFFCURVE",
"320 463 CURVE SMOOTH",
"293 445 OFFCURVE",
"270 419 OFFCURVE",
"246 396 CURVE SMOOTH",
"232 384 OFFCURVE",
"219 371 OFFCURVE",
"206 359 CURVE SMOOTH",
"201 354 OFFCURVE",
"194 350 OFFCURVE",
"189 345 CURVE SMOOTH",
"167 322 OFFCURVE",
"149 296 OFFCURVE",
"128 272 CURVE",
"127 267 LINE",
"130 268 LINE",
"130 259 OFFCURVE",
"119 260 OFFCURVE",
"114 256 CURVE SMOOTH",
"107 250 OFFCURVE",
"108 242 OFFCURVE",
"104 236 CURVE SMOOTH",
"100 231 OFFCURVE",
"95 230 OFFCURVE",
"91 226 CURVE SMOOTH",
"84 217 OFFCURVE",
"78 198 OFFCURVE",
"68 191 CURVE",
"68 184 LINE",
"65 177 OFFCURVE",
"56 170 OFFCURVE",
"56 161 CURVE SMOOTH",
"56 159 OFFCURVE",
"57 157 OFFCURVE",
"58 155 CURVE",
"60 157 OFFCURVE",
"60 160 OFFCURVE",
"61 162 CURVE",
"63 162 LINE SMOOTH",
"64 162 OFFCURVE",
"63 161 OFFCURVE",
"64 161 CURVE",
"63 155 OFFCURVE",
"44 130 OFFCURVE",
"39 126 CURVE",
"39 135 OFFCURVE",
"46 142 OFFCURVE",
"48 151 CURVE",
"47 151 LINE",
"46 147 OFFCURVE",
"37 134 OFFCURVE",
"35 129 CURVE SMOOTH",
"24 107 OFFCURVE",
"13 74 OFFCURVE",
"13 49 CURVE SMOOTH",
"13 25 OFFCURVE",
"20 21 OFFCURVE",
"33 3 CURVE SMOOTH",
"37 -2 OFFCURVE",
"40 -8 OFFCURVE",
"45 -12 CURVE SMOOTH",
"50 -16 OFFCURVE",
"57 -20 OFFCURVE",
"63 -25 CURVE",
"-86 -176 LINE",
"-68 -196 OFFCURVE",
"42 -97 OFFCURVE",
"39 -93 CURVE",
"46 -87 OFFCURVE",
"58 -70 OFFCURVE",
"65 -67 CURVE",
"68 -60 OFFCURVE",
"74 -52 OFFCURVE",
"80 -44 CURVE",
"87 -50 OFFCURVE",
"97 -58 OFFCURVE",
"112 -58 CURVE SMOOTH",
"131 -58 OFFCURVE",
"241 -33 OFFCURVE",
"476 202 CURVE SMOOTH",
"520 247 OFFCURVE",
"650 363 OFFCURVE",
"671 444 CURVE",
"681 457 OFFCURVE",
"682 472 OFFCURVE",
"681 484 CURVE",
"694 492 OFFCURVE",
"710 505 OFFCURVE",
"710 523 CURVE SMOOTH"
);
},
{
closed = 1;
nodes = (
"675 528 OFFCURVE",
"665 514 OFFCURVE",
"652 500 CURVE",
"620 497 OFFCURVE",
"616 496 OFFCURVE",
"607 459 CURVE",
"588 444 OFFCURVE",
"572 432 OFFCURVE",
"563 426 CURVE SMOOTH",
"532 405 OFFCURVE",
"503 380 OFFCURVE",
"471 360 CURVE",
"470 358 LINE",
"471 358 LINE SMOOTH",
"473 358 OFFCURVE",
"482 364 OFFCURVE",
"484 365 CURVE SMOOTH",
"490 368 OFFCURVE",
"496 366 OFFCURVE",
"500 371 CURVE",
"503 370 LINE",
"504 370 LINE",
"505 374 OFFCURVE",
"510 375 OFFCURVE",
"512 378 CURVE",
"516 378 OFFCURVE",
"519 380 OFFCURVE",
"521 383 CURVE",
"527 383 OFFCURVE",
"532 388 OFFCURVE",
"539 389 CURVE",
"539 390 LINE",
"544 397 LINE",
"546 397 OFFCURVE",
"547 397 OFFCURVE",
"549 398 CURVE SMOOTH",
"559 401 OFFCURVE",
"574 414 OFFCURVE",
"583 421 CURVE",
"583 423 LINE",
"588 423 OFFCURVE",
"594 425 OFFCURVE",
"601 428 CURVE",
"599 416 OFFCURVE",
"598 402 OFFCURVE",
"597 385 CURVE SMOOTH",
"596 372 OFFCURVE",
"519 261 OFFCURVE",
"448 210 CURVE SMOOTH",
"431 198 OFFCURVE",
"353 119 OFFCURVE",
"270 61 CURVE SMOOTH",
"199 11 OFFCURVE",
"124 -20 OFFCURVE",
"100 -23 CURVE",
"101 -22 OFFCURVE",
"101 -21 OFFCURVE",
"102 -21 CURVE",
"125 7 OFFCURVE",
"198 71 OFFCURVE",
"222 100 CURVE SMOOTH",
"257 141 OFFCURVE",
"273 163 OFFCURVE",
"303 198 CURVE",
"304 197 OFFCURVE",
"305 196 OFFCURVE",
"305 197 CURVE",
"318 210 OFFCURVE",
"330 226 OFFCURVE",
"344 240 CURVE SMOOTH",
"347 243 LINE SMOOTH",
"362 258 OFFCURVE",
"374 273 OFFCURVE",
"384 284 CURVE SMOOTH",
"405 309 LINE",
"407 311 LINE SMOOTH",
"422 326 OFFCURVE",
"445 342 OFFCURVE",
"451 352 CURVE SMOOTH",
"457 362 LINE",
"468 373 OFFCURVE",
"476 381 OFFCURVE",
"476 382 CURVE",
"486 390 OFFCURVE",
"492 404 OFFCURVE",
"499 412 CURVE SMOOTH",
"505 421 OFFCURVE",
"513 430 OFFCURVE",
"521 438 CURVE SMOOTH",
"637 555 LINE",
"639 556 OFFCURVE",
"642 556 OFFCURVE",
"645 556 CURVE SMOOTH",
"655 556 OFFCURVE",
"675 550 OFFCURVE",
"675 537 CURVE SMOOTH"
);
},
{
closed = 1;
nodes = (
"574 526 LINE SMOOTH",
"550 497 OFFCURVE",
"477 433 OFFCURVE",
"453 405 CURVE SMOOTH",
"418 364 OFFCURVE",
"402 341 OFFCURVE",
"372 306 CURVE",
"371 308 OFFCURVE",
"370 308 OFFCURVE",
"370 308 CURVE",
"331 265 LINE",
"328 261 LINE",
"313 247 OFFCURVE",
"301 231 OFFCURVE",
"292 221 CURVE SMOOTH",
"284 212 OFFCURVE",
"278 203 OFFCURVE",
"271 196 CURVE SMOOTH",
"269 194 LINE SMOOTH",
"254 179 OFFCURVE",
"232 162 OFFCURVE",
"224 152 CURVE",
"219 142 LINE",
"208 132 OFFCURVE",
"199 123 OFFCURVE",
"200 122 CURVE",
"189 115 OFFCURVE",
"183 101 OFFCURVE",
"177 93 CURVE SMOOTH",
"170 84 OFFCURVE",
"163 75 OFFCURVE",
"154 66 CURVE SMOOTH",
"71 -17 LINE",
"67 -14 OFFCURVE",
"66 -8 OFFCURVE",
"66 1 CURVE SMOOTH",
"66 11 OFFCURVE",
"69 21 OFFCURVE",
"72 31 CURVE SMOOTH",
"99 119 OFFCURVE",
"144 173 OFFCURVE",
"199 242 CURVE SMOOTH",
"208 253 OFFCURVE",
"221 274 OFFCURVE",
"234 281 CURVE",
"235 292 OFFCURVE",
"354 396 OFFCURVE",
"370 405 CURVE",
"371 405 OFFCURVE",
"404 432 OFFCURVE",
"407 433 CURVE",
"433 447 LINE",
"438 451 OFFCURVE",
"443 456 OFFCURVE",
"449 459 CURVE",
"472 475 OFFCURVE",
"496 488 OFFCURVE",
"519 501 CURVE SMOOTH",
"528 506 OFFCURVE",
"561 521 OFFCURVE",
"565 526 CURVE",
"570 526 OFFCURVE",
"575 529 OFFCURVE",
"579 532 CURVE"
);
}
);
width = 519;
}
);
note = Oslash;
unicode = 00D8;
},
{
color = 3;
glyphname = OE;
lastChange = "2021-07-28 11:24:52 +0000";
layers = (
{
layerId = "E8487A59-2E36-4739-8DF2-414A9818920F";
paths = (
{
closed = 1;
nodes = (
"1005 -60 OFFCURVE",
"1006 -55 OFFCURVE",
"1004 -53 CURVE",
"1003 -54 LINE",
"1003 -47 LINE SMOOTH",
"1002 -41 OFFCURVE",
"993 -19 OFFCURVE",
"984 -21 CURVE",
"982 -19 LINE",
"975 -6 LINE",
"971 -5 OFFCURVE",
"969 -1 OFFCURVE",
"965 1 CURVE",
"933 9 LINE",
"930 13 OFFCURVE",
"908 19 OFFCURVE",
"901 19 CURVE",
"897 24 OFFCURVE",
"887 23 OFFCURVE",
"880 25 CURVE SMOOTH",
"870 27 OFFCURVE",
"860 28 OFFCURVE",
"850 29 CURVE SMOOTH",
"843 29 OFFCURVE",
"835 18 OFFCURVE",
"828 19 CURVE",
"805 31 LINE",
"802 34 OFFCURVE",
"776 30 OFFCURVE",
"768 29 CURVE SMOOTH",
"733 27 OFFCURVE",
"652 16 OFFCURVE",
"613 8 CURVE SMOOTH",
"598 5 OFFCURVE",
"583 4 OFFCURVE",
"568 1 CURVE SMOOTH",
"497 -11 LINE",
"498 -8 OFFCURVE",
"498 -4 OFFCURVE",
"495 1 CURVE",
"504 10 OFFCURVE",
"499 21 OFFCURVE",
"502 31 CURVE SMOOTH",
"527 114 OFFCURVE",
"569 168 OFFCURVE",
"620 231 CURVE",
"676 244 LINE",
"708 244 LINE SMOOTH",
"713 244 OFFCURVE",
"718 248 OFFCURVE",
"722 249 CURVE SMOOTH",
"733 252 OFFCURVE",
"763 256 OFFCURVE",
"767 256 CURVE SMOOTH",
"771 256 OFFCURVE",
"775 254 OFFCURVE",
"778 254 CURVE",
"782 256 OFFCURVE",
"789 258 OFFCURVE",
"789 258 CURVE",
"800 261 LINE",
"800 261 OFFCURVE",
"827 260 OFFCURVE",
"840 260 CURVE",
"840 262 OFFCURVE",
"840 265 OFFCURVE",
"842 265 CURVE SMOOTH",
"852 267 OFFCURVE",
"865 269 OFFCURVE",
"868 269 CURVE SMOOTH",
"872 269 OFFCURVE",
"875 266 OFFCURVE",
"878 266 CURVE",
"878 267 OFFCURVE",
"878 268 OFFCURVE",
"880 269 CURVE",
"889 269 OFFCURVE",
"902 273 OFFCURVE",
"906 273 CURVE SMOOTH",
"910 273 OFFCURVE",
"910 270 OFFCURVE",
"914 270 CURVE SMOOTH",
"918 270 OFFCURVE",
"947 275 OFFCURVE",
"963 279 CURVE",
"963 280 OFFCURVE",
"961 282 OFFCURVE",
"961 282 CURVE",
"954 281 OFFCURVE",
"946 281 OFFCURVE",
"941 278 CURVE",
"939 280 OFFCURVE",
"938 282 OFFCURVE",
"938 283 CURVE",
"936 282 OFFCURVE",
"934 281 OFFCURVE",
"929 281 CURVE SMOOTH",
"925 281 OFFCURVE",
"887 282 OFFCURVE",
"882 282 CURVE SMOOTH",
"877 282 OFFCURVE",
"876 285 OFFCURVE",
"874 285 CURVE SMOOTH",
"859 286 OFFCURVE",
"838 287 OFFCURVE",
"823 287 CURVE SMOOTH",
"816 287 OFFCURVE",
"803 289 OFFCURVE",
"800 289 CURVE SMOOTH",
"795 289 OFFCURVE",
"776 286 OFFCURVE",
"772 286 CURVE SMOOTH",
"767 286 LINE SMOOTH",
"763 286 OFFCURVE",
"745 288 OFFCURVE",
"741 288 CURVE SMOOTH",
"736 288 OFFCURVE",
"720 283 OFFCURVE",
"715 283 CURVE SMOOTH",
"665 284 LINE",
"678 303 OFFCURVE",
"784 396 OFFCURVE",
"800 405 CURVE",
"800 405 OFFCURVE",
"834 432 OFFCURVE",
"837 433 CURVE",
"862 447 LINE SMOOTH",
"868 451 OFFCURVE",
"873 456 OFFCURVE",
"878 459 CURVE SMOOTH",
"899 473 OFFCURVE",
"921 485 OFFCURVE",
"942 497 CURVE",
"947 496 LINE",
"946 490 OFFCURVE",
"988 486 OFFCURVE",
"991 486 CURVE SMOOTH",
"995 486 LINE SMOOTH",
"998 486 OFFCURVE",
"1005 484 OFFCURVE",
"1007 480 CURVE",
"1008 480 LINE",
"1009 479 LINE",
"1043 476 OFFCURVE",
"1075 458 OFFCURVE",
"1109 461 CURVE SMOOTH",
"1111 461 OFFCURVE",
"1113 461 OFFCURVE",
"1114 462 CURVE",
"1116 462 LINE",
"1116 460 OFFCURVE",
"1118 460 OFFCURVE",
"1118 460 CURVE",
"1127 457 OFFCURVE",
"1137 459 OFFCURVE",
"1146 458 CURVE",
"1153 456 OFFCURVE",
"1160 456 OFFCURVE",
"1166 456 CURVE SMOOTH",
"1209 459 OFFCURVE",
"1296 499 OFFCURVE",
"1309 564 CURVE",
"1302 564 OFFCURVE",
"1298 554 OFFCURVE",
"1293 549 CURVE SMOOTH",
"1266 522 OFFCURVE",
"1206 508 OFFCURVE",
"1175 506 CURVE",
"1171 505 OFFCURVE",
"1166 508 OFFCURVE",
"1163 505 CURVE",
"1147 508 OFFCURVE",
"1132 513 OFFCURVE",
"1116 512 CURVE SMOOTH",
"1112 512 OFFCURVE",
"1108 511 OFFCURVE",
"1105 509 CURVE",
"1105 508 LINE",
"1102 509 OFFCURVE",
"1104 513 OFFCURVE",
"1096 514 CURVE SMOOTH",
"1087 516 OFFCURVE",
"1084 520 OFFCURVE",
"1075 519 CURVE SMOOTH",
"1066 519 LINE",
"1066 524 LINE",
"1061 525 OFFCURVE",
"1060 523 OFFCURVE",
"1055 525 CURVE",
"1048 523 LINE",
"1047 521 LINE",
"1047 522 LINE",
"1043 523 OFFCURVE",
"1042 528 OFFCURVE",
"1038 528 CURVE SMOOTH",
"1037 528 OFFCURVE",
"1037 527 OFFCURVE",
"1036 527 CURVE",
"1036 527 OFFCURVE",
"1035 527 OFFCURVE",
"1035 526 CURVE",
"1032 527 OFFCURVE",
"1030 531 OFFCURVE",
"1027 532 CURVE",
"1027 527 LINE",
"1026 528 OFFCURVE",
"1026 527 OFFCURVE",
"1026 527 CURVE",
"1025 532 LINE",
"1022 532 LINE SMOOTH",
"1019 532 OFFCURVE",
"1015 530 OFFCURVE",
"1014 536 CURVE",
"1016 537 OFFCURVE",
"1019 537 OFFCURVE",
"1021 537 CURVE",
"1023 540 LINE",
"1037 540 OFFCURVE",
"1078 574 OFFCURVE",
"1103 574 CURVE SMOOTH",
"1129 574 OFFCURVE",
"1141 567 OFFCURVE",
"1147 548 CURVE",
"1151 523 OFFCURVE",
"1168 534 OFFCURVE",
"1168 541 CURVE SMOOTH",
"1168 563 OFFCURVE",
"1123 590 OFFCURVE",
"1107 605 CURVE SMOOTH",
"1096 616 OFFCURVE",
"1087 621 OFFCURVE",
"1071 621 CURVE SMOOTH",
"1052 621 OFFCURVE",
"1010 617 OFFCURVE",
"1001 608 CURVE SMOOTH",
"994 601 OFFCURVE",
"947 597 OFFCURVE",
"954 584 CURVE SMOOTH",
"957 578 OFFCURVE",
"947 574 OFFCURVE",
"941 574 CURVE SMOOTH",
"933 574 OFFCURVE",
"908 562 OFFCURVE",
"886 550 CURVE",
"882 551 OFFCURVE",
"879 553 OFFCURVE",
"877 554 CURVE",
"874 551 LINE",
"864 553 OFFCURVE",
"854 561 OFFCURVE",
"844 560 CURVE SMOOTH",
"843 560 OFFCURVE",
"840 559 OFFCURVE",
"840 559 CURVE",
"840 562 OFFCURVE",
"824 563 OFFCURVE",
"820 565 CURVE",
"819 565 OFFCURVE",
"817 563 OFFCURVE",
"817 563 CURVE",
"785 558 OFFCURVE",
"811 522 OFFCURVE",
"830 533 CURVE",
"832 531 OFFCURVE",
"834 529 OFFCURVE",
"836 528 CURVE",
"838 534 LINE",
"846 530 LINE",
"845 529 LINE",
"843 529 LINE",
"843 525 LINE",
"844 525 LINE",
"770 476 LINE SMOOTH",
"764 472 OFFCURVE",
"756 468 OFFCURVE",
"750 463 CURVE SMOOTH",
"723 445 OFFCURVE",
"700 419 OFFCURVE",
"675 396 CURVE SMOOTH",
"636 359 LINE",
"633 356 LINE",
"656 387 OFFCURVE",
"675 417 OFFCURVE",
"682 444 CURVE",
"692 457 OFFCURVE",
"693 472 OFFCURVE",
"692 484 CURVE",
"705 492 OFFCURVE",
"721 505 OFFCURVE",
"721 523 CURVE SMOOTH",
"721 545 OFFCURVE",
"676 572 OFFCURVE",
"660 587 CURVE SMOOTH",
"649 598 OFFCURVE",
"640 603 OFFCURVE",
"624 603 CURVE SMOOTH",
"605 603 OFFCURVE",
"576 591 OFFCURVE",
"557 584 CURVE SMOOTH",
"534 576 OFFCURVE",
"511 568 OFFCURVE",
"490 557 CURVE SMOOTH",
"471 547 OFFCURVE",
"450 540 OFFCURVE",
"432 529 CURVE SMOOTH",
"405 512 OFFCURVE",
"379 494 OFFCURVE",
"352 476 CURVE SMOOTH",
"345 472 OFFCURVE",
"338 468 OFFCURVE",
"331 463 CURVE SMOOTH",
"304 445 OFFCURVE",
"281 419 OFFCURVE",
"257 396 CURVE SMOOTH",
"243 384 OFFCURVE",
"230 371 OFFCURVE",
"217 359 CURVE SMOOTH",
"212 354 OFFCURVE",
"205 350 OFFCURVE",
"200 345 CURVE SMOOTH",
"178 322 OFFCURVE",
"160 296 OFFCURVE",
"139 272 CURVE",
"138 267 LINE",
"141 268 LINE",
"141 259 OFFCURVE",
"130 260 OFFCURVE",
"125 256 CURVE SMOOTH",
"118 250 OFFCURVE",
"119 242 OFFCURVE",
"115 236 CURVE SMOOTH",
"111 231 OFFCURVE",
"106 230 OFFCURVE",
"102 226 CURVE SMOOTH",
"95 217 OFFCURVE",
"89 198 OFFCURVE",
"79 191 CURVE",
"79 184 LINE",
"76 177 OFFCURVE",
"67 170 OFFCURVE",
"67 161 CURVE SMOOTH",
"67 159 OFFCURVE",
"68 157 OFFCURVE",
"69 155 CURVE",
"71 157 OFFCURVE",
"71 160 OFFCURVE",
"72 162 CURVE",
"74 162 LINE SMOOTH",
"73 162 OFFCURVE",
"74 161 OFFCURVE",
"75 161 CURVE",
"74 155 OFFCURVE",
"55 130 OFFCURVE",
"50 126 CURVE",
"50 135 OFFCURVE",
"57 142 OFFCURVE",
"59 151 CURVE",
"58 151 LINE",
"57 147 OFFCURVE",
"48 134 OFFCURVE",
"46 129 CURVE SMOOTH",
"35 107 OFFCURVE",
"24 74 OFFCURVE",
"24 49 CURVE SMOOTH",
"24 25 OFFCURVE",
"31 21 OFFCURVE",
"44 3 CURVE SMOOTH",
"48 -2 OFFCURVE",
"51 -8 OFFCURVE",
"56 -12 CURVE SMOOTH",
"65 -20 OFFCURVE",
"81 -25 OFFCURVE",
"83 -39 CURVE",
"89 -39 OFFCURVE",
"101 -58 OFFCURVE",
"123 -58 CURVE SMOOTH",
"142 -58 OFFCURVE",
"252 -33 OFFCURVE",
"487 202 CURVE SMOOTH",
"529 243 LINE",
"533 236 LINE",
"530 231 OFFCURVE",
"524 230 OFFCURVE",
"521 226 CURVE SMOOTH",
"513 217 OFFCURVE",
"507 198 OFFCURVE",
"498 191 CURVE",
"498 184 LINE",
"495 177 OFFCURVE",
"485 170 OFFCURVE",
"485 161 CURVE SMOOTH",
"485 159 OFFCURVE",
"486 157 OFFCURVE",
"487 155 CURVE",
"489 157 OFFCURVE",
"490 160 OFFCURVE",
"490 162 CURVE",
"492 162 LINE",
"493 161 LINE",
"493 155 OFFCURVE",
"474 130 OFFCURVE",
"469 126 CURVE",
"469 125 LINE",
"468 125 LINE",
"468 135 OFFCURVE",
"475 142 OFFCURVE",
"478 151 CURVE",
"476 151 LINE",
"476 147 OFFCURVE",
"467 134 OFFCURVE",
"465 129 CURVE SMOOTH",
"454 107 OFFCURVE",
"443 74 OFFCURVE",
"443 49 CURVE SMOOTH",
"443 25 OFFCURVE",
"450 21 OFFCURVE",
"463 3 CURVE SMOOTH",
"467 -2 OFFCURVE",
"469 -8 OFFCURVE",
"474 -12 CURVE",
"475 -12 OFFCURVE",
"476 -13 OFFCURVE",
"477 -14 CURVE",
"444 -19 LINE SMOOTH",
"427 -22 OFFCURVE",
"365 -37 OFFCURVE",
"357 -39 CURVE SMOOTH",
"326 -44 OFFCURVE",
"364 -80 OFFCURVE",
"405 -76 CURVE",
"488 -57 OFFCURVE",
"493 -27 OFFCURVE",
"585 -19 CURVE SMOOTH",
"612 -15 LINE",
"664 -14 OFFCURVE",
"772 -7 OFFCURVE",
"822 -9 CURVE SMOOTH",
"836 -10 OFFCURVE",
"848 -22 OFFCURVE",
"867 -16 CURVE",
"872 -22 OFFCURVE",
"882 -33 OFFCURVE",
"890 -35 CURVE SMOOTH",
"905 -39 OFFCURVE",
"920 -35 OFFCURVE",
"938 -36 CURVE",
"937 -37 OFFCURVE",
"937 -39 OFFCURVE",
"937 -40 CURVE",
"942 -36 OFFCURVE",
"947 -49 OFFCURVE",
"954 -47 CURVE",
"952 -51 LINE",
"968 -55 LINE",
"970 -59 OFFCURVE",
"971 -63 OFFCURVE",
"974 -66 CURVE",
"982 -78 OFFCURVE",
"999 -87 OFFCURVE",
"991 -108 CURVE SMOOTH",
"988 -117 OFFCURVE",
"978 -127 OFFCURVE",
"973 -137 CURVE",
"966 -144 LINE",
"973 -143 LINE",
"980 -137 OFFCURVE",
"993 -114 OFFCURVE",
"999 -106 CURVE",
"1003 -92 LINE SMOOTH",
"1006 -80 OFFCURVE",
"1006 -72 OFFCURVE",
"1005 -63 CURVE SMOOTH"
);
},
{
closed = 1;
nodes = (
"686 528 OFFCURVE",
"676 514 OFFCURVE",
"663 500 CURVE",
"631 497 OFFCURVE",
"627 496 OFFCURVE",
"618 459 CURVE",
"599 444 OFFCURVE",
"583 432 OFFCURVE",
"574 426 CURVE SMOOTH",
"543 405 OFFCURVE",
"514 380 OFFCURVE",
"482 360 CURVE",
"481 358 LINE",
"482 358 LINE SMOOTH",
"484 358 OFFCURVE",
"493 364 OFFCURVE",
"495 365 CURVE SMOOTH",
"501 368 OFFCURVE",
"507 366 OFFCURVE",
"511 371 CURVE",
"514 370 LINE",
"515 370 LINE",
"516 374 OFFCURVE",
"521 375 OFFCURVE",
"523 378 CURVE",
"527 378 OFFCURVE",
"530 380 OFFCURVE",
"532 383 CURVE",
"538 383 OFFCURVE",
"543 388 OFFCURVE",
"550 389 CURVE",
"550 390 LINE",
"555 397 LINE",
"557 397 OFFCURVE",
"558 397 OFFCURVE",
"560 398 CURVE SMOOTH",
"570 401 OFFCURVE",
"585 414 OFFCURVE",
"594 421 CURVE",
"594 423 LINE",
"599 423 OFFCURVE",
"605 425 OFFCURVE",
"612 428 CURVE",
"610 416 OFFCURVE",
"609 402 OFFCURVE",
"608 385 CURVE SMOOTH",
"607 376 OFFCURVE",
"575 327 OFFCURVE",
"533 280 CURVE",
"529 282 LINE",
"528 274 LINE",
"506 250 OFFCURVE",
"482 227 OFFCURVE",
"459 210 CURVE SMOOTH",
"442 198 OFFCURVE",
"364 119 OFFCURVE",
"281 61 CURVE SMOOTH",
"207 9 OFFCURVE",
"127 -23 OFFCURVE",
"108 -23 CURVE SMOOTH",
"90 -23 OFFCURVE",
"77 -23 OFFCURVE",
"77 1 CURVE SMOOTH",
"77 11 OFFCURVE",
"80 21 OFFCURVE",
"83 31 CURVE SMOOTH",
"110 119 OFFCURVE",
"155 173 OFFCURVE",
"210 242 CURVE SMOOTH",
"219 253 OFFCURVE",
"232 274 OFFCURVE",
"245 281 CURVE",
"246 292 OFFCURVE",
"365 396 OFFCURVE",
"381 405 CURVE",
"382 405 OFFCURVE",
"415 432 OFFCURVE",
"418 433 CURVE",
"444 447 LINE",
"449 451 OFFCURVE",
"454 456 OFFCURVE",
"460 459 CURVE",
"483 475 OFFCURVE",
"507 488 OFFCURVE",
"530 501 CURVE SMOOTH",
"539 506 OFFCURVE",
"572 521 OFFCURVE",
"576 526 CURVE",
"586 526 OFFCURVE",
"592 537 OFFCURVE",
"603 537 CURVE",
"604 540 LINE",
"618 540 OFFCURVE",
"631 556 OFFCURVE",
"656 556 CURVE SMOOTH",
"666 556 OFFCURVE",
"686 550 OFFCURVE",
"686 537 CURVE SMOOTH"
);
}
);
width = 1021;
}
);
note = OE;
unicode = 0152;
},
